SplineFontDB: 1.0
FontName: DBThaiText-Bold
FullName: DBThaiText Bold
FamilyName: DBThaiText
Weight: Bold
Copyright: Typeface (c) The Monotype Corporation plc. Data (c) The Monotype Corporation plc/Type Solutions Inc. 1990-1992. All Rights Reserved\n\nModified by TLWG
Version: 1.1 : May 12, 2003
ItalicAngle: 0
UnderlinePosition: -50
UnderlineWidth: 60
Ascent: 800
Descent: 200
NeedsXUIDChange: 1
FSType: 0
PfmFamily: 33
TTFWeight: 700
TTFWidth: 5
Panose: 2 0 8 3 0 0 0 0 0 0
LineGap: 184
VLineGap: 0
ScriptLang: 2
 1 latn 1 dflt 
 1 thai 1 dflt 
LangName: 1033 "" "" "" "PfaEdit : DBThaiTextBold : 13-0-2003" 
Encoding: custom
UnicodeInterp: none
DisplaySize: -72
AntiAlias: 1
FitToEm: 1
WinInfo: 0 8 2
BeginPrivate: 3
BlueValues 31 [-31 0 726 753 786 805 959 976]
OtherBlues 11 [-260 -260]
ForceBold 4 true
EndPrivate
BeginChars: 293 258
StartChar: .notdef
Encoding: 0 -1 0
Width: 901
VWidth: 2048
Flags: W
HStem: -48 118<184 783> 1443 119<64 663>
VStem: 64 120<-48 1443> 663 120<70 1562>
Fore
64 -48 m 1
 64 1562 l 1
 783 1562 l 1
 783 -48 l 1
 64 -48 l 1
184 70 m 1
 663 70 l 1
 663 1443 l 1
 184 1443 l 1
 184 70 l 1
EndSplineSet
EndChar
StartChar: exclam
Encoding: 33 33 3
Width: 319
Flags: W
HStem: 0 141<108 252>
VStem: 108 144<0 141 499 704>
Fore
146 200 m 1
 108 500 l 1
 108 704 l 1
 252 704 l 1
 252 500 l 1
 210 200 l 1
 146 200 l 1
108 141 m 1
 252 141 l 1
 252 0 l 1
 108 0 l 1
 108 141 l 1
EndSplineSet
EndChar
StartChar: quotedbl
Encoding: 34 34 4
Width: 454
VWidth: 2048
Flags: W
Fore
82 454 m 1
 45 588 l 1
 45 702 l 1
 189 702 l 1
 189 588 l 1
 147 454 l 1
 82 454 l 1
298 454 m 1
 261 588 l 1
 261 702 l 1
 406 702 l 5
 406 588 l 1
 363 454 l 1
 298 454 l 1
EndSplineSet
EndChar
StartChar: numbersign
Encoding: 35 35 5
Width: 535
Flags: W
HStem: -28 276<3 160 213 362> 138 110<3 90 213 290 416 507> 366 108<42 135 456 532>
DStem: 90 138 194 138 60 -28 160 -28 135 366 237 366 112 248 213 248 194 670 296 670 156 474 258 474 290 138 392 138 258 -28 362 -28 338 366 440 366 312 248 416 248 392 670 494 670 354 477 456 474
Fore
194 670 m 1
 296 670 l 1
 258 474 l 1
 354 477 l 1
 392 670 l 1
 494 670 l 1
 456 474 l 1
 532 474 l 1
 532 366 l 1
 440 366 l 1
 416 248 l 1
 507 248 l 1
 507 138 l 1
 392 138 l 1
 362 -28 l 1
 258 -28 l 1
 290 138 l 1
 194 138 l 1
 160 -28 l 1
 60 -28 l 1
 90 138 l 1
 3 138 l 1
 3 248 l 1
 112 248 l 1
 135 366 l 1
 42 366 l 1
 42 474 l 1
 156 474 l 1
 194 670 l 1
237 366 m 1
 213 248 l 1
 312 248 l 1
 338 366 l 1
 237 366 l 1
EndSplineSet
EndChar
StartChar: dollar
Encoding: 36 36 6
Width: 535
Flags: W
HStem: 718 20G<236 298>
VStem: 39 120<495 509.827> 234 64<-120 -18 81 273 414 585 685 738> 380 127<166 198>
Fore
500 482 m 1
 375 482 l 1
 375 513 366 537 350 555 c 0
 330 572 314 582 298 585 c 1
 298 393 l 1
 364 376 416 352 453 322 c 0
 488 292 508 250 507 198 c 0
 507 154 498 118 483 92 c 0
 468 63 452 42 429 28 c 0
 406 14 386 2 360 -3 c 0
 334 -10 314 -15 298 -18 c 1
 298 -120 l 1
 234 -120 l 1
 236 -21 l 1
 224 -18 212 -16 201 -15 c 0
 190 -14 177 -9 160 -3 c 0
 144 2 129 8 117 15 c 0
 105 24 90 34 75 50 c 0
 39 87 22 138 22 200 c 1
 148 200 l 1
 152 174 156 154 162 140 c 0
 170 123 177 112 184 105 c 0
 194 99 201 93 212 90 c 0
 220 84 230 82 236 81 c 1
 236 297 l 1
 182 308 135 327 99 357 c 0
 60 390 39 432 39 484 c 0
 38 543 56 590 92 626 c 0
 126 662 172 680 236 686 c 1
 236 738 l 1
 298 738 l 1
 298 686 l 1
 422 676 490 609 500 482 c 1
236 414 m 1
 236 588 l 1
 186 579 160 548 159 495 c 1
 160 482 165 470 170 459 c 0
 174 448 182 441 194 434 c 0
 206 426 220 418 236 414 c 1
298 273 m 1
 298 84 l 1
 303 87 310 90 318 93 c 0
 328 96 339 102 348 106 c 0
 356 112 363 118 369 129 c 0
 375 140 378 152 380 166 c 0
 380 222 352 258 298 273 c 1
EndSplineSet
EndChar
StartChar: percent
Encoding: 37 37 7
Width: 856
Flags: W
HStem: -16 21G<198 274> -12 94<656 662> 244 96<656 662> 326 96<185.154 201> 584 96<185.124 201>
VStem: 21 96<501 513> 278 97<501 513> 480 96<165 177> 735 97<165 177>
DStem: 585 682 660 682 198 -16 274 -16
Fore
274 -16 m 1
 198 -16 l 1
 585 682 l 1
 660 682 l 1
 274 -16 l 1
480 165 m 0
 480 212 496 252 531 288 c 0
 564 324 608 340 656 340 c 0
 705 340 744 324 780 288 c 0
 816 252 832 213 832 165 c 0
 832 116 816 74 780 39 c 0
 744 4 704 -12 656 -12 c 0
 608 -12 566 3 531 39 c 0
 495 75 480 116 480 165 c 0
21 501 m 0
 21 550 38 591 74 627 c 0
 108 663 148 680 198 680 c 0
 248 680 288 663 322 627 c 0
 357 591 375 550 375 501 c 0
 375 453 357 410 322 376 c 0
 288 342 248 326 198 326 c 0
 148 326 108 342 74 376 c 0
 38 410 21 453 21 501 c 0
576 165 m 0
 576 142 585 123 600 106 c 0
 615 92 634 82 656 82 c 0
 678 82 699 92 714 106 c 0
 729 123 735 142 735 165 c 0
 735 186 728 206 712 220 c 0
 696 236 678 244 656 244 c 0
 634 244 615 236 600 220 c 0
 585 206 576 186 576 165 c 0
117 501 m 0
 117 480 126 460 141 446 c 0
 156 430 177 422 198 422 c 0
 220 422 238 430 255 446 c 0
 270 460 278 480 278 501 c 0
 278 524 272 544 256 561 c 0
 240 576 220 584 198 584 c 0
 177 584 156 576 141 561 c 0
 126 544 117 524 117 501 c 0
EndSplineSet
EndChar
StartChar: ampersand
Encoding: 38 38 8
Width: 694
Flags: W
HStem: -18 110<282 293> 0 21G<513 669> 596 108<294.909 325>
VStem: 52 125<184 204> 126 129<534 561> 366 114<526 549> 508 108<340 362>
DStem: 266 308 368 380 394 147 471 249
Fore
506 362 m 1
 616 362 l 1
 616 326 610 288 598 250 c 0
 586 213 568 182 546 156 c 1
 669 0 l 1
 513 0 l 1
 466 60 l 1
 435 34 408 14 387 2 c 0
 363 -10 328 -18 285 -18 c 0
 222 -21 166 -2 120 34 c 0
 75 69 52 118 52 184 c 0
 52 188 54 201 56 226 c 0
 62 258 74 284 90 304 c 0
 106 326 126 342 147 354 c 0
 168 366 186 378 204 388 c 1
 188 405 177 418 166 430 c 0
 156 442 147 458 140 477 c 0
 130 495 126 513 126 534 c 0
 126 556 130 579 142 602 c 0
 156 634 178 660 208 678 c 0
 238 694 273 704 310 704 c 0
 352 704 388 694 420 674 c 0
 452 652 470 622 477 586 c 0
 478 572 480 560 480 549 c 0
 480 510 470 480 452 454 c 0
 430 429 404 405 368 380 c 1
 471 249 l 1
 482 258 490 272 496 290 c 0
 506 309 508 327 508 342 c 0
 508 348 507 354 506 362 c 1
276 494 m 2
 308 456 l 1
 318 462 328 468 336 472 c 0
 342 478 350 483 354 492 c 0
 360 500 364 512 366 526 c 0
 366 548 363 564 356 576 c 0
 351 588 336 596 310 596 c 0
 278 596 260 584 255 561 c 1
 255 538 260 513 276 494 c 2
394 147 m 1
 266 308 l 1
 234 286 212 273 200 264 c 0
 184 250 177 231 177 204 c 0
 177 171 192 141 220 116 c 0
 238 100 260 92 282 92 c 0
 314 92 352 110 394 147 c 1
EndSplineSet
EndChar
StartChar: quotesingle
Encoding: 39 39 9
Width: 214
VWidth: 2048
Flags: W
Fore
82 454 m 1
 45 588 l 1
 45 702 l 1
 189 702 l 1
 189 588 l 1
 147 454 l 1
 82 454 l 1
EndSplineSet
EndChar
StartChar: parenleft
Encoding: 40 40 10
Width: 319
Flags: W
Fore
195 704 m 1
 291 704 l 1
 252 634 222 566 196 498 c 0
 171 429 159 363 159 297 c 0
 159 278 159 262 160 255 c 0
 165 177 178 96 204 14 c 0
 226 -69 256 -140 291 -195 c 1
 195 -195 l 1
 160 -135 140 -96 128 -75 c 0
 116 -52 102 -24 88 14 c 0
 75 50 64 87 56 123 c 0
 48 160 40 206 39 255 c 0
 39 300 44 346 54 390 c 0
 63 434 76 474 92 512 c 0
 106 549 122 582 138 608 c 0
 153 632 171 664 195 704 c 1
EndSplineSet
EndChar
StartChar: parenright
Encoding: 41 41 11
Width: 319
Flags: W
Fore
22 704 m 1
 117 704 l 1
 166 627 204 556 232 490 c 0
 261 423 276 344 274 255 c 0
 273 165 258 90 234 28 c 0
 208 -32 170 -106 117 -195 c 1
 22 -195 l 1
 57 -140 88 -69 112 14 c 0
 135 94 148 174 153 255 c 0
 154 262 154 276 154 292 c 0
 154 328 152 363 144 399 c 0
 138 432 126 468 114 506 c 0
 100 544 88 578 74 608 c 0
 60 636 42 668 22 704 c 1
EndSplineSet
EndChar
StartChar: asterisk
Encoding: 42 42 12
Width: 373
Flags: W
VStem: 146 74<585 704>
DStem: 180 465 238 518 252 370 314 423
Fore
116 370 m 1
 52 423 l 1
 128 518 l 1
 22 555 l 1
 48 622 l 1
 146 585 l 1
 146 704 l 1
 220 704 l 1
 220 585 l 1
 318 622 l 1
 344 555 l 1
 238 518 l 1
 314 423 l 1
 252 370 l 1
 180 465 l 1
 116 370 l 1
EndSplineSet
EndChar
StartChar: plus
Encoding: 43 43 13
Width: 562
Flags: W
HStem: 286 116<48 224 339 516>
VStem: 224 115<110 286 402 578>
Fore
224 578 m 5
 339 578 l 5
 339 402 l 5
 516 402 l 5
 516 286 l 5
 339 286 l 5
 339 110 l 5
 224 110 l 5
 224 286 l 5
 48 286 l 5
 48 402 l 5
 224 402 l 5
 224 578 l 5
EndSplineSet
EndChar
StartChar: comma
Encoding: 44 44 14
Width: 330
Flags: W
Fore
255 74 m 0
 256 27 238 -12 207 -40 c 0
 174 -70 144 -88 112 -92 c 1
 100 -68 l 1
 122 -56 140 -46 152 -36 c 0
 165 -26 172 -9 177 14 c 1
 158 14 141 18 123 28 c 0
 106 39 99 57 96 87 c 0
 96 106 104 123 116 140 c 0
 128 153 144 159 165 159 c 0
 195 159 218 152 231 135 c 0
 246 120 255 99 255 74 c 0
EndSplineSet
EndChar
StartChar: hyphen
Encoding: 45 45 15
Width: 319
Flags: W
HStem: 200 132<26 288>
Fore
26 332 m 1
 288 332 l 1
 288 200 l 1
 26 200 l 1
 26 332 l 1
EndSplineSet
EndChar
StartChar: period
Encoding: 46 46 16
Width: 240
Flags: W
HStem: 0 21G<105.5 128.5>
Fore
117 0 m 0
 94 0 76 8 64 21 c 0
 52 34 46 51 46 70 c 0
 46 90 52 106 64 120 c 0
 76 134 94 141 117 141 c 0
 140 141 156 134 168 120 c 0
 180 108 186 92 186 70 c 0
 186 51 180 34 168 21 c 0
 156 8 140 0 117 0 c 0
EndSplineSet
EndChar
StartChar: slash
Encoding: 47 47 17
Width: 267
Flags: W
HStem: -14 21G<2 63>
DStem: 206 690 264 690 2 -14 63 -14
Fore
206 690 m 1
 264 690 l 1
 63 -14 l 1
 2 -14 l 1
 206 690 l 1
EndSplineSet
EndChar
StartChar: zero
Encoding: 48 48 18
Width: 535
Flags: W
HStem: -22 124<262 269> 576 123<262 269>
VStem: 28 134<339 379> 363 135<339 379>
Fore
262 -22 m 0
 231 -22 198 -16 170 -4 c 0
 141 8 117 22 99 44 c 0
 52 102 28 200 28 339 c 0
 28 480 52 576 99 632 c 0
 117 654 141 669 170 681 c 0
 198 693 231 699 262 699 c 0
 336 699 392 676 429 632 c 0
 474 576 498 480 498 339 c 0
 498 200 474 102 429 44 c 0
 392 0 336 -22 262 -22 c 0
262 102 m 0
 304 102 332 117 344 147 c 0
 356 182 363 246 363 339 c 0
 363 432 356 495 344 531 c 0
 332 561 304 576 262 576 c 0
 244 576 226 573 212 564 c 0
 196 556 188 546 183 531 c 0
 170 496 162 432 162 339 c 0
 162 244 170 180 183 147 c 1
 192 117 219 102 262 102 c 0
EndSplineSet
EndChar
StartChar: one
Encoding: 49 49 19
Width: 535
Flags: W
HStem: 0 21G<230 364> 472 90<66 89.2694>
VStem: 230 134<0 682>
Fore
364 682 m 1
 364 0 l 1
 230 0 l 1
 230 472 l 1
 66 472 l 1
 66 562 l 1
 92 562 120 566 148 573 c 0
 178 578 200 586 216 598 c 0
 252 624 273 652 274 682 c 1
 364 682 l 1
EndSplineSet
EndChar
StartChar: two
Encoding: 50 50 20
Width: 535
Flags: W
HStem: 0 122<206 494>
VStem: 39 131<447 474.83> 360 135<452 481>
Fore
494 122 m 1
 494 0 l 1
 28 0 l 1
 32 48 40 88 52 123 c 0
 64 159 90 195 134 230 c 0
 165 255 204 279 243 310 c 0
 282 339 308 362 321 376 c 0
 346 408 360 441 360 474 c 0
 360 486 357 500 354 516 c 0
 351 538 340 558 322 570 c 0
 303 582 285 588 262 588 c 0
 256 588 248 586 238 585 c 0
 194 574 170 530 170 447 c 1
 39 447 l 1
 39 530 60 591 99 636 c 0
 138 678 198 704 278 700 c 0
 422 693 498 608 495 452 c 0
 494 386 434 315 330 243 c 0
 258 192 218 152 206 122 c 1
 494 122 l 1
EndSplineSet
EndChar
StartChar: three
Encoding: 51 51 21
Width: 535
Flags: W
HStem: -22 109<258 284> 304 92<210 232.67> 591 108<255 285>
VStem: 348 129<490 506>
Fore
28 200 m 1
 158 200 l 1
 159 178 162 160 166 148 c 0
 170 138 177 126 184 117 c 0
 194 108 206 100 220 94 c 0
 238 90 260 87 284 87 c 1
 298 92 312 100 321 108 c 0
 348 134 362 162 362 198 c 0
 362 231 348 256 322 276 c 0
 297 296 260 304 210 304 c 1
 210 396 l 1
 248 396 278 404 303 416 c 0
 327 428 340 447 344 474 c 0
 346 488 348 498 348 504 c 0
 348 519 344 534 339 548 c 0
 332 561 322 572 309 579 c 0
 296 586 278 591 256 591 c 0
 218 594 192 579 180 558 c 0
 170 536 165 506 162 468 c 1
 39 468 l 1
 39 518 46 558 60 590 c 0
 74 622 102 651 146 676 c 0
 172 692 219 700 285 699 c 0
 339 699 381 682 410 657 c 0
 438 636 454 610 462 585 c 0
 471 560 477 526 477 490 c 1
 472 460 466 440 456 423 c 0
 444 406 426 388 400 366 c 1
 435 344 460 321 477 292 c 0
 492 268 500 230 498 178 c 0
 496 129 474 82 440 40 c 0
 402 -2 340 -22 258 -22 c 0
 222 -22 190 -16 160 -9 c 0
 132 0 104 21 78 52 c 0
 60 75 46 99 40 122 c 0
 34 146 30 171 28 200 c 1
EndSplineSet
EndChar
StartChar: four
Encoding: 52 52 22
Width: 535
Flags: W
HStem: 0 21G<297 432> 152 109<120 297 432 504>
VStem: 297 135<0 152 261 682>
DStem: 274 682 297 546 24 266 120 261
Fore
274 682 m 1
 432 682 l 1
 432 261 l 1
 504 261 l 1
 504 152 l 1
 432 152 l 1
 432 0 l 1
 297 0 l 1
 297 152 l 1
 24 152 l 1
 24 266 l 1
 274 682 l 1
297 546 m 1
 120 261 l 1
 297 261 l 1
 297 546 l 1
EndSplineSet
EndChar
StartChar: five
Encoding: 53 53 23
Width: 535
Flags: W
HStem: -22 114<244 262> 352 108<246 286> 562 120<108 472>
VStem: 362 136<217 235>
DStem: 108 682 192 562 46 303 168 422
Fore
26 178 m 1
 159 178 l 1
 160 160 165 147 170 135 c 0
 174 123 183 114 198 105 c 0
 213 96 234 92 261 92 c 0
 296 93 321 106 338 132 c 0
 352 158 362 186 362 222 c 0
 362 261 354 291 339 312 c 0
 316 339 286 354 246 352 c 0
 207 352 182 334 170 303 c 1
 46 303 l 1
 108 682 l 1
 472 682 l 1
 472 562 l 1
 192 562 l 1
 168 422 l 1
 194 438 216 447 231 453 c 0
 249 458 268 460 286 460 c 0
 309 460 334 458 360 448 c 0
 405 434 441 405 465 364 c 0
 486 324 498 278 498 230 c 0
 498 172 483 123 459 84 c 0
 440 52 416 28 386 12 c 0
 354 -8 314 -16 262 -22 c 1
 218 -22 184 -16 162 -9 c 0
 141 0 118 14 96 30 c 0
 75 50 60 66 48 84 c 0
 38 104 30 118 28 134 c 0
 27 147 26 162 26 178 c 1
EndSplineSet
EndChar
StartChar: six
Encoding: 54 54 24
Width: 535
Flags: W
HStem: -22 114<256 274> 348 104<264 314> 594 106<269 284>
VStem: 374 126<216 235>
Fore
488 531 m 1
 363 531 l 1
 350 572 322 591 284 594 c 0
 255 594 232 586 213 573 c 0
 195 561 183 546 178 530 c 0
 168 504 162 472 162 438 c 0
 162 420 165 408 166 400 c 1
 184 416 204 429 225 438 c 0
 248 446 278 452 314 452 c 0
 375 452 423 423 460 369 c 0
 486 330 500 284 500 231 c 0
 500 184 494 146 478 114 c 0
 458 68 430 34 399 14 c 0
 364 -9 322 -21 272 -22 c 0
 218 -24 171 -8 132 24 c 0
 93 56 66 94 52 142 c 0
 38 198 30 264 30 340 c 0
 30 408 38 468 52 519 c 0
 69 572 96 615 134 650 c 0
 171 682 220 700 279 700 c 0
 296 700 309 700 316 699 c 0
 382 690 428 668 452 634 c 0
 472 600 486 566 488 531 c 1
177 286 m 0
 166 266 160 243 160 218 c 0
 160 182 170 153 186 129 c 0
 201 108 225 96 256 92 c 1
 291 92 316 102 336 122 c 0
 362 152 374 184 374 226 c 0
 374 260 366 285 352 308 c 0
 334 334 303 348 264 348 c 0
 246 346 230 340 213 330 c 0
 198 322 184 308 177 286 c 0
EndSplineSet
EndChar
StartChar: seven
Encoding: 55 55 25
Width: 535
Flags: W
HStem: 0 21G<128 262> 562 120<28 366>
Fore
28 682 m 1
 508 682 l 1
 508 578 l 1
 472 536 441 492 412 447 c 0
 382 404 360 357 338 310 c 0
 316 262 300 213 286 162 c 0
 274 112 266 57 262 0 c 1
 128 0 l 1
 135 68 147 128 160 177 c 0
 172 225 190 272 208 314 c 0
 226 354 249 394 274 434 c 0
 300 474 330 518 366 562 c 1
 28 562 l 1
 28 682 l 1
EndSplineSet
EndChar
StartChar: eight
Encoding: 56 56 26
Width: 535
Flags: W
HStem: -22 112<245 256> 318 92<247 264> 597 103<249 279>
VStem: 22 138<185 219> 46 119<493.208 523> 362 145<208 219> 369 117<505 523>
Fore
471 96 m 1
 453 57 422 28 382 9 c 0
 342 -12 300 -24 255 -22 c 0
 210 -22 170 -10 130 12 c 0
 92 32 63 62 44 99 c 0
 28 128 22 159 22 198 c 0
 22 278 57 336 128 374 c 1
 102 393 82 414 68 434 c 0
 52 456 46 482 46 510 c 0
 46 540 52 570 68 597 c 0
 84 628 108 654 141 674 c 0
 172 692 210 700 249 700 c 0
 342 700 408 675 444 624 c 0
 472 585 486 548 486 508 c 0
 486 477 478 448 459 423 c 0
 441 399 418 381 393 374 c 1
 429 363 456 342 477 312 c 0
 496 282 507 248 507 208 c 0
 507 166 495 129 471 96 c 1
326 432 m 1
 340 441 351 453 357 468 c 0
 366 483 369 498 369 513 c 0
 369 536 363 552 350 566 c 0
 334 585 309 597 274 597 c 0
 238 598 212 588 194 572 c 0
 174 556 165 534 165 508 c 0
 165 482 174 458 194 438 c 0
 208 422 230 410 258 410 c 0
 290 408 314 417 326 432 c 1
334 122 m 0
 340 129 348 141 352 158 c 0
 357 174 362 192 362 208 c 0
 362 234 354 256 342 274 c 0
 326 302 300 316 264 318 c 0
 232 318 206 309 186 286 c 0
 170 268 160 240 160 206 c 0
 160 172 168 147 180 129 c 1
 201 105 226 90 256 90 c 0
 288 88 315 100 334 122 c 0
EndSplineSet
EndChar
StartChar: nine
Encoding: 57 57 27
Width: 535
Flags: W
HStem: -22 106<240 259> 222 116<239 258> 588 116<239 258>
VStem: 27 120<458 475> 363 135<364 458>
Fore
36 159 m 1
 168 159 l 1
 168 142 174 126 190 108 c 0
 206 93 222 84 240 84 c 0
 292 84 328 106 346 148 c 0
 360 183 366 216 366 244 c 0
 366 260 364 272 360 282 c 1
 340 260 318 243 290 231 c 0
 276 225 261 222 244 222 c 0
 222 222 206 222 192 225 c 0
 126 237 78 276 51 339 c 0
 36 375 27 414 27 458 c 0
 27 510 38 552 57 588 c 0
 76 621 104 650 138 670 c 0
 170 693 207 704 249 704 c 0
 256 704 268 702 284 700 c 0
 298 700 321 694 346 686 c 0
 370 674 394 657 417 638 c 0
 440 616 454 594 460 568 c 1
 486 512 498 444 498 364 c 0
 498 310 494 260 483 210 c 0
 471 160 459 122 444 93 c 0
 418 48 388 15 351 0 c 0
 314 -15 276 -22 240 -22 c 0
 174 -22 123 -2 88 39 c 0
 52 81 36 120 36 159 c 1
332 558 m 1
 314 578 286 588 252 588 c 0
 224 588 198 574 172 548 c 1
 156 525 147 495 147 458 c 0
 147 420 158 392 180 369 c 0
 200 348 225 338 256 338 c 0
 286 338 312 350 332 370 c 0
 352 393 363 422 363 458 c 0
 363 480 360 501 352 520 c 0
 348 538 340 550 332 558 c 1
EndSplineSet
EndChar
StartChar: colon
Encoding: 58 58 28
Width: 292
Flags: W
HStem: 0 135<156 169> 410 134<156 169>
Fore
156 0 m 0
 134 0 118 8 106 21 c 0
 94 32 88 50 88 68 c 0
 88 87 94 102 106 116 c 0
 118 129 134 135 156 135 c 0
 178 135 195 129 207 116 c 0
 219 104 225 87 225 68 c 0
 225 50 219 34 207 21 c 0
 195 8 178 0 156 0 c 0
156 410 m 0
 134 410 118 417 106 430 c 0
 94 444 88 459 88 478 c 0
 88 495 94 510 106 524 c 0
 118 537 134 544 156 544 c 0
 178 544 195 537 207 525 c 0
 219 512 225 496 225 478 c 0
 225 459 219 444 207 430 c 0
 195 417 178 410 156 410 c 0
EndSplineSet
EndChar
StartChar: semicolon
Encoding: 59 59 29
Width: 330
Flags: W
HStem: 14 145<163 177> 364 149<170 179>
Fore
170 364 m 0
 146 364 128 370 116 387 c 0
 104 402 96 418 96 440 c 0
 96 459 104 477 116 492 c 0
 128 507 146 513 170 513 c 0
 195 513 213 507 225 492 c 0
 237 477 244 459 244 440 c 0
 244 418 237 402 225 387 c 0
 212 370 194 364 170 364 c 0
255 74 m 0
 256 27 238 -12 207 -40 c 0
 174 -70 144 -88 112 -92 c 1
 100 -68 l 1
 122 -56 140 -46 152 -36 c 0
 165 -26 172 -9 177 14 c 1
 158 14 141 18 123 28 c 0
 106 39 99 57 96 87 c 0
 96 106 104 123 116 140 c 0
 128 153 144 159 165 159 c 0
 195 159 218 152 231 135 c 0
 246 120 255 99 255 74 c 0
EndSplineSet
EndChar
StartChar: less
Encoding: 60 60 30
Width: 562
Flags: W
DStem: 39 286 207 344 510 110 510 236 510 578 510 452 39 402 207 344
Fore
39 286 m 5
 39 402 l 5
 510 578 l 5
 510 452 l 5
 207 344 l 5
 510 236 l 5
 510 110 l 5
 39 286 l 5
EndSplineSet
EndChar
StartChar: equal
Encoding: 61 61 31
Width: 562
Flags: W
HStem: 168 118<48 516> 402 114<48 516>
Fore
48 516 m 5
 516 516 l 5
 516 402 l 5
 48 402 l 5
 48 516 l 5
48 286 m 5
 516 286 l 5
 516 168 l 5
 48 168 l 5
 48 286 l 5
EndSplineSet
EndChar
StartChar: greater
Encoding: 62 62 32
Width: 562
Flags: W
DStem: 39 452 39 578 340 344 510 402 340 344 510 286 39 236 39 110
Fore
39 578 m 5
 510 402 l 5
 510 286 l 5
 39 110 l 5
 39 236 l 5
 340 344 l 5
 39 452 l 5
 39 578 l 5
EndSplineSet
EndChar
StartChar: question
Encoding: 63 63 33
Width: 589
Flags: W
HStem: 0 141<231 375> 591 127<286 304>
VStem: 63 131<465 486.807> 237 117<194 217.726> 394 142<501 513>
Fore
354 194 m 1
 237 194 l 1
 237 243 246 282 264 314 c 0
 284 342 310 374 350 402 c 0
 380 423 396 458 394 501 c 0
 394 531 382 552 364 568 c 0
 346 584 324 591 298 591 c 0
 270 591 244 582 224 560 c 0
 204 537 194 507 194 465 c 1
 63 465 l 1
 63 548 87 615 135 668 c 1
 178 702 230 718 290 718 c 0
 327 718 362 714 393 702 c 0
 426 690 452 675 470 656 c 0
 513 614 536 562 536 501 c 0
 536 462 526 428 512 399 c 0
 508 392 504 382 495 374 c 0
 486 363 478 356 471 351 c 0
 462 344 456 338 447 332 c 0
 440 326 429 318 418 310 c 0
 392 290 374 274 366 260 c 0
 357 243 354 220 354 194 c 1
231 0 m 1
 231 141 l 1
 375 141 l 1
 375 0 l 1
 231 0 l 1
EndSplineSet
EndChar
StartChar: at
Encoding: 64 64 34
Width: 939
Flags: W
HStem: -132 84<441 499> 56 76<664 683> 432 68<481 499> 639 79<460 511>
VStem: 26 94<230 269> 248 92<220 246> 826 88<334 365>
Fore
621 492 m 1
 706 492 l 1
 626 200 l 1
 626 184 627 171 630 160 c 0
 632 148 639 141 648 135 c 0
 652 134 660 132 669 132 c 0
 687 132 700 135 712 144 c 1
 730 153 748 166 765 184 c 0
 782 206 794 222 798 237 c 0
 818 276 826 315 826 357 c 0
 826 381 824 404 818 426 c 0
 812 452 796 478 771 510 c 0
 746 543 717 566 688 585 c 0
 632 621 564 639 483 639 c 0
 458 639 430 636 402 630 c 0
 368 624 332 604 292 576 c 0
 256 548 224 513 196 478 c 0
 146 412 120 334 120 248 c 0
 120 222 126 198 132 174 c 0
 141 148 147 128 159 106 c 0
 171 88 182 74 194 62 c 0
 238 14 300 -18 376 -38 c 0
 405 -44 435 -48 468 -48 c 0
 532 -48 598 -36 666 -12 c 1
 693 -88 l 1
 636 -117 560 -132 462 -132 c 0
 430 -132 405 -130 382 -128 c 0
 351 -122 322 -117 296 -108 c 0
 266 -100 237 -87 206 -64 c 0
 172 -44 141 -16 110 18 c 0
 84 50 64 84 50 123 c 0
 34 162 26 200 26 232 c 0
 26 272 28 304 36 336 c 0
 40 366 51 396 66 428 c 0
 80 458 96 486 116 512 c 0
 144 550 180 590 225 627 c 0
 272 663 318 687 370 702 c 0
 410 714 452 718 496 718 c 0
 578 718 651 700 714 663 c 0
 820 600 885 520 904 428 c 0
 910 400 914 374 914 348 c 0
 914 298 903 255 885 216 c 0
 852 147 812 102 760 76 c 0
 734 63 705 56 675 56 c 0
 652 56 634 60 615 64 c 0
 590 70 568 90 549 120 c 1
 518 93 490 75 470 66 c 0
 448 57 429 52 406 52 c 0
 390 52 368 60 340 70 c 0
 314 82 292 100 278 122 c 0
 258 154 248 186 248 220 c 0
 248 226 248 238 250 255 c 0
 264 334 300 394 352 438 c 0
 402 480 448 500 495 500 c 0
 507 500 519 498 530 495 c 0
 570 484 596 465 604 434 c 1
 621 492 l 1
412 130 m 1
 446 130 472 140 494 158 c 1
 519 177 537 204 550 240 c 0
 566 278 573 312 573 342 c 0
 572 387 549 416 508 429 c 0
 501 430 496 432 492 432 c 0
 477 432 459 428 444 418 c 0
 428 410 412 396 396 381 c 0
 381 366 369 346 360 321 c 0
 350 296 340 270 340 244 c 0
 339 216 348 190 362 170 c 0
 374 148 390 135 412 130 c 1
EndSplineSet
EndChar
StartChar: A
Encoding: 65 65 35
Width: 694
Flags: W
HStem: 0 21G<26 172 531 678> 141 120<268 482>
DStem: 270 704 354 534 26 0 268 261 270 704 222 141 26 0 172 0 354 534 438 704 447 261 678 0 482 141 438 704 531 0 678 0
Fore
438 704 m 1
 678 0 l 1
 531 0 l 1
 482 141 l 1
 222 141 l 1
 172 0 l 1
 26 0 l 1
 270 704 l 1
 438 704 l 1
354 534 m 1
 268 261 l 1
 447 261 l 1
 354 534 l 1
EndSplineSet
EndChar
StartChar: B
Encoding: 66 66 36
Width: 694
Flags: W
HStem: 0 120<224 401> 302 120<224 401> 584 120<80 401>
VStem: 80 144<0 302 0 584> 484 140<501 519> 501 139<219 227>
Fore
80 0 m 1
 80 704 l 1
 392 704 l 2
 417 704 447 699 482 690 c 0
 513 681 540 668 560 650 c 1
 579 634 596 616 603 602 c 0
 608 596 610 582 615 562 c 0
 621 543 622 526 624 519 c 0
 624 494 618 470 608 444 c 0
 597 418 579 394 556 375 c 1
 578 360 597 338 612 312 c 0
 627 285 638 256 640 226 c 1
 640 186 636 153 624 123 c 0
 612 94 594 69 568 48 c 0
 530 15 472 0 396 0 c 2
 80 0 l 1
224 584 m 1
 224 422 l 1
 388 422 l 2
 418 422 442 429 459 444 c 0
 477 459 484 478 484 501 c 0
 483 556 453 584 394 584 c 2
 224 584 l 1
224 302 m 1
 224 120 l 1
 393 120 l 2
 422 120 447 126 470 138 c 0
 492 148 504 177 501 219 c 0
 501 252 492 274 472 285 c 0
 454 297 429 302 396 302 c 2
 224 302 l 1
EndSplineSet
EndChar
StartChar: C
Encoding: 67 67 37
Width: 694
Flags: W
HStem: -22 124<344 366> 594 120<344 364>
VStem: 42 141<346 382.445>
Fore
520 240 m 1
 662 240 l 1
 662 206 652 170 634 134 c 0
 615 96 591 68 566 46 c 0
 544 27 513 12 477 0 c 0
 440 -14 400 -22 360 -22 c 0
 279 -24 216 0 162 42 c 0
 110 87 75 146 56 222 c 0
 48 255 42 297 42 346 c 0
 42 399 48 442 60 480 c 0
 105 636 207 714 364 714 c 0
 441 714 504 694 555 660 c 0
 622 614 657 549 662 465 c 1
 522 465 l 1
 520 480 516 498 506 519 c 0
 494 538 477 556 452 572 c 0
 426 586 390 596 346 594 c 0
 314 594 286 579 261 560 c 0
 236 537 218 512 206 482 c 0
 194 453 184 412 183 360 c 0
 182 330 184 303 188 279 c 0
 190 256 195 234 206 212 c 0
 225 166 258 132 297 114 c 0
 316 105 336 102 352 102 c 0
 370 102 392 105 414 110 c 0
 458 122 484 141 496 162 c 0
 508 184 518 212 520 240 c 1
EndSplineSet
EndChar
StartChar: D
Encoding: 68 68 38
Width: 694
Flags: W
HStem: 0 120<219 392> 584 120<75 364>
VStem: 75 144<0 584> 510 146<351 384>
Fore
75 0 m 1
 75 704 l 1
 402 704 l 2
 428 704 454 699 482 688 c 0
 507 678 534 662 560 636 c 0
 585 612 604 579 626 538 c 0
 644 500 656 447 656 382 c 0
 656 326 650 274 638 231 c 0
 626 186 609 152 591 123 c 0
 566 84 537 56 501 34 c 0
 466 12 429 0 392 0 c 2
 75 0 l 1
219 584 m 1
 219 120 l 1
 334 120 l 2
 406 120 458 153 486 216 c 0
 501 250 510 300 510 364 c 0
 510 434 496 484 474 519 c 0
 458 544 441 561 420 570 c 0
 400 578 376 584 350 584 c 2
 219 584 l 1
EndSplineSet
EndChar
StartChar: E
Encoding: 69 69 39
Width: 642
Flags: W
HStem: 0 120<220 602> 302 120<220 558> 584 120<76 585>
VStem: 76 144<0 302 0 584>
Fore
76 704 m 1
 585 704 l 1
 585 584 l 1
 220 584 l 1
 220 422 l 1
 558 422 l 1
 558 302 l 1
 220 302 l 1
 220 120 l 1
 602 120 l 1
 602 0 l 1
 76 0 l 1
 76 704 l 1
EndSplineSet
EndChar
StartChar: F
Encoding: 70 70 40
Width: 589
Flags: W
HStem: 0 21G<70 216> 302 120<216 524> 584 120<70 564>
VStem: 70 146<0 302 0 584>
Fore
70 704 m 1
 564 704 l 1
 564 584 l 1
 216 584 l 1
 216 422 l 1
 524 422 l 1
 524 302 l 1
 216 302 l 1
 216 0 l 1
 70 0 l 1
 70 704 l 1
EndSplineSet
EndChar
StartChar: G
Encoding: 71 71 41
Width: 748
Flags: W
HStem: -3 21G<598 686> 258 120<404 564> 596 118<362 393>
VStem: 40 140<329 363>
Fore
404 258 m 1
 404 378 l 1
 686 378 l 1
 686 -3 l 1
 598 -3 l 1
 582 84 l 1
 562 63 546 44 531 32 c 1
 516 16 492 4 460 -4 c 0
 430 -16 393 -24 351 -22 c 0
 318 -22 291 -15 272 -9 c 1
 249 -4 232 3 218 12 c 0
 201 21 188 30 174 42 c 0
 160 54 152 63 146 68 c 0
 112 102 87 142 68 192 c 0
 50 240 40 292 40 346 c 0
 40 420 57 490 93 552 c 0
 128 615 177 663 240 690 c 0
 279 706 324 714 375 714 c 0
 420 714 460 708 500 699 c 0
 538 688 573 668 604 638 c 0
 651 591 678 538 686 480 c 1
 552 480 l 1
 540 519 520 548 490 566 c 0
 459 585 423 596 381 596 c 0
 338 596 297 582 258 556 c 1
 232 534 213 504 200 465 c 0
 188 428 180 387 180 344 c 0
 180 292 188 252 204 222 c 0
 243 146 296 104 364 94 c 1
 438 94 488 118 524 160 c 0
 546 190 561 220 564 258 c 1
 404 258 l 1
EndSplineSet
EndChar
StartChar: H
Encoding: 72 72 42
Width: 694
Flags: W
HStem: 0 21G<66 210 488 634> 318 122<210 488>
VStem: 66 144<0 318 0 704> 488 146<0 704>
Fore
66 0 m 1
 66 704 l 1
 210 704 l 1
 210 440 l 1
 488 440 l 1
 488 704 l 1
 634 704 l 1
 634 0 l 1
 488 0 l 1
 488 318 l 1
 210 318 l 1
 210 0 l 1
 66 0 l 1
EndSplineSet
EndChar
StartChar: I
Encoding: 73 73 43
Width: 267
Flags: W
HStem: 0 21G<62 206>
VStem: 62 144<0 704>
Fore
206 704 m 1
 206 0 l 1
 62 0 l 1
 62 704 l 1
 206 704 l 1
EndSplineSet
EndChar
StartChar: J
Encoding: 74 74 44
Width: 535
Flags: W
HStem: -22 122<249 264>
VStem: 24 144<176 260> 324 144<166 704>
Fore
324 704 m 1
 468 704 l 1
 468 168 l 2
 468 120 452 80 418 44 c 0
 382 3 330 -21 262 -22 c 0
 200 -24 152 -14 118 3 c 0
 96 15 78 30 64 50 c 0
 51 68 40 88 36 110 c 0
 28 132 24 154 24 180 c 2
 24 260 l 1
 168 260 l 1
 168 188 l 2
 168 166 172 146 183 128 c 0
 194 108 216 99 249 100 c 0
 276 100 296 110 308 126 c 0
 318 141 324 158 324 178 c 2
 324 704 l 1
EndSplineSet
EndChar
StartChar: K
Encoding: 75 75 45
Width: 694
Flags: W
HStem: 0 21G<70 216 518 692>
VStem: 70 146<0 225 0 704>
DStem: 290 304 386 399 518 0 692 0 492 704 663 704 216 394 386 399
Fore
70 0 m 1
 70 704 l 1
 216 704 l 1
 216 394 l 1
 492 704 l 1
 663 704 l 1
 386 399 l 1
 692 0 l 1
 518 0 l 1
 290 304 l 1
 216 225 l 1
 216 0 l 1
 70 0 l 1
EndSplineSet
EndChar
StartChar: L
Encoding: 76 76 46
Width: 589
Flags: W
HStem: 0 120<221 558>
VStem: 76 146<0 704>
Fore
76 704 m 1
 222 704 l 1
 222 120 l 1
 558 120 l 1
 558 0 l 1
 76 0 l 1
 76 704 l 1
EndSplineSet
EndChar
StartChar: M
Encoding: 77 77 47
Width: 802
Flags: W
HStem: 0 21G<63 208 334 478 603 748>
VStem: 63 145<0 570> 603 145<0 704>
Fore
478 0 m 1
 334 0 l 1
 208 570 l 1
 208 0 l 1
 63 0 l 1
 63 704 l 1
 274 704 l 1
 406 162 l 1
 537 704 l 1
 748 704 l 1
 748 0 l 1
 603 0 l 1
 603 570 l 1
 478 0 l 1
EndSplineSet
EndChar
StartChar: N
Encoding: 78 78 48
Width: 694
Flags: W
HStem: 0 21G<66 210 495 638>
VStem: 66 144<0 490> 494 144<220 704>
DStem: 210 490 208 704 495 0 494 220
Fore
66 704 m 1
 208 704 l 1
 494 220 l 1
 494 704 l 1
 638 704 l 1
 638 0 l 1
 495 0 l 1
 210 490 l 1
 210 0 l 1
 66 0 l 1
 66 704 l 1
EndSplineSet
EndChar
StartChar: O
Encoding: 79 79 49
Width: 748
Flags: W
HStem: -22 126<378 392> 588 128<378 392>
VStem: 39 139<346 363> 576 140<346 363>
Fore
716 346 m 0
 716 296 705 244 687 194 c 0
 668 141 644 99 612 66 c 0
 556 8 478 -22 378 -22 c 0
 278 -22 200 8 142 66 c 0
 110 99 87 141 68 194 c 0
 50 244 39 296 39 346 c 0
 39 399 50 452 68 500 c 0
 87 550 110 594 142 627 c 0
 200 687 278 716 378 716 c 0
 406 716 434 712 462 706 c 0
 492 700 519 690 544 676 c 0
 570 664 591 648 612 627 c 0
 644 594 668 550 687 500 c 0
 705 452 716 399 716 346 c 0
378 104 m 0
 429 104 471 118 507 152 c 0
 530 171 548 198 560 234 c 0
 572 270 576 308 576 346 c 0
 576 386 572 422 560 458 c 0
 548 494 530 520 507 540 c 0
 471 573 429 588 378 588 c 0
 326 588 284 573 248 540 c 0
 225 520 208 494 196 459 c 0
 184 423 178 386 178 346 c 0
 178 308 184 270 196 236 c 0
 208 200 225 171 248 152 c 0
 284 118 326 104 378 104 c 0
EndSplineSet
EndChar
StartChar: P
Encoding: 80 80 50
Width: 642
Flags: W
HStem: 0 21G<74 219> 250 120<219 392> 584 120<74 391>
VStem: 74 145<0 250 0 584> 470 140<479 497>
Fore
74 0 m 1
 74 704 l 1
 387 704 l 2
 429 704 470 694 506 682 c 0
 543 669 572 639 591 590 c 0
 603 561 610 526 610 484 c 0
 610 440 603 402 591 376 c 0
 552 292 484 250 390 250 c 2
 219 250 l 1
 219 0 l 1
 74 0 l 1
219 584 m 1
 219 370 l 1
 380 370 l 2
 416 370 441 392 459 430 c 0
 459 434 460 442 465 456 c 0
 468 468 470 480 470 492 c 0
 470 506 468 518 465 530 c 0
 453 564 422 584 374 584 c 2
 219 584 l 1
EndSplineSet
EndChar
StartChar: Q
Encoding: 81 81 51
Width: 748
Flags: W
HStem: -22 126<380 395> 588 128<380 395>
VStem: 42 138<346 365> 579 139<346 365>
Fore
642 99 m 1
 718 26 l 1
 644 -52 l 1
 562 26 l 1
 508 -8 447 -22 380 -22 c 0
 282 -22 204 8 146 66 c 0
 114 99 90 141 70 192 c 0
 52 240 42 292 42 346 c 0
 42 400 52 453 70 501 c 0
 90 550 114 594 146 627 c 0
 204 687 282 716 380 716 c 0
 428 716 471 708 512 693 c 0
 552 678 586 656 614 627 c 0
 648 591 674 549 692 500 c 0
 710 452 718 399 718 346 c 0
 718 300 712 256 699 212 c 0
 686 170 666 130 642 99 c 1
460 122 m 1
 388 190 l 1
 462 270 l 1
 543 194 l 1
 564 232 579 284 579 346 c 0
 579 387 573 423 561 459 c 0
 549 494 531 520 508 540 c 0
 474 573 432 588 380 588 c 0
 328 588 286 573 250 540 c 0
 230 520 212 494 200 458 c 0
 188 422 180 386 180 346 c 0
 180 308 188 272 200 236 c 0
 212 200 230 171 250 152 c 0
 286 118 328 104 380 104 c 0
 410 104 438 110 460 122 c 1
EndSplineSet
EndChar
StartChar: R
Encoding: 82 82 52
Width: 694
Flags: W
HStem: 0 21G<76 222 496 652> 278 121<222 397> 584 120<76 435>
VStem: 76 146<0 278 0 584> 478 144<165 207> 478 148<63 97> 506 138<495 513>
Fore
76 0 m 1
 76 704 l 1
 468 704 l 2
 490 704 512 699 536 690 c 0
 558 681 578 668 596 652 c 0
 612 636 624 615 628 591 c 0
 630 584 634 573 636 564 c 0
 638 556 639 548 640 536 c 0
 642 525 644 518 644 508 c 0
 644 486 640 466 636 448 c 0
 627 420 616 400 602 386 c 0
 588 369 568 354 540 339 c 1
 546 336 552 330 562 326 c 0
 572 321 579 315 588 309 c 0
 596 302 602 292 608 282 c 0
 614 270 616 256 618 240 c 0
 621 232 621 207 622 165 c 0
 624 123 626 96 626 84 c 0
 626 68 627 56 632 48 c 0
 638 39 644 32 652 26 c 1
 652 0 l 1
 496 0 l 1
 484 24 478 46 478 66 c 2
 478 207 l 1
 477 222 472 236 466 248 c 0
 458 258 447 266 435 272 c 0
 423 276 408 278 392 278 c 2
 222 278 l 1
 222 0 l 1
 76 0 l 1
222 584 m 1
 222 399 l 1
 418 399 l 2
 440 399 459 406 478 426 c 0
 496 444 506 470 506 504 c 0
 506 556 477 584 417 584 c 2
 222 584 l 1
EndSplineSet
EndChar
StartChar: S
Encoding: 83 83 53
Width: 642
Flags: W
HStem: -24 118<302 334> 600 114<285 326>
VStem: 46 134<503 520> 452 136<488 501.395> 471 141<190 212>
Fore
588 488 m 1
 452 488 l 1
 452 507 446 525 435 543 c 0
 426 560 410 573 388 585 c 0
 366 596 339 600 308 600 c 0
 226 600 184 573 180 519 c 0
 180 496 183 482 188 472 c 0
 195 465 207 456 224 448 c 1
 230 444 240 440 262 434 c 0
 285 428 310 423 342 417 c 0
 374 412 392 406 400 405 c 0
 480 392 536 368 566 336 c 0
 597 303 612 262 612 212 c 0
 612 177 603 141 588 106 c 0
 573 74 550 46 522 27 c 0
 474 -4 402 -22 302 -24 c 0
 279 -24 250 -18 216 -10 c 0
 182 -2 153 10 129 27 c 0
 99 50 75 76 60 108 c 0
 44 141 34 174 30 208 c 1
 171 208 l 1
 171 183 182 158 201 135 c 0
 230 108 273 94 334 94 c 0
 356 94 376 99 399 105 c 0
 420 110 435 118 446 128 c 0
 462 142 471 162 471 190 c 0
 471 212 465 231 448 246 c 0
 440 258 423 266 405 273 c 0
 386 279 357 286 324 292 c 0
 291 298 262 303 238 309 c 0
 213 314 192 318 172 326 c 0
 147 334 126 346 106 362 c 0
 88 376 74 399 63 423 c 0
 51 452 46 483 46 520 c 1
 52 579 78 627 120 663 c 0
 162 696 226 714 310 714 c 0
 351 714 393 710 438 699 c 0
 480 688 519 663 548 626 c 0
 576 588 588 543 588 488 c 1
EndSplineSet
EndChar
StartChar: T
Encoding: 84 84 54
Width: 589
Flags: W
HStem: 0 21G<226 370> 584 120<14 226 14 576>
VStem: 226 144<0 584>
Fore
14 704 m 1
 576 704 l 1
 576 584 l 1
 370 584 l 1
 370 0 l 1
 226 0 l 1
 226 584 l 1
 14 584 l 1
 14 704 l 1
EndSplineSet
EndChar
StartChar: U
Encoding: 85 85 55
Width: 694
Flags: W
HStem: -22 126<329 363>
VStem: 74 145<201 704> 486 144<201 704>
Fore
486 704 m 1
 630 704 l 1
 630 219 l 2
 630 120 588 48 498 8 c 0
 453 -14 404 -22 354 -22 c 0
 304 -22 261 -14 219 2 c 1
 122 54 74 128 74 219 c 2
 74 704 l 1
 219 704 l 1
 219 218 l 2
 219 184 230 159 248 138 c 0
 266 116 300 104 351 104 c 0
 402 104 438 116 458 138 c 0
 477 159 486 186 486 218 c 2
 486 704 l 1
EndSplineSet
EndChar
StartChar: V
Encoding: 86 86 56
Width: 642
Flags: W
HStem: 0 21G<261 386>
Fore
478 704 m 1
 624 704 l 1
 386 0 l 1
 261 0 l 1
 24 704 l 1
 168 704 l 1
 324 172 l 1
 478 704 l 1
EndSplineSet
EndChar
StartChar: W
Encoding: 87 87 57
Width: 909
Flags: W
HStem: 0 21G<208 339 572 702>
DStem: 380 704 454 536 274 177 339 0
Fore
12 704 m 1
 166 704 l 1
 274 177 l 1
 380 704 l 1
 532 704 l 1
 638 170 l 1
 746 704 l 1
 898 704 l 1
 702 0 l 1
 572 0 l 1
 454 536 l 1
 339 0 l 1
 208 0 l 1
 12 704 l 1
EndSplineSet
EndChar
StartChar: X
Encoding: 88 88 58
Width: 642
Flags: W
HStem: 0 21G<22 192 459 628>
Fore
32 704 m 1
 201 704 l 1
 326 477 l 1
 454 704 l 1
 624 704 l 1
 406 360 l 1
 628 0 l 1
 459 0 l 1
 326 238 l 1
 192 0 l 1
 22 0 l 1
 244 354 l 1
 32 704 l 1
EndSplineSet
EndChar
StartChar: Y
Encoding: 89 89 59
Width: 642
Flags: W
HStem: 0 21G<258 402>
VStem: 258 144<0 261>
Fore
465 704 m 1
 627 704 l 1
 402 261 l 1
 402 0 l 1
 258 0 l 1
 258 261 l 1
 26 704 l 1
 186 704 l 1
 330 400 l 1
 465 704 l 1
EndSplineSet
EndChar
StartChar: Z
Encoding: 90 90 60
Width: 589
Flags: W
HStem: 0 120<198 558> 582 122<28 388>
DStem: 388 582 558 584 28 120 198 120
Fore
28 704 m 1
 558 704 l 1
 558 584 l 1
 198 120 l 1
 558 120 l 1
 558 0 l 1
 28 0 l 1
 28 120 l 1
 388 582 l 1
 28 584 l 1
 28 704 l 1
EndSplineSet
EndChar
StartChar: bracketleft
Encoding: 91 91 61
Width: 319
Flags: W
HStem: -195 101<190 297> 608 96<64 297>
VStem: 64 126<-195 608>
Fore
297 608 m 1
 190 608 l 1
 190 -94 l 1
 297 -94 l 1
 297 -195 l 1
 64 -195 l 1
 64 704 l 1
 297 704 l 1
 297 608 l 1
EndSplineSet
EndChar
StartChar: backslash
Encoding: 92 92 62
Width: 267
Flags: W
HStem: -21 21G<207 278>
DStem: -12 682 62 682 207 -21 278 -21
Fore
-12 682 m 1
 62 682 l 1
 278 -21 l 1
 207 -21 l 1
 -12 682 l 1
EndSplineSet
EndChar
StartChar: bracketright
Encoding: 93 93 63
Width: 319
Flags: W
HStem: -195 101<16 250> 608 96<16 123>
VStem: 123 127<-94 704>
Fore
16 608 m 1
 16 704 l 1
 250 704 l 1
 250 -195 l 1
 16 -195 l 1
 16 -94 l 1
 123 -94 l 1
 123 608 l 1
 16 608 l 1
EndSplineSet
EndChar
StartChar: asciicircum
Encoding: 94 94 64
Width: 562
Flags: W
DStem: 220 670 282 549 60 261 168 261 282 549 339 670 394 261 504 261
Fore
60 261 m 1
 220 670 l 1
 339 670 l 1
 504 261 l 1
 394 261 l 1
 282 549 l 1
 168 261 l 1
 60 261 l 1
EndSplineSet
EndChar
StartChar: underscore
Encoding: 95 95 65
Width: 535
Flags: W
HStem: -194 68<-22 558>
Fore
558 -126 m 1
 558 -194 l 1
 -22 -194 l 1
 -22 -126 l 1
 558 -126 l 1
EndSplineSet
EndChar
StartChar: grave
Encoding: 96 96 66
Width: 391
VWidth: 2048
Flags: W
HStem: 568 134<42 344>
Fore
344 568 m 5
 226 568 l 1
 42 702 l 1
 234 702 l 1
 344 568 l 5
EndSplineSet
EndChar
StartChar: a
Encoding: 97 97 67
Width: 535
Flags: W
HStem: -22 112<160 252> 0 21G<363 506> 434 97<258 282.036>
VStem: 26 133<140 155> 348 126<196 366 366 389>
Fore
506 0 m 1
 363 0 l 1
 352 14 348 30 348 52 c 1
 328 34 308 16 278 2 c 0
 249 -14 210 -22 160 -22 c 1
 70 -12 24 42 26 140 c 0
 26 182 40 219 63 248 c 0
 84 276 123 296 178 303 c 1
 224 304 268 314 314 327 c 1
 336 338 348 357 348 387 c 0
 348 402 340 414 326 422 c 0
 310 430 288 434 258 434 c 0
 224 432 200 423 188 408 c 0
 177 393 171 374 170 350 c 1
 42 350 l 1
 44 470 116 531 258 531 c 0
 310 531 351 524 381 512 c 0
 444 488 474 440 474 366 c 2
 474 80 l 2
 474 57 484 38 506 18 c 1
 506 0 l 1
348 218 m 2
 348 246 l 1
 330 237 308 231 276 225 c 0
 246 222 226 220 222 219 c 0
 204 216 190 208 178 196 c 0
 166 184 159 170 159 153 c 0
 159 148 160 142 162 134 c 0
 166 126 171 117 177 110 c 0
 182 104 192 99 204 94 c 0
 216 92 231 90 252 90 c 1
 290 94 315 110 327 132 c 0
 340 154 348 182 348 218 c 2
EndSplineSet
EndChar
StartChar: b
Encoding: 98 98 68
Width: 589
Flags: W
HStem: -22 115<304 326> 0 21G<57 192> 414 117<304 340>
VStem: 57 135<0 52 0 267 0 704> 418 137<249 267>
Fore
57 0 m 1
 57 704 l 1
 192 704 l 1
 192 452 l 1
 218 504 268 531 340 531 c 0
 428 530 488 490 520 414 c 0
 544 357 555 308 555 261 c 0
 555 212 540 158 516 99 c 0
 501 69 486 46 468 28 c 1
 452 10 430 -2 406 -10 c 0
 382 -18 356 -22 326 -22 c 0
 272 -21 226 4 192 52 c 1
 192 0 l 1
 57 0 l 1
304 414 m 0
 266 414 236 393 216 354 c 0
 198 322 192 288 192 252 c 0
 192 218 198 183 216 152 c 0
 236 112 266 93 304 93 c 0
 346 93 376 112 394 152 c 0
 410 183 418 218 418 252 c 0
 418 288 410 322 394 354 c 0
 386 376 370 392 356 400 c 0
 339 408 322 414 304 414 c 0
EndSplineSet
EndChar
StartChar: c
Encoding: 99 99 69
Width: 535
Flags: W
HStem: -22 112<276 295.157> 414 117<274 289>
VStem: 32 139<233 267>
Fore
504 327 m 1
 375 327 l 1
 366 363 354 387 339 396 c 0
 324 406 303 414 274 414 c 0
 230 416 198 388 182 338 c 0
 180 332 180 327 178 321 c 0
 177 314 177 303 174 290 c 0
 172 276 171 262 171 249 c 0
 171 225 172 204 178 184 c 0
 188 147 200 122 216 110 c 0
 231 99 250 92 276 90 c 0
 300 90 321 94 338 106 c 0
 352 118 366 144 375 183 c 1
 504 183 l 1
 504 153 494 122 474 93 c 0
 456 64 438 40 420 26 c 0
 400 9 380 -3 360 -10 c 0
 338 -16 308 -22 268 -22 c 0
 218 -24 174 -12 142 10 c 0
 108 32 84 60 68 92 c 0
 51 123 39 153 38 182 c 0
 34 200 32 224 32 252 c 0
 32 308 40 351 56 382 c 0
 75 426 94 458 117 480 c 0
 140 501 160 516 184 520 c 0
 207 525 237 531 274 531 c 0
 338 532 382 519 412 501 c 0
 440 484 460 459 478 422 c 0
 495 382 504 352 504 327 c 1
EndSplineSet
EndChar
StartChar: d
Encoding: 100 100 70
Width: 589
Flags: W
HStem: -22 115<256 278> -3 21G<390 525> 416 115<240 278>
VStem: 28 137<233 267> 390 135<-3 704>
Fore
525 704 m 1
 525 -3 l 1
 390 -3 l 1
 390 52 l 1
 374 27 352 10 328 -2 c 0
 303 -14 279 -22 256 -22 c 0
 226 -24 200 -18 177 -10 c 0
 153 -2 132 10 114 28 c 0
 96 46 81 69 68 99 c 0
 44 152 28 198 28 244 c 0
 27 304 39 362 62 412 c 0
 94 488 154 530 240 531 c 0
 316 531 368 504 390 452 c 1
 390 704 l 1
 525 704 l 1
278 416 m 0
 238 416 208 394 186 356 c 1
 171 322 165 288 165 255 c 0
 165 222 171 186 186 152 c 1
 208 112 238 93 278 93 c 0
 316 93 346 112 368 152 c 1
 382 184 390 219 390 255 c 0
 390 290 386 324 368 356 c 0
 348 394 316 416 278 416 c 0
EndSplineSet
EndChar
StartChar: e
Encoding: 101 101 71
Width: 535
Flags: W
HStem: -22 110<261 288> 219 91<158 506> 418 113<262 288>
VStem: 22 136<205 219>
Fore
506 219 m 1
 158 219 l 1
 158 182 162 154 174 135 c 0
 188 117 204 105 220 99 c 0
 238 92 261 88 288 88 c 1
 309 93 326 100 340 110 c 0
 354 122 363 134 366 147 c 1
 500 147 l 1
 492 116 474 84 448 60 c 0
 423 34 393 14 360 0 c 0
 326 -15 292 -22 261 -22 c 0
 216 -22 171 -9 126 16 c 1
 104 32 82 51 68 74 c 0
 51 94 39 118 32 142 c 0
 27 166 24 186 22 206 c 0
 22 252 24 290 27 316 c 0
 38 380 56 426 84 458 c 0
 112 490 141 510 171 519 c 0
 200 526 231 531 262 531 c 0
 310 531 351 522 386 501 c 0
 417 483 442 458 460 429 c 0
 474 406 486 382 492 360 c 0
 498 334 501 312 504 291 c 0
 506 272 506 248 506 219 c 1
158 310 m 1
 366 310 l 1
 366 338 360 362 346 382 c 0
 332 405 308 418 272 418 c 0
 232 420 206 408 186 387 c 0
 168 364 158 339 158 310 c 1
EndSplineSet
EndChar
StartChar: f
Encoding: 102 102 72
Width: 319
Flags: W
HStem: 0 21G<87 222> 422 90<14 87 222 302> 602 102<213 298>
VStem: 87 135<0 422 512 577>
Fore
14 422 m 1
 14 512 l 1
 87 512 l 1
 87 573 l 2
 87 614 96 646 118 669 c 0
 141 692 171 704 213 704 c 2
 298 704 l 1
 298 602 l 1
 250 602 l 2
 232 602 222 590 222 566 c 2
 222 512 l 1
 302 512 l 1
 302 422 l 1
 222 422 l 1
 222 0 l 1
 87 0 l 1
 87 422 l 1
 14 422 l 1
EndSplineSet
EndChar
StartChar: g
Encoding: 103 103 73
Width: 589
Flags: W
HStem: -212 94<230 278> -22 109<255 276> 408 123<256 278>
VStem: 32 122<235 253> 394 128<-24 54 235 522>
Fore
394 522 m 1
 522 522 l 1
 522 -14 l 2
 522 -46 513 -76 498 -105 c 0
 483 -132 465 -154 440 -171 c 0
 399 -198 328 -213 230 -212 c 0
 177 -210 132 -192 96 -160 c 0
 62 -132 42 -99 42 -62 c 1
 183 -62 l 1
 183 -90 210 -110 262 -118 c 1
 300 -118 332 -108 357 -88 c 0
 382 -68 394 -44 394 -18 c 2
 394 54 l 1
 380 38 366 24 354 14 c 0
 342 2 327 -8 312 -12 c 0
 297 -18 276 -22 255 -22 c 0
 219 -22 192 -18 171 -10 c 0
 152 -2 129 14 105 36 c 0
 90 51 76 70 66 93 c 0
 54 116 46 140 40 165 c 0
 36 190 32 216 32 244 c 0
 32 288 39 330 52 369 c 0
 66 410 84 442 110 468 c 0
 148 510 198 531 256 531 c 0
 274 531 291 530 308 524 c 0
 318 519 330 512 340 506 c 0
 350 496 357 490 364 482 c 0
 374 472 382 459 394 444 c 1
 394 522 l 1
276 408 m 0
 236 408 204 390 180 351 c 1
 162 315 154 279 154 248 c 0
 154 216 160 182 180 146 c 0
 200 106 234 87 276 87 c 0
 318 87 352 106 374 146 c 0
 390 178 396 212 396 248 c 0
 396 285 388 318 374 351 c 1
 350 390 316 408 276 408 c 0
EndSplineSet
EndChar
StartChar: h
Encoding: 104 104 74
Width: 589
Flags: W
HStem: 0 21G<64 200 387 522> 412 119<321 351>
VStem: 64 126<0 704> 64 136<0 321> 387 135<0 381>
Fore
190 704 m 1
 190 454 l 1
 224 506 278 531 351 531 c 0
 396 531 438 519 471 495 c 0
 506 471 522 434 522 381 c 2
 522 0 l 1
 387 0 l 1
 387 330 l 2
 387 352 381 369 375 386 c 0
 366 399 350 406 321 412 c 1
 286 412 258 404 236 387 c 0
 212 368 200 340 200 304 c 2
 200 0 l 1
 64 0 l 1
 64 704 l 1
 190 704 l 1
EndSplineSet
EndChar
StartChar: i
Encoding: 105 105 75
Width: 267
Flags: W
HStem: 0 21G<64 200> 584 120<64 200>
VStem: 64 136<0 522 584 704>
Fore
64 584 m 1
 64 704 l 1
 200 704 l 1
 200 584 l 1
 64 584 l 1
64 0 m 1
 64 522 l 1
 200 522 l 1
 200 0 l 1
 64 0 l 1
EndSplineSet
EndChar
StartChar: j
Encoding: 106 106 76
Width: 267
Flags: W
HStem: -212 112<3 31.4366> 584 120<68 201>
VStem: 68 133<-69 522 584 704>
Fore
68 584 m 1
 68 704 l 1
 201 704 l 1
 201 584 l 1
 68 584 l 1
68 -63 m 2
 68 522 l 1
 201 522 l 1
 201 -96 l 2
 201 -114 198 -129 192 -144 c 0
 184 -159 177 -172 165 -183 c 0
 153 -195 140 -201 123 -204 c 0
 92 -208 52 -212 3 -212 c 1
 3 -100 l 1
 27 -100 44 -99 54 -93 c 0
 63 -88 68 -78 68 -63 c 2
EndSplineSet
EndChar
StartChar: k
Encoding: 107 107 77
Width: 535
Flags: W
HStem: 0 21G<57 192 369 530>
VStem: 57 135<0 162 0 704>
Fore
57 704 m 1
 192 704 l 1
 192 318 l 1
 363 522 l 1
 518 522 l 1
 340 324 l 1
 530 0 l 1
 369 0 l 1
 248 224 l 1
 192 162 l 1
 192 0 l 1
 57 0 l 1
 57 704 l 1
EndSplineSet
EndChar
StartChar: l
Encoding: 108 108 78
Width: 267
Flags: W
HStem: 0 21G<64 200>
VStem: 64 136<0 704>
Fore
64 704 m 1
 200 704 l 1
 200 0 l 1
 64 0 l 1
 64 704 l 1
EndSplineSet
EndChar
StartChar: m
Encoding: 109 109 79
Width: 856
Flags: W
HStem: 0 21G<57 192 360 494 660 795> 416 118<591 622>
VStem: 57 135<0 337 0 522> 360 134<0 323> 660 135<0 369>
Fore
192 0 m 1
 57 0 l 1
 57 522 l 1
 192 522 l 1
 192 444 l 1
 213 477 237 498 260 510 c 0
 282 524 314 531 354 531 c 1
 387 526 408 520 423 510 c 0
 438 500 456 482 478 454 c 1
 495 480 516 500 537 513 c 0
 560 526 586 534 622 534 c 0
 630 534 642 532 662 531 c 0
 752 519 795 462 795 363 c 2
 795 0 l 1
 660 0 l 1
 660 360 l 2
 660 392 636 410 591 416 c 1
 560 416 536 405 519 386 c 0
 501 363 494 342 494 321 c 2
 494 0 l 1
 360 0 l 1
 360 360 l 1
 351 394 327 414 285 416 c 0
 260 416 237 406 219 390 c 0
 200 375 192 351 192 321 c 2
 192 0 l 1
EndSplineSet
EndChar
StartChar: n
Encoding: 110 110 80
Width: 589
Flags: W
HStem: 0 21G<62 195 392 526> 422 109<292 326>
VStem: 62 133<0 336 0 522> 392 134<0 351>
Fore
62 0 m 1
 62 522 l 1
 195 522 l 1
 195 444 l 1
 208 471 226 494 250 508 c 0
 274 524 300 531 326 531 c 0
 459 531 526 471 526 351 c 2
 526 0 l 1
 392 0 l 1
 392 321 l 2
 392 352 387 376 375 394 c 0
 363 414 336 422 292 422 c 1
 258 417 234 406 219 390 c 0
 206 375 195 356 195 334 c 2
 195 0 l 1
 62 0 l 1
EndSplineSet
EndChar
StartChar: o
Encoding: 111 111 81
Width: 589
Flags: W
HStem: -24 117<275.625 307> 416 115<275.283 307>
VStem: 34 136<255 265> 414 135<255 265>
Fore
291 -24 m 0
 219 -24 158 -2 110 40 c 0
 84 64 68 94 54 134 c 0
 42 171 34 212 34 255 c 0
 34 297 40 338 54 376 c 0
 66 416 84 446 110 468 c 0
 156 510 218 531 291 531 c 0
 366 531 426 510 471 468 c 0
 496 444 518 414 531 376 c 0
 543 339 549 298 549 255 c 0
 549 212 543 171 531 134 c 0
 518 94 496 64 471 40 c 0
 426 -2 364 -24 291 -24 c 0
291 416 m 0
 249 416 218 396 195 357 c 0
 178 326 170 291 170 255 c 0
 170 219 178 184 195 153 c 0
 218 114 249 93 291 93 c 0
 332 93 364 114 388 153 c 1
 405 188 414 222 414 255 c 0
 414 290 406 324 388 357 c 0
 366 399 332 416 291 416 c 0
EndSplineSet
EndChar
StartChar: p
Encoding: 112 112 82
Width: 589
Flags: W
HStem: -22 112<304 332> 412 119<303 328>
VStem: 56 134<-212 54 -212 269 -212 522> 417 135<235 269>
Fore
56 522 m 1
 190 522 l 1
 190 444 l 1
 198 454 206 465 218 477 c 0
 226 488 236 496 246 506 c 0
 255 512 266 519 279 524 c 0
 292 530 310 531 328 531 c 0
 388 531 438 510 477 468 c 0
 500 442 519 410 532 370 c 0
 546 330 552 288 552 244 c 0
 552 201 546 162 534 128 c 0
 522 90 506 60 482 36 c 0
 459 14 438 -2 416 -10 c 0
 394 -18 368 -22 332 -22 c 0
 309 -22 288 -18 273 -12 c 0
 258 -8 244 2 232 12 c 0
 220 21 207 36 190 54 c 1
 190 -212 l 1
 56 -212 l 1
 56 522 l 1
304 412 m 0
 266 412 234 392 212 352 c 1
 196 315 190 282 190 250 c 0
 190 220 196 186 212 148 c 1
 234 110 266 90 304 90 c 0
 344 90 374 110 394 148 c 1
 410 186 417 220 417 250 c 0
 417 282 410 315 394 352 c 1
 374 392 344 412 304 412 c 0
EndSplineSet
EndChar
StartChar: q
Encoding: 113 113 83
Width: 589
Flags: W
HStem: -22 103<249 276> 408 123<250 276>
VStem: 27 135<235 253> 390 134<-212 520>
Fore
524 520 m 1
 524 -212 l 1
 390 -212 l 1
 390 54 l 1
 375 38 362 24 350 14 c 0
 338 2 322 -8 308 -12 c 0
 291 -18 272 -22 249 -22 c 0
 213 -22 184 -18 165 -10 c 0
 144 -2 122 12 99 36 c 0
 75 60 57 90 46 128 c 0
 34 165 27 204 27 244 c 0
 27 288 34 330 48 369 c 0
 62 408 80 442 104 468 c 0
 122 486 142 501 165 513 c 0
 186 525 216 531 250 531 c 0
 288 530 316 522 338 507 c 0
 357 494 375 472 390 444 c 1
 390 520 l 1
 524 520 l 1
276 408 m 0
 237 408 207 388 186 350 c 0
 171 316 162 284 162 246 c 0
 162 210 170 177 186 141 c 0
 206 102 237 81 276 81 c 0
 314 81 346 102 366 141 c 0
 382 172 390 208 390 246 c 0
 390 285 382 318 366 350 c 0
 346 388 315 408 276 408 c 0
EndSplineSet
EndChar
StartChar: r
Encoding: 114 114 84
Width: 373
Flags: W
HStem: 0 21G<62 195> 396 135<309 356>
VStem: 62 133<0 296 0 522>
Fore
62 0 m 1
 62 522 l 1
 195 522 l 1
 195 422 l 1
 201 440 208 453 218 465 c 0
 225 477 238 488 261 504 c 0
 286 522 316 531 356 531 c 1
 356 393 l 1
 338 394 322 396 309 396 c 0
 279 396 255 390 236 375 c 0
 216 360 201 334 195 296 c 1
 195 0 l 1
 62 0 l 1
EndSplineSet
EndChar
StartChar: s
Encoding: 115 115 85
Width: 535
Flags: W
HStem: -22 102<258 278> 429 102<247 268>
VStem: 48 130<354 376> 357 131<354 372.656> 362 139<134 162>
Fore
27 154 m 1
 160 154 l 1
 166 135 174 122 186 112 c 0
 196 102 208 94 222 90 c 0
 237 84 256 80 278 80 c 0
 334 78 362 99 362 134 c 0
 362 146 357 154 352 162 c 0
 348 171 339 177 327 178 c 2
 159 226 l 2
 117 238 87 258 70 279 c 0
 56 302 48 326 48 354 c 0
 48 410 68 456 110 492 c 0
 142 518 190 531 249 531 c 0
 316 532 370 519 410 494 c 0
 442 472 465 452 474 429 c 0
 483 406 488 381 488 354 c 1
 357 354 l 1
 357 374 354 388 350 396 c 0
 342 405 328 414 308 420 c 0
 290 426 273 429 258 429 c 0
 236 429 216 423 198 414 c 0
 184 406 178 394 178 376 c 0
 178 357 188 348 208 342 c 2
 404 290 l 2
 420 285 435 276 452 264 c 0
 466 252 478 238 488 220 c 0
 496 201 501 183 501 162 c 0
 501 130 494 99 477 66 c 0
 458 34 429 10 388 -4 c 0
 374 -10 352 -14 327 -16 c 0
 302 -21 279 -22 258 -22 c 0
 208 -21 171 -14 142 -2 c 0
 69 30 30 82 27 154 c 1
EndSplineSet
EndChar
StartChar: t
Encoding: 116 116 86
Width: 319
Flags: W
HStem: -22 104<224 239> 422 90<14 80 216 290>
VStem: 80 136<81 422 512 654>
Fore
14 512 m 1
 80 512 l 1
 80 654 l 1
 216 654 l 1
 216 512 l 1
 290 512 l 1
 290 422 l 1
 216 422 l 1
 216 129 l 2
 216 99 222 82 237 82 c 2
 288 81 l 1
 288 -10 l 1
 268 -16 246 -22 224 -22 c 0
 198 -24 177 -21 160 -15 c 0
 116 -2 88 30 80 81 c 1
 80 422 l 1
 14 422 l 1
 14 512 l 1
EndSplineSet
EndChar
StartChar: u
Encoding: 117 117 87
Width: 589
Flags: W
HStem: 0 21G<387 522>
VStem: 56 134<159 522> 387 135<0 522>
Fore
522 522 m 1
 522 0 l 1
 387 0 l 1
 387 64 l 1
 368 36 350 14 330 2 c 0
 312 -10 286 -16 258 -22 c 1
 220 -21 188 -16 162 -10 c 0
 135 -3 112 14 92 40 c 0
 69 68 56 106 56 159 c 2
 56 522 l 1
 190 522 l 1
 190 198 l 2
 190 166 195 142 207 126 c 0
 219 106 246 99 288 99 c 1
 324 104 350 114 363 129 c 0
 376 144 387 162 387 184 c 2
 387 522 l 1
 522 522 l 1
EndSplineSet
EndChar
StartChar: v
Encoding: 118 118 88
Width: 535
Flags: W
HStem: 0 21G<194 336>
Fore
14 522 m 1
 156 522 l 1
 264 140 l 1
 375 522 l 1
 518 522 l 1
 336 0 l 1
 194 0 l 1
 14 522 l 1
EndSplineSet
EndChar
StartChar: w
Encoding: 119 119 89
Width: 748
Flags: W
HStem: 0 21G<152 290 454 594>
DStem: 302 522 374 368 225 156 290 0 374 368 442 522 454 0 518 156
Fore
4 522 m 1
 144 522 l 1
 225 156 l 1
 302 522 l 1
 442 522 l 1
 518 156 l 1
 598 522 l 1
 740 522 l 1
 594 0 l 1
 454 0 l 1
 374 368 l 1
 290 0 l 1
 152 0 l 1
 4 522 l 1
EndSplineSet
EndChar
StartChar: x
Encoding: 120 120 90
Width: 535
Flags: W
HStem: 0 21G<15 177 354 516>
DStem: 186 261 268 154 15 0 177 0
Fore
21 522 m 1
 183 522 l 1
 268 364 l 1
 354 522 l 1
 513 522 l 1
 344 261 l 1
 516 0 l 1
 354 0 l 1
 268 154 l 1
 177 0 l 1
 15 0 l 1
 186 261 l 1
 21 522 l 1
EndSplineSet
EndChar
StartChar: y
Encoding: 121 121 91
Width: 535
Flags: W
HStem: -212 110<81 109.208>
Fore
9 522 m 1
 158 522 l 1
 272 142 l 1
 380 522 l 1
 519 522 l 1
 297 -108 l 1
 291 -130 278 -153 258 -174 c 0
 244 -190 219 -198 182 -204 c 0
 146 -208 112 -212 81 -212 c 1
 81 -102 l 1
 123 -102 152 -96 165 -88 c 0
 186 -76 196 -56 196 -30 c 0
 196 -18 195 -9 192 0 c 2
 9 522 l 1
EndSplineSet
EndChar
StartChar: z
Encoding: 122 122 92
Width: 480
Flags: W
HStem: 0 110<188 452> 412 110<39 278>
DStem: 278 412 444 412 21 110 188 110
Fore
39 522 m 1
 444 522 l 1
 444 412 l 1
 188 110 l 1
 452 110 l 1
 452 0 l 1
 21 0 l 1
 21 110 l 1
 278 412 l 1
 39 412 l 1
 39 522 l 1
EndSplineSet
EndChar
StartChar: braceleft
Encoding: 123 123 93
Width: 373
Flags: W
HStem: -195 95<259 304> 213 90<36 55.8684> 609 95<224 304>
VStem: 116 109<-63 160 340.095 574>
Fore
36 213 m 1
 36 303 l 1
 88 303 116 318 116 350 c 2
 116 572 l 2
 116 612 128 644 153 668 c 0
 178 692 201 704 224 704 c 2
 304 704 l 1
 304 609 l 1
 270 609 l 2
 250 609 237 604 232 597 c 0
 226 588 225 574 225 558 c 2
 225 352 l 2
 225 300 194 268 134 258 c 1
 159 255 180 246 198 234 c 0
 216 220 225 195 225 156 c 2
 225 -50 l 2
 225 -66 230 -78 234 -87 c 0
 238 -94 250 -100 270 -100 c 2
 304 -100 l 1
 304 -195 l 1
 224 -195 l 2
 201 -195 178 -183 153 -159 c 0
 128 -135 116 -104 116 -63 c 2
 116 158 l 2
 116 195 88 213 36 213 c 1
EndSplineSet
EndChar
StartChar: bar
Encoding: 124 124 94
Width: 268
Flags: W
VStem: 96 76<-195 704>
Fore
172 704 m 1
 172 -195 l 1
 96 -195 l 1
 96 704 l 1
 172 704 l 1
EndSplineSet
EndChar
StartChar: braceright
Encoding: 125 125 95
Width: 373
Flags: W
VStem: 148 113<-68 160 348 574>
Fore
339 303 m 1
 339 213 l 1
 315 213 297 210 284 201 c 0
 268 194 261 180 261 158 c 2
 261 -63 l 2
 261 -105 248 -138 222 -159 c 0
 196 -183 172 -195 152 -195 c 2
 69 -195 l 1
 69 -100 l 1
 105 -100 l 2
 126 -100 138 -94 142 -87 c 0
 147 -78 148 -66 148 -50 c 2
 148 156 l 2
 148 219 182 252 243 260 c 1
 218 261 195 270 177 282 c 0
 158 292 148 316 148 352 c 2
 148 558 l 2
 148 574 147 588 142 597 c 0
 138 604 126 610 105 610 c 2
 69 610 l 1
 69 704 l 1
 152 704 l 2
 166 704 182 699 198 690 c 0
 213 680 230 664 243 644 c 0
 255 624 261 600 261 572 c 2
 261 351 l 2
 261 318 286 303 339 303 c 1
EndSplineSet
EndChar
StartChar: asciitilde
Encoding: 126 126 96
Width: 562
Flags: W
Fore
126 168 m 1
 57 168 l 1
 64 218 81 255 108 279 c 0
 130 300 153 310 178 310 c 0
 196 310 216 303 234 292 c 2
 332 237 l 2
 352 225 369 219 382 219 c 0
 412 219 426 238 426 279 c 1
 500 279 l 1
 500 260 496 240 492 224 c 0
 486 207 472 188 454 170 c 0
 434 147 412 138 390 138 c 0
 370 138 348 144 321 159 c 2
 213 218 l 2
 198 225 183 231 171 231 c 0
 156 231 144 224 140 212 c 0
 134 200 129 186 126 168 c 1
EndSplineSet
EndChar
StartChar: uni0E10.descless
Encoding: 128 63232 97
Width: 535
Flags: W
HStem: 0 21G<330 438> 140 67<182 187> 297 71<182 191.723> 472 78<430 443> 518 72<233 252>
VStem: 68 70<242.566 257> 339 99<200 305>
Fore
330 0 m 1
 326 28 314 64 296 110 c 0
 278 154 268 177 266 177 c 1
 262 171 255 162 240 153 c 0
 226 144 207 140 182 140 c 0
 146 140 117 152 99 172 c 0
 78 195 68 220 68 252 c 0
 68 284 78 310 99 332 c 0
 118 354 146 366 182 368 c 0
 213 368 240 362 260 350 c 0
 278 336 291 314 302 284 c 0
 309 270 316 252 326 232 c 0
 334 212 339 201 339 200 c 2
 339 279 l 2
 339 322 334 350 324 362 c 0
 312 374 288 382 250 393 c 0
 212 404 172 414 132 420 c 0
 92 428 62 432 42 434 c 1
 42 471 l 1
 69 508 99 537 130 560 c 0
 160 579 196 590 238 590 c 0
 272 590 309 585 350 572 c 0
 388 560 416 550 430 550 c 0
 448 550 471 556 495 566 c 1
 495 566 496 556 501 537 c 0
 507 519 510 501 512 488 c 1
 480 478 453 472 430 472 c 0
 416 472 402 474 390 477 c 0
 378 480 360 486 336 495 c 0
 310 504 291 508 279 512 c 0
 268 516 255 518 240 518 c 0
 225 518 212 513 196 507 c 0
 182 500 171 494 170 488 c 1
 183 486 206 483 237 478 c 0
 268 472 291 468 308 462 c 0
 364 447 400 428 416 402 c 0
 430 376 438 336 438 284 c 2
 438 0 l 1
 330 0 l 1
182 207 m 0
 196 207 207 212 213 220 c 0
 222 230 225 238 225 252 c 0
 225 264 222 274 213 284 c 0
 207 291 196 297 182 297 c 0
 166 297 156 291 148 284 c 0
 141 274 138 264 138 252 c 0
 138 243 141 232 148 222 c 0
 158 213 168 208 182 207 c 0
EndSplineSet
EndChar
StartChar: uni0E34.left
Encoding: 129 63233 98
Width: 0
Flags: W
HStem: 729 71<-548 -499>
Fore
-448 921 m 0
 -406 921 -370 908 -342 886 c 0
 -315 868 -296 846 -282 820 c 0
 -268 795 -256 768 -250 740 c 0
 -244 708 -240 687 -237 675 c 1
 -255 680 -279 688 -315 699 c 0
 -351 706 -393 716 -440 722 c 0
 -471 728 -507 729 -549 729 c 0
 -582 729 -610 728 -636 726 c 0
 -662 724 -680 722 -692 720 c 1
 -682 778 -656 825 -612 862 c 0
 -568 902 -513 922 -448 921 c 0
-448 852 m 1
 -480 852 -507 848 -531 836 c 0
 -555 824 -570 812 -574 796 c 1
 -570 798 -560 798 -548 800 c 0
 -536 800 -522 800 -507 800 c 0
 -492 800 -472 798 -447 796 c 0
 -414 794 -387 788 -366 783 c 0
 -348 777 -334 771 -327 768 c 1
 -351 818 -392 846 -448 852 c 1
EndSplineSet
EndChar
StartChar: uni0E35.left
Encoding: 130 63234 99
Width: 0
Flags: W
HStem: 732 72<-531 -478>
VStem: -312 90<884 986>
Fore
-429 924 m 0
 -396 924 -370 915 -352 908 c 0
 -332 897 -318 888 -312 884 c 1
 -312 986 l 1
 -222 986 l 1
 -222 752 l 1
 -220 752 -213 726 -204 675 c 1
 -222 680 -252 690 -296 702 c 0
 -338 714 -380 720 -418 726 c 0
 -452 730 -488 732 -531 732 c 0
 -556 732 -576 732 -594 730 c 0
 -609 729 -626 729 -642 728 c 0
 -660 726 -669 724 -670 724 c 1
 -666 759 -652 792 -630 824 c 0
 -609 856 -582 878 -546 897 c 0
 -512 914 -472 926 -429 924 c 0
-430 856 m 1
 -459 856 -484 850 -508 838 c 0
 -534 826 -549 813 -555 798 c 1
 -549 800 -540 800 -530 801 c 0
 -518 804 -500 804 -478 804 c 0
 -466 804 -448 801 -428 800 c 0
 -394 796 -368 792 -348 786 c 0
 -328 780 -315 774 -308 771 c 1
 -316 794 -330 810 -350 825 c 0
 -368 840 -394 850 -430 856 c 1
EndSplineSet
EndChar
StartChar: uni0E36.left
Encoding: 131 63235 100
Width: 0
Flags: W
HStem: 732 72<-562 -518> 856 68<-482 -462> 928 66<-342 -328>
VStem: -308 71<895 910>
Fore
-237 910 m 1
 -237 860 -252 826 -284 812 c 1
 -278 801 -268 784 -260 760 c 0
 -249 735 -243 706 -237 675 c 1
 -256 680 -286 690 -328 702 c 0
 -370 714 -414 720 -453 726 c 0
 -484 730 -522 732 -564 732 c 0
 -590 732 -610 732 -627 730 c 0
 -642 729 -660 729 -676 728 c 0
 -693 726 -704 724 -705 724 c 1
 -700 759 -687 792 -664 824 c 0
 -642 856 -615 878 -579 897 c 0
 -546 914 -507 924 -462 924 c 0
 -458 924 -452 924 -442 922 c 0
 -434 921 -430 921 -429 918 c 1
 -428 933 -418 950 -404 968 c 0
 -388 987 -366 994 -334 994 c 0
 -308 994 -285 987 -268 970 c 0
 -252 956 -243 936 -237 910 c 1
-465 856 m 1
 -494 856 -519 850 -543 838 c 0
 -568 826 -584 816 -588 800 c 1
 -584 801 -574 801 -562 804 c 0
 -550 804 -536 804 -520 804 c 0
 -506 804 -486 801 -460 800 c 0
 -429 796 -402 792 -381 786 c 0
 -363 780 -350 774 -340 771 c 1
 -351 794 -364 810 -382 825 c 0
 -402 840 -429 850 -465 856 c 1
-336 870 m 0
 -327 870 -321 873 -315 879 c 0
 -310 885 -308 891 -308 900 c 0
 -308 908 -310 914 -315 918 c 0
 -321 926 -327 928 -336 928 c 0
 -354 928 -364 918 -364 900 c 0
 -364 879 -354 870 -336 870 c 0
EndSplineSet
EndChar
StartChar: uni0E37.left
Encoding: 132 63236 101
Width: 0
Flags: W
HStem: 732 72<-531 -478> 856 68<-447 -426>
VStem: -308 86<879 986>
Fore
-308 879 m 1
 -308 986 l 1
 -222 986 l 1
 -222 752 l 1
 -220 752 -213 726 -204 675 c 1
 -222 680 -252 690 -296 702 c 0
 -338 714 -380 720 -418 726 c 0
 -452 730 -488 732 -531 732 c 0
 -556 732 -576 732 -594 730 c 0
 -609 729 -626 729 -642 728 c 0
 -660 726 -669 724 -670 724 c 1
 -651 806 -616 860 -572 885 c 0
 -525 910 -477 924 -426 924 c 1
 -426 986 l 1
 -346 986 l 1
 -346 903 l 1
 -340 903 -328 896 -308 879 c 1
-430 856 m 1
 -459 856 -484 850 -508 838 c 0
 -534 826 -549 813 -555 798 c 1
 -549 800 -540 800 -530 801 c 0
 -518 804 -500 804 -478 804 c 0
 -466 804 -448 801 -428 800 c 0
 -394 796 -368 792 -348 786 c 0
 -328 780 -315 774 -308 771 c 1
 -316 794 -330 810 -350 825 c 0
 -368 840 -394 850 -430 856 c 1
EndSplineSet
EndChar
StartChar: ellipsis
Encoding: 133 8230 102
Width: 889
VWidth: 2048
Flags: W
HStem: -21 21G<124 183.5>
VStem: 66 178<52 60> 342 180<51 60> 622 179<51 53>
Fore
522 52 m 4
 522 12 494 -12 435 -21 c 5
 380 -21 350 3 342 51 c 5
 342 102 374 128 434 128 c 4
 459 128 482 118 498 105 c 4
 513 92 522 75 522 52 c 4
801 52 m 5
 801 12 772 -12 714 -21 c 5
 660 -21 628 3 622 51 c 5
 622 102 652 128 712 128 c 4
 738 128 759 118 778 105 c 5
 792 92 800 75 801 52 c 5
244 52 m 4
 244 3 213 -21 154 -21 c 4
 94 -21 66 3 66 52 c 4
 66 102 94 128 154 128 c 4
 213 128 244 102 244 52 c 4
EndSplineSet
EndChar
StartChar: uni0E48.low_left
Encoding: 134 63237 103
Width: 0
Flags: W
VStem: -350 100<681 939>
Fore
-350 681 m 1
 -350 939 l 1
 -250 939 l 1
 -250 681 l 1
 -350 681 l 1
EndSplineSet
EndChar
StartChar: uni0E49.low_left
Encoding: 135 63238 104
Width: 0
Flags: W
HStem: 754 70<-449 -440> 890 72<-440 -430>
VStem: -543 71<849 862> -406 78<849 862> -224 95<915 954>
Fore
-328 849 m 0
 -330 818 -336 795 -342 780 c 0
 -351 765 -356 756 -362 754 c 1
 -356 756 -350 756 -340 758 c 0
 -332 759 -324 762 -314 768 c 0
 -302 772 -291 778 -279 786 c 0
 -268 795 -260 804 -252 816 c 0
 -234 852 -224 886 -224 915 c 0
 -224 933 -224 946 -225 954 c 1
 -129 954 l 1
 -129 831 -170 747 -250 708 c 0
 -298 687 -352 675 -412 675 c 0
 -430 675 -446 675 -459 676 c 0
 -472 678 -482 680 -486 681 c 1
 -486 716 l 1
 -482 717 -472 722 -465 730 c 0
 -456 738 -448 746 -447 754 c 1
 -452 754 -460 758 -480 762 c 0
 -498 768 -512 780 -524 798 c 0
 -536 816 -543 836 -543 860 c 0
 -543 888 -532 912 -513 930 c 0
 -495 951 -470 962 -440 962 c 0
 -414 962 -393 956 -378 944 c 0
 -362 933 -350 918 -340 900 c 0
 -332 884 -328 866 -328 849 c 0
-440 824 m 0
 -429 824 -420 826 -416 834 c 0
 -410 840 -406 849 -406 858 c 0
 -406 866 -410 873 -416 879 c 0
 -420 886 -429 890 -440 890 c 0
 -448 890 -458 886 -462 879 c 0
 -470 873 -472 866 -472 858 c 0
 -472 849 -470 843 -462 834 c 0
 -458 826 -452 824 -440 824 c 0
EndSplineSet
EndChar
StartChar: uni0E4A.low_left
Encoding: 136 63239 105
Width: 0
Flags: W
HStem: 668 52<-540 -536> 766 52<-540 -530> 848 62<-538 -518>
VStem: -519 57<735 748> -381 67<786 808> -272 71<842 866>
Fore
-538 668 m 0
 -568 669 -591 681 -610 706 c 0
 -628 732 -640 762 -639 798 c 0
 -639 831 -627 856 -610 878 c 0
 -594 900 -570 910 -538 910 c 0
 -518 910 -501 908 -492 898 c 0
 -480 890 -472 885 -470 879 c 1
 -465 885 -458 890 -447 898 c 0
 -435 908 -422 910 -404 910 c 0
 -375 910 -351 902 -336 884 c 0
 -321 864 -314 840 -314 808 c 0
 -314 782 -321 756 -334 732 c 1
 -328 734 -322 740 -314 746 c 0
 -304 753 -297 760 -290 772 c 0
 -278 796 -272 820 -272 844 c 0
 -272 860 -273 874 -276 890 c 1
 -208 914 l 1
 -204 903 -201 886 -201 864 c 0
 -201 816 -213 774 -237 741 c 0
 -255 716 -278 699 -308 690 c 0
 -336 681 -370 678 -414 678 c 1
 -414 680 -414 682 -416 692 c 0
 -417 700 -417 705 -417 705 c 1
 -412 710 -404 718 -394 732 c 0
 -387 746 -381 765 -381 786 c 0
 -380 825 -393 844 -418 844 c 0
 -430 844 -440 840 -446 836 c 0
 -454 831 -459 825 -462 822 c 1
 -466 825 -472 831 -484 837 c 0
 -495 844 -507 848 -522 848 c 0
 -549 848 -562 836 -564 810 c 1
 -562 812 -558 812 -550 813 c 0
 -544 816 -537 818 -530 818 c 0
 -507 816 -490 808 -480 795 c 0
 -468 780 -462 760 -462 735 c 0
 -462 717 -470 702 -484 688 c 0
 -500 675 -518 668 -538 668 c 0
-540 766 m 0
 -556 766 -564 759 -564 744 c 0
 -564 740 -562 734 -558 729 c 0
 -552 724 -548 720 -540 720 c 0
 -534 720 -530 722 -524 728 c 0
 -520 732 -519 740 -519 744 c 0
 -519 748 -520 754 -524 759 c 0
 -530 765 -534 766 -540 766 c 0
EndSplineSet
EndChar
StartChar: uni0E4B.low_left
Encoding: 137 63240 106
Width: 0
Flags: W
HStem: 778 90<-510 -412 -318 -220> 944 20G<-412 -318>
VStem: -412 94<681 778 868 964>
Fore
-412 778 m 1
 -510 778 l 1
 -510 868 l 1
 -412 868 l 1
 -412 964 l 1
 -318 964 l 1
 -318 868 l 1
 -220 868 l 1
 -220 778 l 1
 -318 778 l 1
 -318 681 l 1
 -412 681 l 1
 -412 778 l 1
EndSplineSet
EndChar
StartChar: uni0E4C.low_left
Encoding: 138 63241 107
Width: 0
Flags: W
HStem: 681 67<-344 -337> 813 69<-344 -336> 882 75<-338 -292>
VStem: -470 92<782 804> -312 72<782 791>
Fore
-190 894 m 0
 -240 885 -290 882 -338 882 c 0
 -309 882 -286 873 -270 855 c 0
 -252 837 -240 816 -240 788 c 0
 -238 759 -249 734 -266 714 c 0
 -284 693 -308 681 -339 681 c 0
 -378 680 -410 692 -434 714 c 0
 -458 735 -470 766 -470 804 c 0
 -468 870 -441 914 -390 939 c 0
 -368 950 -336 956 -292 957 c 0
 -250 962 -222 966 -206 974 c 0
 -188 980 -180 996 -180 1026 c 1
 -94 1026 l 1
 -94 992 -102 963 -117 939 c 0
 -132 915 -158 900 -190 894 c 0
-344 813 m 0
 -354 813 -363 810 -369 806 c 1
 -375 798 -378 790 -378 782 c 0
 -378 772 -375 766 -369 759 c 0
 -363 753 -354 748 -344 748 c 0
 -334 748 -326 753 -321 759 c 0
 -315 765 -312 772 -312 782 c 0
 -312 804 -322 813 -344 813 c 0
EndSplineSet
EndChar
StartChar: uni0E48.low
Encoding: 139 63242 108
Width: 0
Flags: W
VStem: -180 99<681 939>
Fore
-180 681 m 1
 -180 939 l 1
 -81 939 l 1
 -81 681 l 1
 -180 681 l 1
EndSplineSet
EndChar
StartChar: uni0E49.low
Encoding: 140 63243 109
Width: 0
Flags: W
HStem: 754 70<-341 -332> 890 72<-341 -328>
VStem: -434 68<849 862> -298 76<849 862> -116 94<918 954>
Fore
-222 849 m 0
 -224 818 -226 794 -236 778 c 0
 -243 765 -248 756 -252 754 c 1
 -249 754 -240 756 -225 760 c 0
 -212 765 -196 770 -182 778 c 0
 -166 786 -154 800 -144 816 c 0
 -126 850 -116 885 -116 918 c 0
 -116 934 -116 946 -117 954 c 1
 -22 954 l 1
 -22 831 -63 747 -144 708 c 0
 -190 687 -244 675 -303 675 c 0
 -322 675 -338 675 -351 676 c 0
 -364 678 -374 680 -378 681 c 1
 -378 716 l 1
 -374 717 -364 722 -356 730 c 0
 -348 738 -340 746 -339 754 c 1
 -342 754 -354 758 -374 762 c 0
 -392 768 -405 780 -417 798 c 0
 -429 818 -434 837 -434 860 c 0
 -434 886 -423 910 -405 930 c 0
 -387 951 -362 962 -330 962 c 0
 -296 962 -268 950 -249 926 c 0
 -231 903 -222 878 -222 849 c 0
-332 824 m 0
 -322 824 -314 826 -308 834 c 0
 -302 843 -298 849 -298 858 c 0
 -298 866 -302 873 -308 879 c 0
 -314 886 -322 890 -332 890 c 0
 -342 890 -351 886 -356 879 c 0
 -363 873 -366 866 -366 858 c 0
 -366 849 -363 843 -356 834 c 0
 -351 826 -344 824 -332 824 c 0
EndSplineSet
EndChar
StartChar: uni0E4A.low
Encoding: 141 63244 110
Width: 0
Flags: W
HStem: 674 58<-401 -386> 782 54<-401 -388> 866 70<-400 -381 -270 -252>
VStem: -366 50<746 760> -230 76<800 824> -106 74<862 888>
Fore
-400 674 m 0
 -432 674 -459 688 -478 717 c 0
 -498 746 -510 778 -508 813 c 0
 -508 848 -496 876 -478 900 c 0
 -459 924 -432 936 -400 936 c 0
 -388 936 -376 934 -366 930 c 0
 -357 927 -350 924 -344 921 c 0
 -339 916 -336 914 -330 910 c 0
 -327 908 -326 903 -324 902 c 1
 -318 908 -310 914 -298 922 c 0
 -286 930 -272 936 -252 936 c 0
 -220 936 -196 926 -178 908 c 1
 -162 886 -154 860 -154 824 c 0
 -154 795 -162 766 -178 741 c 1
 -172 742 -166 747 -156 754 c 0
 -147 760 -138 771 -129 784 c 0
 -114 808 -106 837 -106 870 c 0
 -106 888 -110 908 -117 926 c 1
 -39 940 l 1
 -34 926 -32 908 -32 888 c 0
 -32 832 -46 786 -74 748 c 0
 -92 722 -116 704 -147 694 c 0
 -180 687 -219 681 -264 681 c 1
 -264 682 -264 687 -264 693 c 0
 -266 702 -266 706 -266 712 c 1
 -261 717 -252 728 -244 742 c 0
 -234 758 -230 777 -230 800 c 0
 -230 843 -243 864 -270 864 c 0
 -284 864 -296 861 -304 855 c 0
 -314 849 -321 844 -326 838 c 1
 -326 838 l 1
 -326 840 -327 843 -332 848 c 0
 -339 852 -346 856 -352 861 c 0
 -362 864 -370 866 -381 866 c 0
 -412 866 -428 852 -429 826 c 1
 -426 830 -420 831 -414 832 c 0
 -406 834 -399 836 -388 836 c 0
 -364 834 -348 825 -336 810 c 0
 -324 794 -316 771 -316 746 c 0
 -316 728 -326 710 -340 694 c 0
 -356 680 -376 674 -400 674 c 0
-392 782 m 0
 -408 782 -417 772 -417 758 c 0
 -417 741 -408 732 -392 732 c 0
 -375 732 -366 741 -366 758 c 0
 -366 765 -368 770 -370 774 c 0
 -376 780 -382 782 -392 782 c 0
EndSplineSet
EndChar
StartChar: uni0E4B.low
Encoding: 142 63245 111
Width: 0
Flags: W
HStem: 778 90<-368 -268 -177 -78> 944 20G<-268 -177>
VStem: -268 91<681 778 868 964>
Fore
-268 778 m 1
 -368 778 l 1
 -368 868 l 1
 -268 868 l 1
 -268 964 l 1
 -177 964 l 1
 -177 868 l 1
 -78 868 l 1
 -78 778 l 1
 -177 778 l 1
 -177 681 l 1
 -268 681 l 1
 -268 778 l 1
EndSplineSet
EndChar
StartChar: uni0E4C.low
Encoding: 143 63246 112
Width: 0
Flags: W
HStem: 682 66<-251 -242> 816 66<-249 -241>
VStem: -218 72<783 791>
Fore
-94 894 m 0
 -122 888 -148 886 -174 885 c 0
 -200 884 -224 882 -243 882 c 0
 -213 882 -192 873 -174 855 c 1
 -156 837 -146 816 -146 788 c 0
 -144 759 -154 734 -171 714 c 0
 -190 693 -213 682 -244 682 c 0
 -286 682 -318 694 -340 717 c 0
 -363 740 -376 768 -375 804 c 0
 -375 836 -366 862 -352 886 c 0
 -340 909 -321 927 -296 939 c 0
 -273 950 -240 956 -198 960 c 0
 -156 962 -128 966 -108 974 c 0
 -93 978 -84 996 -84 1026 c 1
 0 1026 l 1
 0 950 -32 904 -94 894 c 0
-249 816 m 0
 -260 816 -268 812 -274 806 c 0
 -279 798 -284 792 -284 783 c 0
 -284 774 -279 768 -274 759 c 0
 -270 753 -261 748 -249 748 c 0
 -238 748 -231 753 -225 759 c 0
 -220 766 -218 774 -218 783 c 0
 -218 792 -220 800 -225 807 c 1
 -232 812 -240 816 -249 816 c 0
EndSplineSet
EndChar
StartChar: uni0E0D.descless
Encoding: 144 63247 113
Width: 810
Flags: W
HStem: -10 62<194 214> 0 88<354 605> 144 63<195 214> 520 70<283 314>
VStem: 94 64<89 102> 94 101<100 295> 250 62<99 112> 410 98<88 436> 630 99<117 576>
Fore
729 576 m 1
 729 110 l 2
 729 78 724 54 716 39 c 0
 706 24 692 14 674 9 c 0
 654 3 626 0 590 0 c 2
 354 0 l 1
 354 88 l 1
 410 88 l 1
 410 434 l 2
 410 460 400 482 378 496 c 0
 356 512 326 519 290 520 c 0
 274 520 252 518 224 508 c 0
 195 500 172 488 160 472 c 1
 171 471 188 468 212 459 c 0
 234 453 256 442 276 428 c 1
 276 380 l 1
 258 380 240 375 222 363 c 0
 204 351 195 326 195 286 c 2
 195 206 l 1
 196 207 196 207 198 207 c 0
 204 207 l 0
 225 207 246 201 262 192 c 0
 278 182 291 168 300 152 c 0
 309 134 312 117 312 99 c 0
 312 80 309 63 300 46 c 0
 291 28 278 15 262 4 c 0
 246 -4 225 -10 204 -10 c 0
 170 -10 142 0 123 22 c 0
 105 42 94 68 94 100 c 2
 94 279 l 2
 94 312 99 338 106 356 c 0
 116 375 129 392 148 405 c 1
 141 408 128 414 108 418 c 0
 90 423 68 429 44 430 c 1
 44 462 l 1
 57 484 87 510 129 543 c 0
 172 574 234 590 314 590 c 0
 351 590 382 585 408 573 c 0
 434 561 454 548 468 531 c 0
 483 512 494 494 498 474 c 0
 506 454 508 435 508 418 c 2
 508 88 l 1
 590 88 l 2
 609 88 621 92 626 96 c 0
 628 102 630 116 630 138 c 2
 630 576 l 1
 729 576 l 1
206 52 m 0
 213 52 222 54 231 60 c 0
 237 64 243 69 246 76 c 0
 249 82 250 90 250 99 c 0
 250 112 248 123 238 132 c 0
 231 141 220 144 206 144 c 0
 190 144 180 140 171 130 c 0
 162 122 158 110 158 99 c 0
 158 87 162 76 171 68 c 0
 180 57 190 52 206 52 c 0
EndSplineSet
EndChar
StartChar: quoteleft
Encoding: 145 8216 114
Width: 240
VWidth: 2048
Flags: W
Fore
27 651 m 4
 26 705 42 746 80 780 c 5
 117 813 153 834 188 837 c 5
 201 810 l 5
 172 795 154 783 144 774 c 5
 129 762 118 742 116 718 c 5
 135 718 156 712 174 702 c 4
 194 690 204 669 206 636 c 5
 206 615 198 597 183 576 c 5
 171 561 153 555 129 555 c 4
 94 555 69 562 54 579 c 5
 36 598 27 622 27 651 c 4
EndSplineSet
EndChar
StartChar: quoteright
Encoding: 146 8217 115
Width: 238
VWidth: 2048
Flags: W
Fore
210 729 m 4
 222 676 212 632 180 594 c 5
 152 552 118 526 84 518 c 5
 68 540 l 5
 92 561 108 576 117 586 c 4
 130 600 138 621 135 646 c 5
 116 642 94 644 74 652 c 4
 54 662 39 680 32 710 c 4
 28 730 32 752 42 772 c 4
 52 792 69 801 93 806 c 4
 128 812 153 808 171 794 c 5
 192 778 206 758 210 729 c 4
EndSplineSet
EndChar
StartChar: quotedblleft
Encoding: 147 8220 116
Width: 484
VWidth: 2048
Flags: W
Fore
26 648 m 4
 22 700 39 742 76 777 c 5
 112 812 147 832 182 837 c 5
 196 812 l 5
 170 795 152 783 140 774 c 4
 123 760 116 742 112 717 c 5
 134 717 153 712 172 702 c 4
 192 692 201 669 204 636 c 4
 206 614 198 596 183 576 c 4
 171 561 153 552 129 552 c 4
 94 550 70 561 54 578 c 4
 36 597 26 618 26 648 c 4
256 654 m 4
 252 705 270 747 308 783 c 5
 340 818 376 837 412 843 c 5
 426 818 l 5
 400 801 381 788 369 778 c 4
 354 766 346 747 342 722 c 5
 362 722 382 717 402 706 c 4
 420 694 430 674 434 640 c 4
 434 618 428 600 414 582 c 4
 402 566 382 558 360 558 c 4
 324 558 298 564 284 584 c 5
 266 600 256 624 256 654 c 4
EndSplineSet
EndChar
StartChar: quotedblright
Encoding: 148 8221 117
Width: 486
VWidth: 2048
Flags: W
Fore
430 708 m 4
 432 657 416 615 376 582 c 4
 340 548 304 530 270 524 c 5
 256 550 l 5
 284 564 302 578 314 586 c 4
 328 600 339 618 342 642 c 5
 321 642 302 650 284 660 c 4
 264 670 255 692 252 726 c 4
 252 747 260 766 274 783 c 4
 286 800 304 808 328 808 c 4
 363 808 388 798 404 780 c 5
 422 762 430 740 430 708 c 4
200 708 m 4
 204 657 184 615 146 582 c 5
 110 548 75 530 39 524 c 5
 26 550 l 5
 52 564 70 578 82 586 c 4
 99 598 106 616 112 642 c 5
 93 642 74 650 52 660 c 4
 34 670 24 693 22 726 c 4
 22 747 28 766 44 783 c 4
 56 800 75 808 99 808 c 4
 134 808 159 798 174 780 c 5
 192 765 200 741 200 708 c 4
EndSplineSet
EndChar
StartChar: bullet
Encoding: 149 8226 118
Width: 304
VWidth: 2048
Flags: W
Fore
144 170 m 0
 93 170 52 186 24 219 c 0
 -4 250 -18 288 -18 332 c 0
 -18 362 -12 388 0 412 c 0
 15 438 34 459 56 472 c 0
 80 488 110 495 144 495 c 0
 180 495 210 488 234 472 c 0
 258 458 276 438 290 414 c 1
 302 388 308 362 308 332 c 0
 308 288 292 249 264 218 c 0
 237 186 196 170 144 170 c 0
EndSplineSet
EndChar
StartChar: endash
Encoding: 150 8211 119
Width: 901
VWidth: 2048
Flags: W
HStem: 284 55<-56 903>
Fore
-56 339 m 1
 903 339 l 1
 903 284 l 1
 -56 284 l 1
 -56 339 l 1
EndSplineSet
EndChar
StartChar: emdash
Encoding: 151 8212 120
Width: 1804
VWidth: 2048
Flags: W
HStem: 284 55<-110 1808>
Fore
-110 339 m 1
 1808 339 l 1
 1808 284 l 1
 -110 284 l 1
 -110 339 l 1
EndSplineSet
EndChar
StartChar: uni0E31.left
Encoding: 152 63248 121
Width: 0
Flags: W
HStem: 680 80<-292 -270> 856 68<-393.2 -379>
VStem: -495 72<813 825> -342 64<807 825>
Fore
-382 924 m 0
 -350 924 -324 914 -304 894 c 0
 -286 872 -278 846 -278 813 c 0
 -278 801 -279 792 -284 782 c 0
 -286 772 -290 766 -292 760 c 1
 -250 760 -212 771 -177 792 c 0
 -141 810 -110 849 -84 909 c 1
 -3 878 l 1
 -14 837 -34 801 -62 772 c 0
 -90 742 -120 718 -159 704 c 0
 -198 688 -240 680 -285 680 c 0
 -300 680 -312 680 -321 681 c 0
 -368 687 -408 702 -444 724 c 0
 -478 746 -496 774 -495 813 c 0
 -495 846 -483 872 -465 894 c 0
 -446 914 -418 924 -382 924 c 0
-382 774 m 0
 -369 774 -360 778 -352 786 c 0
 -346 795 -342 806 -342 816 c 0
 -342 826 -346 836 -352 844 c 0
 -360 852 -369 856 -382 856 c 0
 -396 856 -406 852 -414 844 c 0
 -420 836 -423 826 -423 816 c 0
 -423 806 -420 795 -414 786 c 0
 -406 778 -396 774 -382 774 c 0
EndSplineSet
EndChar
StartChar: uni0E4D.left
Encoding: 153 63249 122
Width: 0
Flags: W
HStem: 681 71<-368 -366> 840 70<-368 -366>
VStem: -483 71<796 798> -324 69<796 798>
Fore
-368 910 m 0
 -332 910 -303 900 -284 876 c 0
 -262 855 -255 826 -255 796 c 0
 -255 766 -264 740 -285 716 c 0
 -304 693 -332 681 -368 681 c 0
 -404 681 -432 693 -453 716 c 0
 -472 740 -483 766 -483 796 c 0
 -483 826 -472 855 -453 876 c 0
 -434 898 -405 910 -368 910 c 0
-368 752 m 0
 -354 752 -344 756 -336 765 c 0
 -327 772 -324 784 -324 796 c 0
 -324 808 -327 819 -336 826 c 0
 -344 836 -354 840 -368 840 c 0
 -381 840 -392 837 -400 830 c 0
 -408 820 -412 808 -412 796 c 0
 -412 784 -408 772 -400 765 c 0
 -392 756 -381 752 -368 752 c 0
EndSplineSet
EndChar
StartChar: uni0E47.left
Encoding: 154 63250 123
Width: 0
Flags: W
HStem: 681 61<-315 -308> 762 76<-485 -466> 795 61<-315 -306> 870 68<-406 -354> 873 69<-486 -446>
VStem: -627 83<801 830> -288 62<770 775>
Fore
-315 681 m 0
 -330 681 -346 686 -360 693 c 0
 -375 702 -388 712 -404 724 c 0
 -418 735 -430 746 -442 753 c 0
 -454 759 -466 762 -478 762 c 0
 -490 762 -498 754 -507 735 c 0
 -516 717 -519 696 -519 678 c 1
 -540 678 l 1
 -562 690 -584 712 -600 741 c 0
 -618 770 -627 800 -627 830 c 0
 -627 844 -626 858 -621 870 c 0
 -609 898 -594 916 -573 927 c 0
 -552 938 -524 942 -486 942 c 0
 -468 942 -454 942 -444 940 c 0
 -408 939 -382 938 -370 938 c 0
 -340 938 -318 942 -308 952 c 0
 -292 962 -286 981 -286 1012 c 1
 -208 1012 l 1
 -208 962 -222 926 -248 903 c 0
 -273 882 -315 870 -375 870 c 0
 -404 870 -428 872 -446 873 c 0
 -482 873 -507 868 -522 860 c 0
 -537 850 -544 831 -544 801 c 1
 -543 808 -536 818 -524 825 c 0
 -512 834 -495 838 -470 838 c 0
 -448 838 -432 836 -420 826 c 0
 -408 819 -400 812 -394 807 c 1
 -382 838 -357 856 -315 856 c 0
 -286 856 -264 848 -249 832 c 0
 -234 818 -226 795 -226 770 c 0
 -226 744 -236 722 -250 706 c 0
 -266 690 -288 681 -315 681 c 0
-315 742 m 0
 -308 742 -300 746 -296 752 c 0
 -290 756 -288 760 -288 770 c 0
 -288 777 -290 783 -296 788 c 0
 -300 794 -308 795 -315 795 c 0
 -324 795 -328 792 -334 786 c 0
 -339 782 -340 774 -340 770 c 0
 -340 762 -339 756 -334 752 c 0
 -328 746 -324 742 -315 742 c 0
EndSplineSet
EndChar
StartChar: uni0E48.left
Encoding: 155 63251 124
Width: 0
Flags: W
VStem: -346 90<1048 1248>
Fore
-346 1048 m 1
 -346 1248 l 1
 -256 1248 l 1
 -256 1048 l 1
 -346 1048 l 1
EndSplineSet
EndChar
StartChar: uni0E49.left
Encoding: 156 63252 125
Width: 0
Flags: W
HStem: 1072 60<-393 -387> 1190 60<-394 -384>
VStem: -472 56<1155 1166> -357 65<1155 1165>
Fore
-292 1155 m 0
 -296 1126 -298 1107 -304 1095 c 0
 -310 1083 -315 1074 -318 1072 c 1
 -316 1072 -309 1074 -297 1078 c 0
 -285 1082 -273 1086 -260 1095 c 0
 -246 1104 -236 1113 -226 1125 c 0
 -218 1143 -210 1160 -208 1176 c 0
 -206 1191 -204 1214 -204 1242 c 1
 -126 1242 l 1
 -126 1136 -159 1065 -225 1034 c 0
 -268 1014 -314 1005 -360 1005 c 0
 -375 1005 -388 1006 -400 1008 c 0
 -412 1010 -420 1010 -426 1012 c 1
 -426 1041 l 1
 -420 1042 -416 1047 -406 1053 c 0
 -399 1058 -394 1065 -393 1072 c 1
 -394 1072 -405 1074 -420 1080 c 0
 -435 1084 -448 1095 -458 1110 c 0
 -468 1125 -472 1143 -472 1162 c 0
 -472 1186 -465 1208 -447 1224 c 0
 -432 1240 -410 1250 -386 1250 c 0
 -356 1250 -332 1239 -316 1221 c 0
 -302 1200 -292 1178 -292 1155 c 0
-387 1132 m 0
 -368 1132 -357 1143 -357 1161 c 0
 -357 1170 -360 1176 -364 1182 c 0
 -369 1186 -378 1190 -387 1190 c 0
 -394 1190 -404 1186 -408 1182 c 0
 -414 1176 -416 1170 -416 1161 c 0
 -416 1155 -412 1148 -406 1140 c 0
 -402 1136 -394 1132 -387 1132 c 0
EndSplineSet
EndChar
StartChar: uni0E4A.left
Encoding: 157 63253 126
Width: 0
Flags: W
HStem: 1010 50<-456 -451> 1104 48<-458 -446> 1179 61<-343 -327> 1182 58<-454 -438>
VStem: -550 72<1083 1134> -434 53<1075 1091> -304 64<1124 1146> -200 66<1176 1200>
Fore
-454 1010 m 0
 -483 1012 -506 1024 -524 1048 c 0
 -543 1072 -550 1101 -550 1134 c 1
 -548 1166 -537 1191 -522 1210 c 0
 -507 1230 -483 1240 -454 1240 c 0
 -442 1240 -430 1239 -422 1236 c 0
 -396 1221 l 0
 -392 1215 -388 1212 -388 1212 c 1
 -388 1212 l 1
 -386 1216 -378 1222 -366 1230 c 0
 -356 1238 -342 1240 -327 1240 c 0
 -298 1240 -276 1233 -262 1215 c 0
 -248 1198 -240 1174 -240 1146 c 0
 -240 1119 -248 1094 -260 1071 c 1
 -255 1072 -249 1078 -240 1086 c 0
 -232 1094 -224 1101 -219 1110 c 0
 -207 1132 -200 1155 -200 1179 c 0
 -200 1191 -201 1208 -206 1222 c 1
 -141 1244 l 1
 -135 1230 -134 1215 -134 1200 c 0
 -134 1152 -146 1112 -170 1080 c 0
 -186 1056 -208 1041 -236 1032 c 0
 -264 1024 -298 1020 -338 1020 c 1
 -338 1026 -338 1029 -338 1034 c 0
 -339 1040 -339 1042 -339 1047 c 1
 -334 1053 -327 1060 -318 1072 c 0
 -310 1084 -308 1101 -304 1124 c 0
 -304 1138 -308 1152 -312 1164 c 0
 -316 1174 -326 1179 -340 1179 c 0
 -351 1179 -360 1176 -366 1172 c 0
 -375 1166 -380 1162 -381 1158 c 1
 -381 1158 l 1
 -381 1160 -382 1161 -388 1164 c 0
 -394 1168 -402 1172 -410 1176 c 0
 -418 1179 -429 1182 -440 1182 c 0
 -465 1182 -478 1170 -480 1148 c 1
 -478 1149 -472 1149 -466 1150 c 0
 -460 1152 -454 1152 -446 1152 c 0
 -426 1152 -410 1146 -399 1132 c 0
 -387 1119 -381 1100 -381 1077 c 0
 -381 1059 -388 1044 -402 1030 c 0
 -417 1017 -434 1010 -454 1010 c 0
-456 1104 m 0
 -471 1104 -478 1096 -478 1083 c 0
 -478 1068 -471 1060 -456 1060 c 0
 -441 1060 -434 1068 -434 1083 c 0
 -434 1096 -441 1104 -456 1104 c 0
EndSplineSet
EndChar
StartChar: uni0E4B.left
Encoding: 158 63254 127
Width: 0
Flags: W
HStem: 1092 78<-428 -342 -258 -172>
VStem: -342 84<1018 1092 1170 1244>
Fore
-342 1092 m 1
 -428 1092 l 1
 -428 1170 l 1
 -342 1170 l 1
 -342 1244 l 1
 -258 1244 l 1
 -258 1170 l 1
 -172 1170 l 1
 -172 1092 l 1
 -258 1092 l 1
 -258 1018 l 1
 -342 1018 l 1
 -342 1092 l 1
EndSplineSet
EndChar
StartChar: uni0E4C.left
Encoding: 159 63255 128
Width: 0
Flags: W
HStem: 960 57<-429 -421> 1072 58<-429 -420>
VStem: -534 78<1046 1064> -402 63<1046 1055> -286 70<1235.79 1250.98>
Fore
-297 1138 m 0
 -338 1132 -368 1132 -387 1131 c 0
 -405 1130 -417 1130 -422 1130 c 0
 -396 1130 -378 1122 -363 1107 c 0
 -350 1092 -339 1072 -339 1052 c 0
 -338 1026 -346 1004 -362 987 c 0
 -376 969 -396 960 -423 960 c 0
 -458 957 -484 969 -504 988 c 0
 -524 1006 -534 1030 -534 1064 c 0
 -534 1119 -512 1158 -466 1178 c 0
 -446 1186 -418 1194 -382 1196 c 0
 -348 1197 -324 1202 -309 1208 c 0
 -292 1212 -286 1227 -286 1251 c 1
 -216 1251 l 1
 -216 1222 -222 1197 -236 1178 c 0
 -248 1158 -268 1143 -297 1138 c 0
-429 1072 m 0
 -447 1072 -456 1065 -456 1046 c 0
 -456 1028 -447 1017 -429 1017 c 0
 -410 1017 -402 1028 -402 1046 c 0
 -402 1053 -404 1059 -408 1065 c 0
 -414 1070 -420 1072 -429 1072 c 0
EndSplineSet
EndChar
StartChar: uni0E01
Encoding: 161 3585 130
Width: 624
Flags: W
HStem: 0 21G<94 195 446 544> 516 74<283 316>
VStem: 94 101<0 288> 446 98<0 407>
Fore
148 405 m 1
 141 408 128 414 108 418 c 0
 90 423 68 429 44 430 c 1
 44 462 l 1
 48 468 54 477 64 488 c 0
 75 500 92 513 114 531 c 0
 135 546 165 561 198 573 c 0
 231 585 270 590 314 590 c 0
 360 590 399 584 432 570 c 0
 466 555 494 534 513 506 c 0
 534 477 544 442 544 400 c 2
 544 0 l 1
 446 0 l 1
 446 392 l 2
 446 432 432 465 406 484 c 0
 380 507 346 516 304 516 c 0
 256 516 208 500 162 471 c 1
 168 470 174 468 184 466 c 0
 196 465 210 459 226 454 c 0
 244 447 261 440 276 428 c 1
 276 380 l 1
 258 380 240 375 222 363 c 0
 204 351 195 326 195 286 c 2
 195 0 l 1
 94 0 l 1
 94 279 l 2
 94 312 99 338 106 356 c 0
 116 375 129 392 148 405 c 1
EndSplineSet
EndChar
StartChar: uni0E02
Encoding: 162 3586 131
Width: 610
Flags: W
HStem: 0 88<154 401> 327 69<134 136> 484 107<134 194>
VStem: 16 74<430 449> 178 71<441 449> 222 100<88 273> 296 84<432 449> 430 101<113.176 576>
Fore
296 432 m 1
 296 460 288 482 274 495 c 0
 260 507 244 513 226 516 c 1
 231 510 236 501 240 490 c 0
 246 477 249 460 249 442 c 0
 248 408 237 381 218 360 c 0
 195 338 168 327 134 327 c 0
 99 327 70 339 50 362 c 0
 27 382 16 410 16 442 c 0
 16 474 26 501 42 524 c 0
 60 546 81 562 108 574 c 0
 135 586 165 591 194 591 c 0
 249 591 296 576 328 546 c 0
 363 516 380 480 380 440 c 0
 380 417 378 399 374 387 c 0
 368 374 360 360 351 346 c 0
 340 330 334 318 328 309 c 0
 324 297 322 284 322 264 c 2
 322 88 l 1
 386 88 l 2
 406 88 418 92 423 96 c 0
 429 104 430 117 430 138 c 2
 430 576 l 1
 531 576 l 1
 531 110 l 2
 531 64 520 36 498 22 c 0
 477 8 440 0 386 0 c 2
 154 0 l 1
 154 88 l 1
 222 88 l 1
 222 261 l 2
 222 282 225 298 231 312 c 0
 236 324 246 339 258 354 c 0
 270 369 278 381 284 390 c 0
 288 399 291 414 296 432 c 1
134 396 m 0
 148 396 159 402 168 410 c 0
 174 418 178 429 178 441 c 0
 178 453 174 465 168 472 c 0
 159 482 148 484 134 484 c 0
 120 484 110 480 102 471 c 0
 93 462 90 453 90 441 c 0
 90 429 93 418 102 410 c 0
 110 402 120 396 134 396 c 0
EndSplineSet
EndChar
StartChar: uni0E03
Encoding: 163 3587 132
Width: 675
Flags: W
HStem: 0 88<219 471> 250 68<149 156> 406 68<149 167>
VStem: 196 70<363 371> 288 99<88 358> 360 82<474 482> 496 100<138 576>
Fore
154 250 m 0
 110 250 78 264 56 292 c 0
 34 321 22 356 22 400 c 0
 22 410 22 426 26 446 c 0
 28 478 42 504 62 525 c 0
 80 548 102 564 123 576 c 0
 147 588 166 594 180 594 c 1
 244 558 l 1
 316 594 l 1
 346 588 375 574 402 552 c 0
 429 531 442 506 442 477 c 0
 442 458 438 441 429 429 c 0
 420 417 410 406 400 394 c 0
 392 382 387 366 387 348 c 2
 387 88 l 1
 452 88 l 2
 472 88 484 92 490 96 c 0
 495 104 496 117 496 138 c 2
 496 576 l 1
 596 576 l 1
 596 138 l 2
 596 88 586 52 572 32 c 0
 556 10 522 0 471 0 c 2
 219 0 l 1
 219 88 l 1
 288 88 l 1
 288 356 l 2
 288 405 304 438 340 456 c 1
 352 465 360 471 360 480 c 0
 360 492 348 506 322 518 c 1
 244 480 l 1
 165 518 l 1
 146 513 132 506 122 494 c 0
 114 482 106 471 105 462 c 1
 106 465 112 468 118 470 c 0
 128 472 140 474 154 474 c 0
 177 474 196 470 213 459 c 0
 231 452 243 438 250 422 c 0
 260 406 266 388 266 368 c 0
 268 334 256 304 237 284 c 0
 218 261 190 250 154 250 c 0
153 318 m 0
 168 318 178 324 184 332 c 0
 194 340 196 351 196 363 c 0
 196 375 194 387 184 394 c 0
 178 404 168 406 153 406 c 0
 140 406 129 402 120 393 c 0
 112 386 108 375 108 363 c 0
 108 351 112 340 120 332 c 0
 129 324 140 318 153 318 c 0
EndSplineSet
EndChar
StartChar: uni0E04
Encoding: 164 3588 133
Width: 619
Flags: W
HStem: 0 21G<134 234 441 538> 376 70<282 296.326> 518 78<279 298>
VStem: 40 86<361 386> 134 100<0 226> 326 68<320.847 337> 441 97<0 401>
Fore
282 218 m 0
 276 218 266 219 255 220 c 0
 240 224 234 225 234 226 c 2
 234 0 l 1
 134 0 l 1
 134 100 l 2
 134 126 130 147 122 170 c 0
 114 190 102 213 87 238 c 0
 70 264 62 288 52 310 c 0
 44 332 40 356 40 386 c 0
 42 430 54 468 80 500 c 0
 104 532 134 556 172 572 c 0
 212 586 252 596 296 596 c 0
 338 596 376 588 416 573 c 0
 452 558 482 534 506 504 c 0
 526 472 538 435 538 392 c 2
 538 0 l 1
 441 0 l 1
 441 387 l 2
 441 429 426 460 396 483 c 0
 368 506 332 518 290 518 c 0
 246 518 208 506 177 482 c 0
 142 456 126 423 126 381 c 0
 126 357 129 336 138 314 c 0
 144 296 147 286 148 286 c 1
 148 286 148 286 148 288 c 0
 148 318 158 352 177 388 c 0
 194 423 230 444 282 446 c 0
 315 446 342 435 364 414 c 0
 386 392 394 364 394 332 c 0
 394 300 386 274 364 252 c 0
 344 231 316 219 282 218 c 0
282 286 m 0
 297 286 308 291 315 300 c 0
 322 309 326 318 326 332 c 0
 326 344 322 356 315 364 c 0
 308 374 297 376 282 376 c 0
 268 376 258 370 249 363 c 0
 240 354 237 344 237 332 c 0
 237 321 240 309 249 300 c 0
 258 291 268 286 282 286 c 0
EndSplineSet
EndChar
StartChar: uni0E05
Encoding: 165 3589 134
Width: 619
Flags: W
HStem: 0 21G<134 234 441 538> 376 70<282 296.326>
VStem: 40 86<361 394> 134 100<0 226> 326 68<320.847 337> 441 97<0 401>
Fore
213 586 m 1
 302 549 l 1
 396 586 l 1
 429 578 458 561 480 538 c 0
 501 518 518 494 525 466 c 0
 534 440 538 414 538 392 c 2
 538 0 l 1
 441 0 l 1
 441 388 l 2
 441 417 438 440 432 456 c 0
 428 471 412 486 390 500 c 1
 302 468 l 1
 218 506 l 1
 188 494 166 478 148 456 c 0
 134 434 126 408 126 381 c 0
 126 357 129 336 138 314 c 0
 144 296 147 286 148 286 c 1
 148 286 148 286 148 288 c 0
 148 318 158 352 177 388 c 0
 194 423 230 444 282 446 c 0
 315 446 342 435 364 414 c 0
 386 392 394 364 394 332 c 0
 394 300 386 274 364 252 c 0
 344 231 316 219 282 218 c 0
 276 218 266 219 255 220 c 0
 240 224 234 225 234 226 c 2
 234 0 l 1
 134 0 l 1
 134 100 l 2
 134 126 130 147 122 170 c 0
 114 190 102 213 87 238 c 0
 70 264 62 288 52 310 c 0
 44 332 40 356 40 386 c 0
 42 484 100 550 213 586 c 1
282 286 m 0
 297 286 308 291 315 300 c 0
 322 309 326 318 326 332 c 0
 326 344 322 356 315 364 c 0
 308 374 297 376 282 376 c 0
 268 376 258 370 249 363 c 0
 240 354 237 344 237 332 c 0
 237 321 240 309 249 300 c 0
 258 291 268 286 282 286 c 0
EndSplineSet
EndChar
StartChar: uni0E06
Encoding: 166 3590 135
Width: 775
Flags: W
HStem: -12 76<270 286> 0 21G<597 694> 246 66<156 162> 402 66<156 161>
VStem: 159 78<105.126 120> 200 72<357 365> 292 100<88 184 265 359> 364 83<467 476> 597 97<0 576>
Fore
392 340 m 2
 392 266 l 1
 417 262 442 258 471 246 c 0
 498 236 524 219 548 204 c 0
 572 188 588 172 597 160 c 1
 597 576 l 1
 694 576 l 1
 694 0 l 1
 597 0 l 1
 597 9 588 28 572 57 c 0
 555 87 531 116 500 141 c 0
 470 166 434 180 392 184 c 1
 392 88 l 2
 392 60 381 36 363 16 c 0
 344 -2 318 -12 286 -12 c 0
 248 -12 216 2 194 27 c 0
 171 52 159 82 159 118 c 0
 159 156 171 188 195 218 c 0
 219 246 250 262 292 266 c 1
 292 351 l 2
 292 400 310 432 346 452 c 0
 357 456 364 465 364 472 c 0
 364 486 352 500 327 512 c 1
 249 474 l 1
 170 512 l 1
 152 508 138 500 126 486 c 0
 114 471 106 459 104 452 c 1
 106 454 114 458 123 460 c 0
 132 465 144 466 159 468 c 0
 192 468 219 458 238 438 c 0
 260 417 272 392 272 362 c 0
 273 328 261 302 238 279 c 0
 218 258 190 246 159 246 c 0
 116 248 82 261 62 286 c 0
 39 314 27 350 27 392 c 0
 27 412 28 428 30 440 c 0
 38 482 57 518 93 546 c 0
 128 573 158 586 184 586 c 1
 249 552 l 1
 322 586 l 1
 351 584 380 570 406 548 c 0
 434 525 447 500 447 471 c 0
 447 458 446 446 441 435 c 0
 435 428 429 417 420 406 c 0
 410 394 404 387 399 378 c 0
 393 369 392 356 392 340 c 2
248 80 m 0
 252 69 261 64 273 64 c 0
 286 64 292 74 292 88 c 2
 292 188 l 1
 278 186 264 178 252 165 c 0
 243 148 237 134 237 117 c 0
 237 105 240 92 248 80 c 0
156 312 m 0
 170 312 180 316 188 326 c 0
 196 334 200 344 200 357 c 0
 200 369 196 380 190 388 c 0
 182 396 171 402 156 402 c 0
 142 402 132 396 123 388 c 0
 116 380 112 369 112 357 c 0
 112 346 116 334 123 326 c 0
 132 316 142 312 156 312 c 0
EndSplineSet
EndChar
StartChar: uni0E07
Encoding: 167 3591 136
Width: 493
Flags: W
HStem: -16 84<302 310> 360 68<297 306> 518 68<297 306>
VStem: 182 70<472 480> 315 99<90 478> 340 74<463 480>
DStem: 16 362 94 412 207 39 153 315 16 362 153 315 207 39 237 172
Fore
297 586 m 0
 330 586 360 576 381 556 c 0
 404 534 414 508 414 478 c 2
 414 82 l 2
 414 51 404 27 386 10 c 0
 363 -9 339 -16 310 -16 c 0
 264 -16 230 2 207 39 c 2
 16 362 l 1
 94 412 l 1
 108 390 128 357 153 315 c 0
 178 273 206 225 237 172 c 0
 268 120 284 93 284 92 c 0
 291 76 300 68 304 68 c 0
 310 68 315 78 315 100 c 2
 315 362 l 1
 315 362 314 362 310 362 c 0
 308 360 302 360 297 360 c 0
 261 360 234 370 212 393 c 0
 192 416 182 442 182 472 c 0
 182 504 192 531 212 552 c 0
 232 574 261 586 297 586 c 0
297 428 m 0
 312 428 322 432 328 441 c 0
 338 448 340 459 340 472 c 0
 340 484 338 496 328 506 c 0
 322 513 312 518 297 518 c 0
 284 518 273 512 264 504 c 0
 256 495 252 484 252 472 c 0
 252 460 256 448 264 441 c 0
 273 432 284 428 297 428 c 0
EndSplineSet
EndChar
StartChar: uni0E08
Encoding: 168 3592 137
Width: 583
Flags: W
HStem: -8 72<392 398> 172 71<200 209> 330 70<200 209> 507 79<255 293>
VStem: 87 69<286 297> 244 138<87 286> 405 99<92 412>
Fore
504 116 m 2
 504 66 494 32 472 16 c 0
 454 2 429 -8 396 -8 c 0
 369 -8 348 0 330 14 c 0
 312 26 300 46 291 75 c 0
 286 93 279 118 273 147 c 0
 264 177 261 192 260 192 c 1
 258 188 250 184 243 180 c 0
 232 174 219 172 200 172 c 0
 165 174 135 184 117 207 c 0
 96 230 87 256 87 286 c 0
 87 315 96 342 117 366 c 0
 135 388 165 400 200 400 c 0
 260 400 302 370 318 315 c 0
 363 165 382 88 382 87 c 0
 386 70 390 64 394 64 c 0
 400 64 405 75 405 94 c 2
 405 393 l 2
 405 434 393 462 368 480 c 0
 342 498 310 507 274 507 c 0
 204 507 144 474 94 412 c 1
 32 458 l 1
 84 544 166 586 278 586 c 0
 344 586 399 570 441 537 c 0
 483 506 504 458 504 396 c 2
 504 116 l 2
200 243 m 0
 216 243 225 246 234 255 c 0
 240 262 244 274 244 286 c 0
 244 298 240 310 234 318 c 0
 225 327 216 330 200 330 c 0
 184 330 174 326 168 316 c 0
 159 309 156 298 156 286 c 0
 156 274 159 264 168 256 c 0
 177 248 186 243 200 243 c 0
EndSplineSet
EndChar
StartChar: uni0E09
Encoding: 169 3593 138
Width: 673
Flags: W
HStem: -12 74<537 556> 0 21G<156 250> 166 66<142 156> 322 70<138 150> 510 80<298 332>
VStem: 27 72<274 290> 156 99<0 290> 186 69<274 290> 444 99<81 190 261 405> 585 67<112 122>
Fore
141 392 m 0
 172 392 198 381 220 363 c 0
 243 344 255 318 255 290 c 2
 255 153 l 1
 274 182 302 204 338 222 c 0
 370 240 406 255 444 262 c 1
 444 394 l 2
 444 432 432 462 410 482 c 0
 387 501 352 510 308 510 c 0
 278 510 248 500 219 482 c 0
 190 462 165 441 142 414 c 1
 76 459 l 1
 102 498 135 530 177 555 c 0
 218 578 262 590 315 590 c 0
 386 590 441 573 482 538 c 0
 522 504 543 456 543 396 c 2
 543 262 l 1
 578 256 604 238 624 212 c 0
 642 184 654 153 652 114 c 0
 652 76 640 46 618 24 c 0
 597 0 570 -12 537 -12 c 0
 512 -12 492 -4 472 10 c 0
 454 26 444 50 444 81 c 2
 444 190 l 1
 392 177 348 152 312 116 c 0
 276 80 256 40 250 0 c 1
 156 0 l 1
 156 166 l 1
 154 166 153 166 148 165 c 0
 147 162 144 162 141 162 c 0
 105 165 78 177 57 198 c 0
 38 220 27 246 27 276 c 0
 27 308 39 334 57 356 c 0
 78 380 105 392 141 392 c 0
585 122 m 0
 585 141 582 156 573 168 c 0
 564 180 555 186 543 190 c 1
 543 82 l 1
 544 68 548 62 556 62 c 0
 561 63 566 66 572 70 c 0
 574 78 578 87 582 96 c 0
 584 105 585 114 585 122 c 0
142 232 m 0
 158 232 168 237 177 246 c 0
 183 255 186 264 186 278 c 0
 186 290 183 302 177 310 c 0
 168 318 158 322 142 322 c 0
 129 322 118 316 110 309 c 0
 102 300 99 290 99 278 c 0
 99 266 102 256 110 248 c 0
 118 237 129 232 142 232 c 0
EndSplineSet
EndChar
StartChar: uni0E0A
Encoding: 170 3594 139
Width: 622
Flags: W
HStem: 0 88<170 418> 326 70<149 158> 422 72<381 392>
VStem: 38 74<431 449> 200 72<431 449> 240 99<88 273> 444 99<127 353>
Fore
310 434 m 0
 312 460 303 482 290 495 c 0
 276 510 261 518 246 519 c 1
 250 513 256 504 262 492 c 0
 268 477 272 460 272 444 c 0
 272 410 261 381 240 360 c 0
 220 338 192 326 154 326 c 0
 118 326 92 338 69 360 c 0
 48 381 38 410 38 444 c 0
 38 471 46 496 64 519 c 0
 81 540 104 558 129 570 c 0
 154 582 180 588 206 588 c 0
 248 588 286 579 318 561 c 0
 352 543 374 519 381 494 c 1
 394 494 417 501 447 519 c 0
 478 534 510 570 543 626 c 1
 614 579 l 1
 597 540 574 512 549 494 c 0
 524 474 504 462 490 458 c 1
 498 454 510 444 524 428 c 0
 536 410 543 381 543 340 c 2
 543 110 l 2
 543 78 538 54 532 39 c 0
 525 24 513 14 496 9 c 0
 480 3 454 0 418 0 c 2
 170 0 l 1
 170 88 l 1
 240 88 l 1
 240 264 l 2
 240 284 244 298 249 310 c 0
 255 322 262 336 274 351 c 0
 285 364 292 376 300 387 c 0
 304 396 310 412 310 434 c 0
156 396 m 0
 170 396 180 402 188 410 c 0
 196 418 200 429 200 441 c 0
 200 453 196 465 188 472 c 0
 180 482 170 484 156 484 c 0
 142 484 132 480 123 471 c 0
 116 462 112 453 112 441 c 0
 112 429 116 418 123 410 c 0
 132 402 142 396 156 396 c 0
392 422 m 1
 390 400 388 382 382 374 c 0
 378 363 374 352 364 342 c 0
 356 330 351 318 346 308 c 0
 340 296 339 276 339 255 c 2
 339 88 l 1
 396 88 l 2
 418 88 432 92 438 96 c 0
 442 104 444 117 444 138 c 2
 444 332 l 2
 444 368 438 392 423 404 c 0
 412 416 400 422 392 422 c 1
EndSplineSet
EndChar
StartChar: uni0E0B
Encoding: 171 3595 140
Width: 658
Flags: W
HStem: 0 88<206 456> 250 68<139 148> 406 68<139 156>
VStem: 186 72<363 371> 276 99<88 275> 482 97<127 353>
Fore
309 594 m 1
 330 591 356 579 381 560 c 0
 406 538 422 518 426 494 c 1
 438 495 459 504 488 522 c 0
 518 538 546 573 578 626 c 1
 651 579 l 1
 634 540 614 512 588 494 c 0
 562 474 543 462 530 458 c 1
 537 454 548 444 561 428 c 0
 573 408 579 380 579 340 c 2
 579 110 l 2
 579 64 572 34 556 21 c 0
 538 8 506 0 456 0 c 2
 206 0 l 1
 206 88 l 1
 276 88 l 1
 276 273 l 2
 276 291 279 308 285 318 c 0
 290 327 298 339 312 354 c 0
 324 368 332 380 339 390 c 0
 346 402 350 416 351 434 c 0
 351 456 350 472 344 484 c 0
 339 496 328 507 312 518 c 1
 236 480 l 1
 156 518 l 1
 138 513 122 506 114 494 c 0
 105 482 99 471 96 462 c 1
 99 465 104 468 110 470 c 0
 117 472 129 474 146 474 c 0
 168 474 186 470 206 459 c 0
 220 452 234 438 243 422 c 0
 250 406 258 388 258 368 c 0
 260 336 248 308 226 285 c 0
 207 262 180 250 146 250 c 0
 104 250 69 264 46 292 c 0
 24 322 12 357 12 400 c 0
 12 410 14 426 15 446 c 0
 21 474 32 501 51 524 c 0
 69 546 92 564 114 576 c 0
 138 588 156 594 170 594 c 1
 236 558 l 1
 248 562 262 572 282 579 c 0
 300 588 309 594 309 594 c 1
428 422 m 1
 426 404 422 388 417 378 c 0
 412 366 406 356 399 346 c 0
 392 334 387 322 381 309 c 0
 376 296 375 276 375 255 c 2
 375 88 l 1
 432 88 l 2
 454 88 468 92 472 96 c 0
 478 104 482 117 482 138 c 2
 482 332 l 2
 482 368 474 392 459 404 c 0
 447 416 435 422 428 422 c 1
142 318 m 0
 158 318 168 324 177 332 c 0
 183 340 186 351 186 363 c 0
 186 375 183 387 177 394 c 0
 168 404 158 406 142 406 c 0
 129 406 118 402 110 393 c 0
 102 386 99 375 99 363 c 0
 99 351 102 340 110 332 c 0
 118 324 129 318 142 318 c 0
EndSplineSet
EndChar
StartChar: uni0E0C
Encoding: 172 3596 141
Width: 810
Flags: W
HStem: -10 62<194 214 409 420> 0 21G<630 729> 144 63<195 214> 520 70<283 314>
VStem: 94 64<91 102> 94 101<100 295> 250 62<99 103> 332 55<85 102> 410 98<215 436> 426 82<56 134> 630 99<135 576>
Fore
508 68 m 2
 508 46 501 27 486 12 c 0
 471 -3 448 -10 420 -10 c 0
 392 -10 369 0 354 21 c 0
 339 40 332 68 332 100 c 0
 332 129 339 154 351 174 c 0
 363 194 381 207 410 216 c 1
 410 434 l 2
 410 460 400 482 378 496 c 0
 356 512 326 519 290 520 c 0
 274 520 252 518 224 508 c 0
 195 500 172 488 160 472 c 1
 171 471 188 468 212 459 c 0
 234 453 256 442 276 428 c 1
 276 380 l 1
 258 380 240 375 222 363 c 0
 204 351 195 326 195 286 c 2
 195 206 l 1
 196 207 196 207 198 207 c 0
 204 207 l 0
 225 207 246 201 262 192 c 0
 278 182 291 168 300 152 c 0
 309 134 312 117 312 99 c 0
 312 80 309 63 300 46 c 0
 291 28 278 15 262 4 c 0
 246 -4 225 -10 204 -10 c 0
 170 -10 142 0 123 22 c 0
 105 42 94 68 94 100 c 2
 94 279 l 2
 94 312 99 338 106 356 c 0
 116 375 129 392 148 405 c 1
 141 408 128 414 108 418 c 0
 90 423 69 429 44 430 c 1
 44 462 l 1
 57 484 87 510 129 543 c 0
 172 574 234 590 314 590 c 0
 351 590 382 585 408 573 c 0
 434 561 454 548 468 531 c 0
 483 512 494 494 498 474 c 0
 506 454 508 435 508 418 c 2
 508 210 l 1
 530 206 548 196 566 184 c 0
 585 172 600 165 610 156 c 0
 621 147 627 141 630 135 c 1
 630 576 l 1
 729 576 l 1
 729 0 l 1
 630 0 l 1
 622 18 609 44 588 75 c 0
 566 105 540 126 508 134 c 1
 508 68 l 2
206 52 m 0
 213 52 222 54 231 60 c 0
 237 64 243 69 246 76 c 0
 249 82 250 90 250 99 c 0
 250 112 248 123 238 132 c 0
 231 141 220 144 206 144 c 0
 190 144 180 140 171 130 c 0
 162 122 158 110 158 99 c 0
 158 87 162 76 171 68 c 0
 180 57 190 52 206 52 c 0
426 57 m 1
 426 152 l 1
 410 148 400 142 394 134 c 0
 390 126 387 112 387 93 c 0
 387 81 390 70 396 63 c 0
 402 54 408 50 416 50 c 0
 420 50 423 52 426 57 c 1
EndSplineSet
EndChar
StartChar: uni0E0D
Encoding: 173 3597 142
Width: 810
Flags: W
HStem: -279 84<510 534> -88 62<442 444> -52 20G<628 726> -10 62<194 214> 0 88<354 605> 144 63<195 214> 520 70<283 314>
VStem: 94 64<89 106> 94 101<100 298> 250 62<99 112> 332 64<-134 -123.664> 410 98<88 436> 490 59<-137 -132> 630 99<120 576>
Fore
729 576 m 1
 729 110 l 2
 729 78 724 54 716 39 c 0
 706 24 692 14 674 9 c 0
 654 3 626 0 590 0 c 2
 354 0 l 1
 354 88 l 1
 410 88 l 1
 410 434 l 2
 410 460 400 482 378 496 c 0
 356 512 326 519 290 520 c 0
 274 520 252 518 224 508 c 0
 195 500 172 488 160 472 c 1
 171 471 188 468 212 459 c 0
 234 453 256 442 276 428 c 1
 276 380 l 1
 258 380 240 375 222 363 c 0
 204 351 195 326 195 286 c 2
 195 206 l 1
 196 207 196 207 198 207 c 0
 204 207 l 0
 225 207 246 201 262 192 c 0
 278 182 291 168 300 152 c 0
 309 134 312 117 312 99 c 0
 312 80 309 63 300 46 c 0
 291 28 278 15 262 4 c 0
 246 -4 225 -10 204 -10 c 0
 170 -10 142 0 123 22 c 0
 105 42 94 68 94 100 c 2
 94 279 l 2
 94 312 99 338 106 356 c 0
 116 375 129 392 148 405 c 1
 141 408 128 414 108 418 c 0
 90 423 68 429 44 430 c 1
 44 462 l 1
 57 484 87 510 129 543 c 0
 172 574 234 590 314 590 c 0
 351 590 382 585 408 573 c 0
 434 561 454 548 468 531 c 0
 483 512 494 494 498 474 c 0
 506 454 508 435 508 418 c 2
 508 88 l 1
 590 88 l 2
 609 88 621 92 626 96 c 0
 628 102 630 116 630 138 c 2
 630 576 l 1
 729 576 l 1
532 -195 m 1
 555 -195 574 -184 597 -165 c 0
 618 -142 628 -99 628 -32 c 1
 726 -32 l 1
 726 -94 716 -144 693 -182 c 0
 670 -219 644 -244 612 -258 c 0
 579 -273 546 -279 510 -279 c 0
 480 -279 454 -276 434 -268 c 0
 394 -255 369 -237 354 -216 c 0
 339 -194 330 -166 332 -134 c 0
 332 -104 344 -78 363 -57 c 0
 381 -36 408 -26 442 -26 c 0
 478 -26 506 -36 524 -57 c 0
 540 -80 549 -106 549 -135 c 0
 549 -160 544 -182 532 -195 c 1
442 -180 m 0
 458 -180 470 -174 478 -166 c 0
 486 -158 490 -146 490 -134 c 0
 490 -122 486 -110 478 -102 c 0
 470 -93 458 -88 442 -88 c 0
 429 -88 417 -93 408 -102 c 0
 400 -110 396 -122 396 -134 c 0
 396 -146 402 -158 410 -166 c 0
 418 -174 429 -180 442 -180 c 0
206 52 m 0
 213 52 222 54 231 60 c 0
 237 64 243 69 246 76 c 0
 249 82 250 90 250 99 c 0
 250 112 248 123 238 132 c 0
 231 141 220 144 206 144 c 0
 190 144 180 140 171 130 c 0
 162 122 158 110 158 99 c 0
 158 87 162 76 171 68 c 0
 180 57 190 52 206 52 c 0
EndSplineSet
EndChar
StartChar: uni0E0E
Encoding: 174 3598 143
Width: 681
Flags: W
HStem: -276 82<206 220> -108 82<234 254> 152 61<140 152> 152 64<140 147> 516 74<344 383>
VStem: 26 64<91 109> 93 79<-162 -152> 188 62<98 109> 501 99<-142 407>
Fore
408 -80 m 1
 430 -92 452 -102 466 -114 c 0
 483 -128 495 -138 501 -142 c 1
 501 392 l 2
 501 432 488 462 460 484 c 0
 435 506 402 516 362 516 c 0
 339 516 314 512 288 504 c 0
 262 496 240 486 219 471 c 1
 230 470 246 466 268 459 c 0
 290 454 310 442 332 428 c 1
 332 380 l 1
 315 380 298 375 279 363 c 0
 261 351 250 326 250 286 c 2
 250 104 l 2
 250 69 240 42 222 22 c 0
 204 0 177 -10 140 -12 c 1
 104 -10 75 0 56 22 c 0
 36 44 26 69 26 100 c 0
 26 132 36 159 56 182 c 0
 75 204 104 216 140 216 c 0
 142 216 146 216 147 216 c 0
 148 213 148 213 152 213 c 1
 152 279 l 2
 152 312 156 338 165 356 c 0
 172 375 186 392 206 405 c 1
 196 408 183 414 165 418 c 0
 146 423 123 429 99 430 c 1
 99 462 l 1
 104 468 110 477 120 488 c 0
 130 500 147 513 170 531 c 0
 192 546 220 561 252 573 c 0
 286 585 326 590 369 590 c 0
 414 590 453 584 488 568 c 0
 524 555 550 532 570 504 c 0
 590 474 600 440 600 400 c 2
 600 -276 l 1
 501 -276 l 1
 480 -246 458 -220 434 -201 c 0
 410 -183 393 -170 381 -162 c 1
 369 -194 350 -220 321 -243 c 0
 291 -264 256 -278 213 -276 c 0
 182 -276 153 -262 129 -238 c 0
 105 -218 93 -186 93 -152 c 0
 94 -112 108 -82 134 -62 c 0
 159 -39 194 -27 234 -26 c 0
 262 -26 292 -32 328 -44 c 1
 330 -39 332 -28 336 -16 c 0
 339 -4 342 10 346 32 c 1
 429 14 l 1
 428 -2 423 -21 420 -39 c 0
 416 -57 412 -70 408 -80 c 1
140 52 m 0
 154 52 166 57 174 68 c 0
 183 78 188 90 188 102 c 0
 188 116 184 128 177 138 c 0
 168 146 154 152 140 152 c 0
 123 152 112 146 104 138 c 0
 94 128 90 116 90 102 c 0
 90 90 94 78 104 68 c 0
 112 57 123 52 140 52 c 0
250 -186 m 0
 270 -178 282 -168 290 -154 c 0
 298 -142 303 -132 304 -123 c 1
 284 -114 260 -108 236 -108 c 0
 216 -108 200 -114 190 -122 c 0
 178 -130 172 -142 172 -156 c 0
 172 -159 174 -165 177 -171 c 0
 182 -186 195 -194 220 -194 c 0
 234 -194 244 -192 250 -186 c 0
EndSplineSet
EndChar
StartChar: uni0E0F
Encoding: 175 3599 144
Width: 681
Flags: W
HStem: -278 72<182 200> -130 70<185 203> 152 61<130 152> 152 64<130 142> 516 74<345 378>
VStem: 26 58<98 106> 84 72<-173 -156> 183 67<89 106> 501 99<-146 411>
Fore
442 -87 m 1
 501 -146 l 1
 501 392 l 2
 501 432 488 462 460 484 c 0
 435 506 402 516 362 516 c 0
 339 516 314 512 288 504 c 0
 262 496 240 486 219 471 c 1
 230 470 246 466 268 459 c 0
 290 454 310 442 332 428 c 1
 332 380 l 1
 315 380 298 375 279 363 c 0
 261 351 250 326 250 286 c 2
 250 104 l 2
 250 69 240 42 222 22 c 0
 204 0 177 -10 140 -12 c 1
 104 -10 75 0 56 22 c 0
 36 44 26 69 26 100 c 0
 26 132 36 159 56 182 c 0
 75 204 104 216 140 216 c 0
 142 216 146 216 147 216 c 0
 148 213 148 213 152 213 c 1
 152 279 l 2
 152 312 156 338 165 356 c 0
 172 375 186 392 206 405 c 1
 196 408 183 414 165 418 c 0
 146 423 123 429 99 430 c 1
 99 462 l 1
 104 468 110 477 120 488 c 0
 130 500 147 513 170 531 c 0
 192 546 220 561 252 573 c 0
 286 585 326 590 369 590 c 0
 414 590 453 584 488 568 c 0
 524 555 550 532 570 504 c 0
 590 474 600 440 600 400 c 2
 600 -276 l 1
 507 -276 l 1
 438 -194 l 1
 360 -276 l 1
 351 -260 342 -244 330 -230 c 0
 318 -213 310 -206 304 -200 c 1
 300 -212 290 -230 272 -248 c 0
 252 -268 225 -278 188 -278 c 0
 159 -278 134 -268 116 -246 c 0
 94 -224 84 -194 84 -156 c 1
 88 -126 100 -102 122 -84 c 0
 144 -68 170 -60 198 -60 c 0
 226 -60 255 -68 278 -82 c 1
 282 -75 286 -60 291 -38 c 0
 297 -16 302 4 303 28 c 1
 376 16 l 1
 364 -56 351 -105 339 -130 c 1
 342 -132 348 -138 352 -142 c 0
 357 -147 363 -154 368 -160 c 1
 380 -148 396 -134 416 -116 c 0
 434 -96 442 -88 442 -87 c 1
140 52 m 0
 154 54 166 60 172 69 c 0
 180 78 183 88 183 102 c 0
 183 116 180 128 171 138 c 0
 162 146 148 152 130 152 c 0
 116 148 105 144 96 135 c 0
 88 126 84 116 84 104 c 0
 84 88 90 76 100 68 c 1
 108 57 122 52 140 52 c 0
213 -200 m 0
 224 -195 232 -184 238 -172 c 0
 244 -160 248 -156 248 -154 c 1
 248 -154 l 1
 230 -140 212 -130 195 -130 c 0
 177 -130 162 -140 156 -158 c 1
 156 -190 168 -206 192 -206 c 0
 200 -206 207 -204 213 -200 c 0
EndSplineSet
EndChar
StartChar: uni0E10
Encoding: 176 3600 145
Width: 514
Flags: W
HStem: -324 60<62 74> -218 59<328 347> -201 57<64 77> -82 58<329 347> 0 21G<321 426> 140 68<168 173> 297 71<170 173> 472 78<420 434> 518 72<230 243>
VStem: -22 61<-243 -226> 56 72<240.323 255> 240 62<-133 -114> 327 99<200 301> 350 84<-236 -216> 376 58<-133 -114>
Fore
321 0 m 1
 315 28 303 64 285 110 c 0
 268 154 258 177 256 177 c 0
 250 171 243 162 230 153 c 0
 216 144 195 140 170 140 c 0
 134 140 105 152 87 172 c 0
 66 195 56 220 56 252 c 0
 56 284 66 310 87 332 c 0
 106 354 134 366 170 368 c 0
 201 368 230 362 248 350 c 0
 266 336 279 314 291 284 c 0
 297 270 304 252 314 232 c 0
 322 212 327 201 327 200 c 2
 327 279 l 2
 327 310 326 332 321 346 c 0
 315 360 309 369 298 375 c 0
 288 380 270 386 240 393 c 0
 201 404 162 414 122 420 c 0
 81 428 51 432 32 434 c 1
 32 471 l 1
 48 494 64 513 84 532 c 0
 105 550 128 566 152 574 c 0
 172 585 200 590 230 590 c 0
 261 590 297 584 338 572 c 0
 378 558 405 550 420 550 c 0
 440 550 460 556 484 566 c 0
 486 566 488 556 494 537 c 0
 496 519 500 501 501 488 c 1
 470 478 442 472 420 472 c 0
 405 472 392 474 380 477 c 0
 368 480 350 486 326 495 c 0
 300 504 282 508 270 512 c 0
 256 516 243 518 230 518 c 0
 213 518 200 513 184 507 c 0
 170 500 160 494 159 488 c 1
 172 486 195 483 225 478 c 0
 256 472 279 466 296 462 c 0
 354 446 392 428 405 402 c 0
 418 376 426 336 426 284 c 2
 426 0 l 1
 321 0 l 1
322 -255 m 1
 350 -236 l 1
 350 -216 l 1
 348 -218 342 -218 338 -218 c 0
 308 -218 284 -207 266 -188 c 0
 249 -170 240 -146 240 -120 c 0
 240 -94 249 -70 268 -52 c 0
 285 -34 309 -24 338 -24 c 0
 366 -24 388 -32 406 -51 c 0
 426 -68 434 -90 434 -116 c 2
 434 -218 l 2
 434 -234 429 -248 418 -258 c 0
 408 -270 396 -279 381 -288 c 0
 366 -297 348 -309 326 -321 c 1
 260 -284 l 1
 201 -318 l 1
 156 -273 l 1
 141 -308 110 -326 64 -324 c 0
 39 -324 18 -312 2 -296 c 0
 -14 -276 -22 -255 -22 -226 c 0
 -22 -204 -12 -183 9 -168 c 0
 27 -153 50 -144 75 -144 c 0
 99 -144 120 -153 140 -168 c 1
 141 -159 144 -146 147 -123 c 0
 152 -102 153 -76 153 -48 c 1
 218 -48 l 1
 218 -80 216 -110 210 -140 c 0
 206 -168 196 -195 186 -218 c 1
 213 -244 l 2
 216 -244 222 -238 237 -231 c 0
 252 -222 260 -218 260 -216 c 1
 322 -255 l 1
74 -201 m 0
 62 -201 52 -206 48 -212 c 0
 42 -219 39 -226 39 -236 c 0
 39 -255 51 -264 74 -264 c 0
 84 -264 94 -260 104 -249 c 0
 110 -240 116 -232 117 -225 c 1
 114 -220 108 -216 102 -210 c 0
 93 -206 84 -201 74 -201 c 0
339 -159 m 0
 351 -159 360 -156 366 -147 c 0
 374 -141 376 -132 376 -122 c 0
 376 -112 374 -104 366 -94 c 0
 360 -87 351 -82 339 -82 c 0
 327 -82 316 -87 312 -94 c 0
 304 -104 302 -112 302 -122 c 0
 302 -132 304 -141 312 -147 c 0
 316 -156 327 -159 339 -159 c 0
171 208 m 0
 186 208 196 213 206 222 c 0
 212 231 216 240 216 252 c 0
 216 264 212 274 206 284 c 0
 196 291 186 297 171 297 c 0
 156 297 146 291 140 284 c 0
 130 274 128 264 128 252 c 0
 128 240 130 231 140 222 c 0
 147 213 158 208 171 208 c 0
EndSplineSet
EndChar
StartChar: uni0E11
Encoding: 177 3601 146
Width: 793
Flags: W
HStem: 0 21G<276 369 615 714> 250 68<137 144> 406 68<137 155> 501 78<592 596>
VStem: 10 86<363 399> 184 71<351 368> 276 99<0 370> 348 80<474 484> 615 99<0 464>
DStem: 474 482 568 478 375 237 369 0
Fore
375 351 m 2
 375 237 l 1
 474 482 l 2
 490 518 504 543 518 558 c 0
 531 573 556 579 594 579 c 0
 646 579 680 568 693 544 c 0
 706 520 714 486 714 442 c 2
 714 0 l 1
 615 0 l 1
 615 435 l 2
 615 462 614 480 612 488 c 0
 610 496 603 500 596 501 c 0
 586 501 579 498 574 494 c 0
 572 488 570 483 568 478 c 2
 369 0 l 1
 276 0 l 1
 276 356 l 2
 276 405 292 438 328 456 c 1
 340 465 348 471 348 480 c 0
 348 492 336 504 310 518 c 1
 232 480 l 1
 153 518 l 1
 134 513 120 506 110 494 c 0
 102 482 94 471 93 462 c 1
 94 465 100 468 106 470 c 0
 116 472 128 474 142 474 c 0
 165 474 184 470 201 459 c 0
 219 452 232 438 240 422 c 0
 249 405 252 387 255 368 c 0
 255 336 244 308 224 285 c 0
 204 262 177 250 142 250 c 0
 100 250 66 264 44 291 c 0
 22 318 10 354 10 399 c 0
 10 420 12 435 14 446 c 0
 18 474 30 501 50 525 c 0
 68 548 88 564 112 576 c 0
 134 588 153 594 168 594 c 1
 232 558 l 1
 304 594 l 1
 334 588 363 574 388 552 c 0
 414 531 428 506 428 477 c 0
 428 462 426 453 422 444 c 0
 417 438 410 429 402 418 c 0
 393 408 387 399 381 390 c 0
 376 381 375 368 375 351 c 2
141 318 m 0
 156 318 166 324 174 332 c 0
 182 340 184 351 184 363 c 0
 184 375 182 387 174 394 c 0
 166 404 156 406 141 406 c 0
 128 406 117 402 108 393 c 0
 100 386 96 375 96 363 c 0
 96 351 100 340 108 332 c 0
 117 324 128 318 141 318 c 0
EndSplineSet
EndChar
StartChar: uni0E12
Encoding: 178 3602 147
Width: 838
Flags: W
HStem: -10 60<438 448> 0 21G<128 213 656 756> 376 70<276.816 291>
VStem: 34 84<357 378> 128 67<0 120> 171 72<325 343> 330 70<332 343> 360 56<93 102> 440 97<215 416> 453 84<56 134> 657 99<135 576>
Fore
195 120 m 1
 207 135 218 153 230 171 c 0
 238 186 250 204 262 220 c 1
 237 222 218 234 198 256 c 0
 180 278 171 304 171 334 c 0
 171 366 182 392 204 414 c 0
 225 435 252 446 286 446 c 0
 322 446 350 435 368 416 c 0
 387 393 400 366 400 332 c 0
 402 296 390 261 369 232 c 2
 213 0 l 1
 128 0 l 1
 128 60 122 105 114 134 c 0
 112 135 104 154 88 186 c 0
 70 219 57 250 48 282 c 0
 39 310 34 342 34 378 c 0
 36 426 56 470 93 508 c 0
 129 548 168 574 210 586 c 1
 302 548 l 1
 394 588 l 1
 453 560 490 532 508 506 c 0
 526 480 537 441 537 392 c 2
 537 210 l 1
 566 204 590 192 612 174 c 0
 634 158 650 144 657 135 c 1
 657 576 l 1
 756 576 l 1
 756 0 l 1
 656 0 l 1
 650 18 636 44 615 75 c 0
 596 105 570 126 537 134 c 1
 537 68 l 2
 537 46 530 27 513 12 c 0
 498 -3 478 -10 448 -10 c 0
 420 -10 399 0 382 21 c 0
 368 40 357 68 360 100 c 0
 360 129 368 154 380 174 c 0
 392 194 410 207 440 216 c 1
 440 405 l 2
 440 438 434 460 426 474 c 0
 417 488 405 500 390 508 c 1
 302 474 l 1
 210 508 l 1
 148 477 118 430 118 375 c 0
 118 334 134 282 166 218 c 0
 178 194 184 172 190 154 c 0
 194 138 195 126 195 120 c 1
453 57 m 1
 453 152 l 1
 428 147 416 129 416 93 c 0
 416 81 418 70 423 63 c 0
 430 54 438 50 442 50 c 0
 447 50 452 52 453 57 c 1
286 286 m 0
 302 286 312 291 318 300 c 0
 327 309 330 318 330 332 c 0
 330 344 327 356 318 364 c 0
 312 374 302 376 286 376 c 0
 273 376 262 370 255 363 c 0
 246 354 243 344 243 332 c 0
 243 321 246 309 255 300 c 0
 262 291 273 286 286 286 c 0
EndSplineSet
EndChar
StartChar: uni0E13
Encoding: 179 3603 148
Width: 837
Flags: W
HStem: -32 20G<711.5 740> -10 62<194 214> 0 21G<410 506> 144 63<195 214> 520 70<283 314>
VStem: 94 64<88.978 102> 94 101<100 293> 250 62<85.6198 102> 410 98<0 436> 630 99<74 190 261 576> 771 67<112 134>
Fore
410 0 m 1
 410 434 l 2
 410 460 400 482 378 496 c 0
 356 512 326 519 290 520 c 0
 274 520 252 518 224 508 c 0
 195 500 172 488 160 472 c 1
 171 471 188 468 212 459 c 0
 234 453 256 442 276 428 c 1
 276 380 l 1
 258 380 240 375 222 363 c 0
 204 351 195 326 195 286 c 2
 195 206 l 1
 196 207 196 207 198 207 c 0
 204 207 l 0
 225 207 246 201 262 192 c 0
 278 182 291 168 300 152 c 0
 309 134 312 117 312 99 c 0
 312 80 309 63 300 46 c 0
 291 28 278 15 262 4 c 0
 246 -4 225 -10 204 -10 c 0
 170 -10 142 0 123 22 c 0
 105 42 94 68 94 100 c 2
 94 279 l 2
 94 312 99 338 106 356 c 0
 116 375 129 392 148 405 c 1
 141 408 128 414 108 418 c 0
 90 423 69 429 44 430 c 1
 44 462 l 1
 57 484 87 510 129 543 c 0
 172 574 234 590 314 590 c 0
 351 590 382 585 408 573 c 0
 434 561 454 548 468 531 c 0
 483 512 494 494 498 474 c 0
 506 454 508 435 508 418 c 2
 508 180 l 1
 524 198 543 216 568 232 c 0
 594 249 614 260 630 262 c 1
 630 576 l 1
 729 576 l 1
 729 262 l 1
 765 256 792 238 812 212 c 0
 831 184 838 153 838 114 c 0
 838 76 826 46 806 24 c 0
 783 0 756 -12 724 -12 c 0
 699 -12 676 -4 657 10 c 0
 639 26 630 50 630 81 c 2
 630 190 l 1
 598 177 570 152 548 116 c 0
 525 80 510 42 506 0 c 1
 410 0 l 1
206 52 m 0
 213 52 222 54 231 60 c 0
 237 64 243 69 246 76 c 0
 249 82 250 90 250 99 c 0
 250 112 248 123 238 132 c 0
 231 141 220 144 206 144 c 0
 190 144 180 140 171 130 c 0
 162 122 158 110 158 99 c 0
 158 87 162 76 171 68 c 0
 180 57 190 52 206 52 c 0
771 122 m 0
 771 140 766 154 758 166 c 0
 748 178 740 186 729 190 c 1
 729 82 l 2
 729 68 732 62 741 62 c 0
 748 63 758 69 762 81 c 0
 768 93 771 106 771 122 c 0
EndSplineSet
EndChar
StartChar: uni0E14
Encoding: 180 3604 149
Width: 618
Flags: W
HStem: 0 21G<128 213 440 537> 375 69<276.816 295> 506 84<275 309>
VStem: 36 84<360 378> 128 67<0 120> 171 72<319 337> 330 70<330 337> 440 97<0 412>
Fore
290 590 m 0
 374 588 435 570 477 531 c 0
 518 492 537 446 537 392 c 2
 537 0 l 1
 440 0 l 1
 440 400 l 2
 440 435 426 460 396 480 c 0
 368 496 334 506 292 506 c 0
 248 506 207 492 172 468 c 0
 138 442 120 410 120 366 c 0
 120 332 135 284 166 218 c 0
 178 194 184 172 190 154 c 0
 194 138 195 126 195 120 c 1
 207 135 218 153 230 170 c 0
 240 184 250 201 262 219 c 1
 237 220 218 232 198 255 c 0
 180 276 171 303 171 332 c 0
 171 364 182 390 204 412 c 0
 225 434 252 444 286 444 c 0
 322 444 350 434 368 414 c 0
 387 392 400 364 400 330 c 0
 402 291 390 260 369 231 c 2
 213 0 l 1
 128 0 l 1
 128 60 122 105 114 134 c 0
 112 140 104 156 88 186 c 0
 74 219 62 249 51 282 c 0
 42 312 36 344 36 378 c 0
 38 414 50 446 70 478 c 0
 92 510 120 537 159 560 c 0
 196 579 240 590 290 590 c 0
286 286 m 0
 302 286 312 291 318 300 c 0
 327 309 330 318 330 330 c 0
 330 342 327 354 318 363 c 0
 312 370 302 375 286 375 c 0
 273 375 262 369 255 362 c 0
 246 352 243 342 243 330 c 0
 243 318 246 309 255 300 c 0
 262 291 273 286 286 286 c 0
EndSplineSet
EndChar
StartChar: uni0E15
Encoding: 181 3605 150
Width: 618
Flags: W
HStem: 0 21G<128 213 440 537> 376 70<276.816 291>
VStem: 34 84<361 378> 171 72<321.327 337> 330 70<332 336> 440 97<0 416>
Fore
537 0 m 1
 440 0 l 1
 440 405 l 2
 440 438 434 460 426 474 c 0
 417 488 405 500 390 508 c 1
 302 474 l 1
 210 508 l 1
 148 477 118 430 118 375 c 0
 118 334 134 282 166 218 c 0
 178 194 184 172 190 154 c 0
 194 138 195 126 195 120 c 1
 207 135 218 153 230 171 c 0
 238 186 250 204 262 220 c 1
 237 222 218 234 198 256 c 0
 180 278 171 304 171 334 c 0
 171 366 182 392 204 414 c 0
 225 435 252 446 286 446 c 0
 322 446 350 435 368 416 c 0
 387 393 400 366 400 332 c 0
 402 296 390 261 369 232 c 2
 213 0 l 1
 128 0 l 1
 128 60 122 105 114 134 c 0
 112 135 104 154 88 186 c 0
 70 219 57 250 48 282 c 0
 39 310 34 342 34 378 c 0
 36 426 56 470 93 508 c 0
 129 548 168 574 210 586 c 1
 302 548 l 1
 394 588 l 1
 453 560 490 532 508 506 c 0
 526 480 537 441 537 392 c 2
 537 0 l 1
286 286 m 0
 302 286 312 291 318 300 c 0
 327 309 330 318 330 332 c 0
 330 344 327 356 318 364 c 0
 312 374 302 376 286 376 c 0
 273 376 262 370 255 363 c 0
 246 354 243 344 243 332 c 0
 243 321 246 309 255 300 c 0
 262 291 273 286 286 286 c 0
EndSplineSet
EndChar
StartChar: uni0E16
Encoding: 182 3606 151
Width: 624
Flags: W
HStem: -10 64<206 218> 0 21G<446 544> 153 65<208 220.484> 516 74<283 326>
VStem: 94 71<104 106> 94 101<104 295> 262 62<91.7568 107> 446 98<0 407>
Fore
195 218 m 1
 208 218 l 2
 244 218 273 206 292 183 c 0
 314 159 324 132 324 104 c 0
 324 74 314 46 292 24 c 0
 273 2 244 -10 208 -10 c 0
 174 -10 147 2 128 24 c 0
 105 46 94 70 94 104 c 2
 94 279 l 2
 94 312 99 338 106 356 c 0
 116 375 129 392 148 405 c 1
 141 408 128 414 108 418 c 0
 90 423 68 429 44 430 c 1
 44 462 l 1
 48 468 54 477 64 488 c 0
 75 500 92 513 114 531 c 0
 135 546 165 561 198 573 c 0
 231 585 270 590 314 590 c 0
 360 590 399 584 432 570 c 0
 466 555 494 534 513 506 c 0
 534 477 544 442 544 400 c 2
 544 0 l 1
 446 0 l 1
 446 392 l 2
 446 432 432 465 406 484 c 0
 380 507 346 516 304 516 c 0
 256 516 208 500 162 471 c 1
 168 470 174 468 184 466 c 0
 196 465 210 459 226 454 c 0
 244 447 261 440 276 428 c 1
 276 380 l 1
 258 380 240 375 222 363 c 0
 204 351 195 326 195 286 c 2
 195 218 l 1
218 54 m 0
 231 56 240 62 249 69 c 0
 258 78 262 90 262 102 c 0
 262 117 258 129 249 140 c 0
 240 147 226 153 208 153 c 0
 194 152 183 146 177 138 c 0
 168 129 165 117 165 104 c 0
 165 92 170 80 178 69 c 0
 186 60 200 54 218 54 c 0
EndSplineSet
EndChar
StartChar: uni0E17
Encoding: 183 3607 152
Width: 678
Flags: W
HStem: 0 21G<162 256 501 600> 360 68<126 146> 501 78<477 482> 518 68<144 146>
VStem: 30 70<463 482> 162 99<0 470> 188 73<463 482> 501 99<0 470>
DStem: 362 482 454 478 261 237 256 0
Fore
162 0 m 1
 162 362 l 1
 156 360 144 360 126 360 c 0
 96 363 74 376 56 399 c 0
 39 420 30 446 30 474 c 0
 30 506 40 532 62 555 c 0
 80 576 108 586 144 586 c 0
 182 586 210 574 231 552 c 0
 250 531 261 501 261 470 c 2
 261 237 l 1
 362 482 l 2
 376 519 390 544 404 560 c 0
 417 573 442 579 480 579 c 0
 534 579 568 568 579 544 c 0
 594 520 600 486 600 442 c 2
 600 0 l 1
 501 0 l 1
 501 435 l 2
 501 460 500 480 498 488 c 0
 496 496 490 500 482 501 c 0
 472 501 466 498 462 494 c 0
 458 488 456 483 454 478 c 2
 256 0 l 1
 162 0 l 1
144 428 m 0
 159 428 170 432 177 441 c 0
 184 448 188 459 188 472 c 0
 188 484 184 496 177 506 c 0
 170 513 159 518 144 518 c 0
 130 518 120 512 112 504 c 0
 104 495 100 484 100 472 c 0
 100 460 104 448 112 441 c 0
 120 432 130 428 144 428 c 0
EndSplineSet
EndChar
StartChar: uni0E18
Encoding: 184 3608 153
Width: 537
Flags: W
HStem: 0 88<54 332> 396 69<94 139> 474 75<425 443> 516 72<217 241>
VStem: 126 98<88 357> 357 99<112.328 305>
Fore
132 465 m 1
 138 465 142 465 147 466 c 0
 154 466 168 466 190 466 c 0
 290 466 364 447 412 410 c 0
 441 387 456 344 456 282 c 2
 456 110 l 2
 456 64 447 34 432 21 c 0
 417 8 382 0 332 0 c 2
 54 0 l 1
 54 88 l 1
 126 88 l 1
 126 357 l 1
 224 357 l 1
 224 88 l 1
 312 88 l 2
 334 88 346 92 351 96 c 0
 356 104 357 117 357 138 c 2
 357 284 l 2
 357 302 356 318 352 330 c 0
 350 342 339 354 324 366 c 0
 312 376 284 382 238 388 c 0
 194 393 146 396 94 396 c 0
 63 396 40 396 26 394 c 1
 26 454 l 1
 46 490 74 520 108 548 c 0
 144 574 188 588 237 588 c 0
 273 588 310 582 351 570 c 0
 392 556 418 549 430 549 c 0
 448 549 471 555 494 566 c 1
 516 494 l 1
 488 482 460 474 435 474 c 0
 414 474 381 482 338 495 c 0
 291 508 256 516 226 516 c 0
 200 516 178 508 162 496 c 0
 147 484 138 472 132 465 c 1
EndSplineSet
EndChar
StartChar: uni0E19
Encoding: 185 3609 154
Width: 669
Flags: W
HStem: -12 74<537 556> 0 21G<156 250> 363 67<138 150> 520 70<138 156>
VStem: 27 72<477 488> 156 99<0 488> 186 69<467 488> 444 99<81 190 261 576> 585 67<108 122>
Fore
444 576 m 1
 543 576 l 1
 543 262 l 1
 578 256 604 238 624 212 c 0
 642 184 654 153 652 114 c 0
 652 76 640 46 618 24 c 0
 597 0 570 -12 537 -12 c 0
 512 -12 492 -4 472 10 c 0
 454 26 444 50 444 81 c 2
 444 190 l 1
 400 177 360 148 322 110 c 0
 284 70 260 34 250 0 c 1
 156 0 l 1
 156 364 l 1
 154 364 153 364 148 364 c 0
 147 363 144 363 141 363 c 0
 105 363 78 375 57 399 c 0
 38 420 27 447 27 477 c 0
 27 507 38 534 57 556 c 0
 78 578 105 590 141 590 c 0
 172 590 198 582 220 562 c 0
 243 543 255 518 255 488 c 2
 255 147 l 1
 276 177 303 200 339 220 c 0
 374 238 408 255 444 262 c 1
 444 576 l 1
142 430 m 0
 158 430 168 435 177 444 c 0
 183 453 186 462 186 477 c 0
 186 488 183 500 177 508 c 0
 168 518 158 520 142 520 c 0
 129 520 118 516 110 507 c 0
 102 498 99 488 99 477 c 0
 99 465 102 453 110 444 c 0
 118 435 129 430 142 430 c 0
585 122 m 0
 585 141 582 156 573 168 c 0
 564 180 555 186 543 190 c 1
 543 82 l 1
 544 68 548 62 556 62 c 0
 561 63 566 66 572 70 c 0
 574 78 578 87 582 96 c 0
 584 105 585 114 585 122 c 0
EndSplineSet
EndChar
StartChar: uni0E1A
Encoding: 186 3610 155
Width: 642
Flags: W
HStem: 0 88<70 415> 360 68<108 130> 518 68<128 130>
VStem: 14 68<463 481> 146 98<88 470> 171 73<463 481> 460 101<127 576>
Fore
146 88 m 1
 146 362 l 1
 140 360 128 360 108 360 c 0
 80 363 56 376 39 399 c 0
 22 420 14 446 14 474 c 0
 14 494 16 512 26 531 c 0
 34 548 46 561 64 572 c 0
 81 582 102 586 128 586 c 0
 165 586 194 574 213 552 c 0
 234 531 244 501 244 470 c 2
 244 88 l 1
 408 88 l 2
 430 88 446 92 453 99 c 0
 458 104 460 117 460 138 c 2
 460 576 l 1
 561 576 l 1
 561 112 l 2
 561 68 549 39 525 24 c 0
 500 9 460 0 408 0 c 2
 70 0 l 1
 70 88 l 1
 146 88 l 1
128 428 m 0
 141 428 152 432 159 441 c 0
 168 448 171 459 171 472 c 0
 171 484 168 496 159 506 c 0
 152 513 141 518 128 518 c 0
 114 518 104 512 94 504 c 0
 87 495 82 484 82 472 c 0
 82 460 87 448 94 441 c 0
 104 432 114 428 128 428 c 0
EndSplineSet
EndChar
StartChar: uni0E1B
Encoding: 187 3611 156
Width: 642
Flags: W
HStem: 0 88<70 415> 360 68<108 130> 518 68<128 130> 781 20G<460 561>
VStem: 14 68<463 481> 146 98<88 470> 171 73<463 481> 460 101<127 801>
Fore
146 88 m 1
 146 362 l 1
 140 360 128 360 108 360 c 0
 80 363 56 376 39 399 c 0
 22 420 14 446 14 474 c 0
 14 494 16 512 26 531 c 0
 34 548 46 561 64 572 c 0
 81 582 102 586 128 586 c 0
 165 586 194 574 213 552 c 0
 234 531 244 501 244 470 c 2
 244 88 l 1
 408 88 l 2
 430 88 446 92 453 99 c 0
 458 104 460 117 460 138 c 2
 460 801 l 1
 561 801 l 1
 561 112 l 2
 561 68 549 39 525 24 c 0
 500 9 460 0 408 0 c 2
 70 0 l 1
 70 88 l 1
 146 88 l 1
128 428 m 0
 141 428 152 432 159 441 c 0
 168 448 171 459 171 472 c 0
 171 484 168 496 159 506 c 0
 152 513 141 518 128 518 c 0
 114 518 104 512 94 504 c 0
 87 495 82 484 82 472 c 0
 82 460 87 448 94 441 c 0
 104 432 114 428 128 428 c 0
EndSplineSet
EndChar
StartChar: uni0E1C
Encoding: 188 3612 157
Width: 633
Flags: W
HStem: 0 21G<81 174 456 552> 360 68<192 218> 518 68<198 209>
VStem: 81 73<0 481> 81 93<0 24.7158> 81 99<0 362> 243 69<463 481> 456 96<0 22.159 195 576>
DStem: 316 336 315 226 180 195 207 106
Fore
174 0 m 1
 81 0 l 1
 81 470 l 2
 81 501 92 531 112 552 c 0
 132 574 160 586 198 586 c 0
 224 586 246 582 262 572 c 0
 278 561 291 548 300 531 c 0
 309 512 312 494 312 474 c 0
 312 446 303 420 286 399 c 0
 270 376 246 363 218 360 c 0
 198 360 186 360 180 362 c 1
 180 195 l 1
 316 336 l 1
 454 195 l 1
 454 576 l 1
 552 576 l 1
 552 0 l 1
 456 0 l 1
 456 46 444 81 422 106 c 2
 315 226 l 1
 207 106 l 2
 184 82 174 48 174 0 c 1
198 518 m 0
 184 518 174 512 166 504 c 0
 158 495 154 484 154 472 c 0
 154 460 158 448 166 441 c 0
 174 432 184 428 198 428 c 0
 212 428 222 432 231 441 c 0
 238 448 243 459 243 472 c 0
 243 484 238 496 231 506 c 0
 222 513 212 518 198 518 c 0
EndSplineSet
EndChar
StartChar: uni0E1D
Encoding: 189 3613 158
Width: 633
Flags: W
HStem: 0 21G<81 174 456 552> 360 68<192 218> 518 68<198 209> 781 20G<454 552>
VStem: 81 73<0 481> 81 93<0 24.7158> 81 99<0 362> 243 69<463 481> 456 96<0 22.159 195 801>
DStem: 316 336 315 226 180 195 207 106
Fore
174 0 m 1
 81 0 l 1
 81 470 l 2
 81 501 92 531 112 552 c 0
 132 574 160 586 198 586 c 0
 224 586 246 582 262 572 c 0
 278 561 291 548 300 531 c 0
 309 512 312 494 312 474 c 0
 312 446 303 420 286 399 c 0
 270 376 246 363 218 360 c 0
 198 360 186 360 180 362 c 1
 180 195 l 1
 316 336 l 1
 454 195 l 1
 454 801 l 1
 552 801 l 1
 552 0 l 1
 456 0 l 1
 456 46 444 81 422 106 c 2
 315 226 l 1
 207 106 l 2
 184 82 174 48 174 0 c 1
198 518 m 0
 184 518 174 512 166 504 c 0
 158 495 154 484 154 472 c 0
 154 460 158 448 166 441 c 0
 174 432 184 428 198 428 c 0
 212 428 222 432 231 441 c 0
 238 448 243 459 243 472 c 0
 243 484 238 496 231 506 c 0
 222 513 212 518 198 518 c 0
EndSplineSet
EndChar
StartChar: uni0E1E
Encoding: 190 3614 159
Width: 720
Flags: W
HStem: 0 21G<141 237 540 639> 360 68<105 126> 518 68<114.017 126>
VStem: 10 70<463 481> 141 99<0 470> 168 72<463 481> 540 99<0 14.8114 264 576>
DStem: 390 562 390 368 240 264 250 78
Fore
240 264 m 1
 390 562 l 1
 540 264 l 1
 540 576 l 1
 639 576 l 1
 639 0 l 1
 540 0 l 1
 540 9 538 21 537 38 c 0
 536 52 532 66 526 78 c 2
 390 368 l 1
 250 78 l 2
 246 66 243 52 240 38 c 0
 238 21 238 9 237 0 c 1
 141 0 l 1
 141 362 l 1
 135 360 123 360 105 360 c 0
 76 363 52 376 36 399 c 0
 18 420 10 446 10 474 c 0
 10 494 14 512 22 531 c 0
 30 548 44 561 62 572 c 0
 78 582 99 586 123 586 c 0
 160 586 190 574 210 552 c 0
 231 531 240 501 240 470 c 2
 240 264 l 1
123 428 m 0
 138 428 147 432 156 441 c 0
 165 448 168 459 168 472 c 0
 168 484 165 496 156 506 c 0
 147 513 138 518 123 518 c 0
 110 518 100 512 92 504 c 0
 82 495 80 484 80 472 c 0
 80 460 82 448 92 441 c 0
 100 432 110 428 123 428 c 0
EndSplineSet
EndChar
StartChar: uni0E1F
Encoding: 191 3615 160
Width: 720
Flags: W
HStem: 0 21G<141 237 540 639> 360 68<105 126> 518 68<114.017 126> 781 20G<540 639>
VStem: 10 70<463 481> 141 99<0 470> 168 72<463 481> 540 99<0 14.8114 264 801>
DStem: 390 562 390 368 240 264 250 78
Fore
240 264 m 1
 390 562 l 1
 540 264 l 1
 540 801 l 1
 639 801 l 1
 639 0 l 1
 540 0 l 1
 540 9 538 21 537 38 c 0
 536 52 532 66 526 78 c 2
 390 368 l 1
 250 78 l 2
 246 66 243 52 240 38 c 0
 238 21 238 9 237 0 c 1
 141 0 l 1
 141 362 l 1
 135 360 123 360 105 360 c 0
 76 363 52 376 36 399 c 0
 18 420 10 446 10 474 c 0
 10 494 14 512 22 531 c 0
 30 548 44 561 62 572 c 0
 78 582 99 586 123 586 c 0
 160 586 190 574 210 552 c 0
 231 531 240 501 240 470 c 2
 240 264 l 1
123 428 m 0
 138 428 147 432 156 441 c 0
 165 448 168 459 168 472 c 0
 168 484 165 496 156 506 c 0
 147 513 138 518 123 518 c 0
 110 518 100 512 92 504 c 0
 82 495 80 484 80 472 c 0
 80 460 82 448 92 441 c 0
 100 432 110 428 123 428 c 0
EndSplineSet
EndChar
StartChar: uni0E20
Encoding: 192 3616 161
Width: 678
Flags: W
HStem: 0 21G<498 597> 152 61<135 147> 152 64<124.596 144> 516 74<341 375>
VStem: 22 65<98 106> 184 64<98 106> 498 99<0 407>
Fore
135 216 m 0
 140 216 142 216 144 216 c 0
 146 213 146 213 147 213 c 1
 147 279 l 2
 147 312 153 338 160 356 c 0
 170 376 182 393 200 405 c 1
 192 408 178 414 159 418 c 0
 141 423 118 429 94 430 c 1
 94 462 l 1
 100 468 106 477 117 488 c 0
 128 500 144 513 166 531 c 0
 188 546 218 561 249 573 c 0
 284 585 322 590 366 590 c 0
 410 590 448 584 484 568 c 0
 520 555 548 532 566 504 c 0
 586 474 597 440 597 400 c 2
 597 0 l 1
 498 0 l 1
 498 392 l 2
 498 432 484 465 459 484 c 0
 432 507 399 516 357 516 c 0
 336 516 310 512 285 504 c 0
 260 496 237 486 216 471 c 1
 225 470 243 466 264 459 c 0
 286 454 308 442 328 428 c 1
 328 380 l 1
 312 380 296 375 276 363 c 0
 258 351 248 326 248 286 c 2
 248 104 l 2
 248 69 237 42 219 22 c 0
 200 0 172 -10 135 -12 c 1
 100 -10 70 0 52 22 c 0
 32 44 22 69 22 100 c 0
 22 132 32 159 52 182 c 0
 70 204 100 216 135 216 c 0
135 52 m 0
 152 52 165 57 172 68 c 0
 182 76 184 88 184 102 c 0
 184 134 168 152 135 152 c 0
 120 152 108 146 100 138 c 0
 92 128 87 116 87 102 c 0
 87 90 92 78 100 68 c 0
 108 57 120 52 135 52 c 0
EndSplineSet
EndChar
StartChar: uni0E21
Encoding: 193 3617 162
Width: 652
Flags: W
HStem: 0 21G<477 572> 360 68<156 158 156 170> 518 68<156 167>
VStem: 46 74<112 122> 170 98<80 184 265 484> 200 68<467 484> 472 100<156 576>
Fore
472 576 m 1
 572 576 l 1
 572 0 l 1
 477 0 l 1
 471 21 459 44 441 70 c 0
 422 99 396 122 366 144 c 0
 336 166 303 180 268 184 c 1
 268 88 l 2
 268 56 260 30 240 15 c 0
 222 -2 200 -12 177 -12 c 0
 138 -14 105 0 81 24 c 0
 60 46 46 76 46 114 c 0
 44 156 57 192 80 220 c 0
 104 249 134 264 170 266 c 1
 170 362 l 1
 165 362 l 0
 162 360 159 360 156 360 c 0
 120 360 93 370 74 393 c 0
 52 416 42 442 42 472 c 0
 42 506 52 532 70 555 c 0
 92 576 120 586 156 586 c 0
 186 586 213 576 236 558 c 0
 258 538 268 513 268 484 c 2
 268 264 l 1
 327 256 375 240 408 216 c 0
 441 192 462 171 472 156 c 1
 472 576 l 1
156 428 m 0
 170 428 180 432 188 441 c 0
 196 448 200 459 200 472 c 0
 200 484 196 496 188 506 c 0
 180 513 170 518 156 518 c 0
 142 518 132 512 123 504 c 0
 116 495 112 484 112 472 c 0
 112 460 116 448 123 441 c 0
 132 432 142 428 156 428 c 0
170 190 m 1
 154 188 142 182 134 170 c 0
 126 158 120 141 120 122 c 0
 120 84 132 64 156 63 c 0
 165 63 170 69 170 82 c 2
 170 190 l 1
EndSplineSet
EndChar
StartChar: uni0E22
Encoding: 194 3618 163
Width: 604
Flags: W
HStem: 0 88<180 400> 369 69<223 230> 519 69<223 230>
VStem: 81 99<0 145> 268 66<468.206 487> 423 101<127 576>
Fore
162 276 m 1
 135 285 114 303 96 330 c 0
 78 357 69 388 69 420 c 0
 69 444 74 466 81 484 c 0
 93 519 112 544 138 562 c 0
 162 579 194 588 225 588 c 0
 258 588 285 578 303 558 c 0
 324 536 334 510 334 480 c 0
 334 448 324 423 304 402 c 0
 286 380 260 369 225 369 c 0
 208 369 192 375 177 381 c 1
 160 386 154 390 154 392 c 1
 154 392 154 392 156 392 c 1
 156 368 171 350 201 334 c 0
 232 318 262 312 292 310 c 1
 292 237 l 1
 250 237 222 230 206 212 c 0
 188 196 180 172 180 141 c 2
 180 88 l 1
 370 88 l 2
 393 88 408 92 416 99 c 0
 420 104 423 117 423 138 c 2
 423 576 l 1
 524 576 l 1
 524 110 l 2
 524 64 516 34 500 21 c 0
 483 8 448 0 400 0 c 2
 81 0 l 1
 81 141 l 2
 81 174 88 201 100 222 c 0
 112 243 123 256 135 264 c 0
 147 272 158 274 162 276 c 1
226 438 m 0
 240 438 250 441 258 448 c 0
 264 458 268 466 268 478 c 0
 268 490 264 498 258 507 c 0
 250 516 240 519 226 519 c 0
 213 519 204 516 196 507 c 0
 188 498 184 488 184 478 c 0
 184 468 188 459 196 452 c 0
 204 442 213 438 226 438 c 0
EndSplineSet
EndChar
StartChar: uni0E23
Encoding: 195 3619 164
Width: 526
Flags: W
HStem: -8 71<321 339> 152 70<327 339> 410 64<18 129> 480 75<417 435> 520 74<209 228>
VStem: 213 71<94.0134 113> 374 73<103 112>
Fore
447 285 m 2
 447 110 l 2
 447 76 435 50 414 27 c 0
 390 4 362 -8 327 -8 c 0
 291 -8 262 4 244 27 c 0
 224 50 213 76 213 106 c 0
 213 138 224 165 244 186 c 0
 264 208 291 220 327 222 c 0
 336 222 342 222 348 220 c 1
 348 285 l 2
 348 303 346 318 342 330 c 0
 339 342 328 356 314 368 c 0
 303 376 285 382 256 390 c 0
 226 394 190 400 144 405 c 0
 100 408 57 410 18 410 c 1
 18 462 l 1
 38 498 63 530 99 555 c 0
 132 579 174 594 226 594 c 0
 262 594 302 586 344 574 c 0
 387 561 414 555 429 555 c 0
 448 555 471 560 494 572 c 1
 516 498 l 1
 486 486 459 480 430 480 c 0
 405 480 370 486 326 500 c 0
 279 513 244 520 218 520 c 0
 190 520 170 516 156 504 c 0
 142 492 134 483 129 474 c 1
 258 474 350 454 402 412 c 0
 432 387 447 344 447 285 c 2
328 63 m 0
 342 63 352 66 362 75 c 0
 369 82 374 94 374 106 c 0
 374 118 369 130 363 140 c 0
 354 147 344 152 328 152 c 0
 314 152 303 146 296 138 c 0
 286 129 284 118 284 106 c 0
 284 94 286 84 296 76 c 0
 303 68 315 63 328 63 c 0
EndSplineSet
EndChar
StartChar: uni0E24
Encoding: 196 3620 165
Width: 624
Flags: W
HStem: -10 64<208 210> 153 65<195 221> 516 74<283 326>
VStem: 94 66<104 106> 94 101<104 293> 258 66<104 106> 446 98<-300 407>
Fore
195 218 m 1
 208 218 l 2
 244 218 273 206 292 183 c 0
 314 159 324 132 324 104 c 0
 324 74 314 46 292 24 c 0
 273 2 244 -10 208 -10 c 0
 174 -10 147 2 128 24 c 0
 105 46 94 70 94 104 c 2
 94 279 l 2
 94 312 99 338 106 356 c 0
 116 375 129 392 148 405 c 1
 141 408 128 414 108 418 c 0
 90 423 68 429 44 430 c 1
 44 462 l 1
 48 468 54 477 64 488 c 0
 75 500 92 513 114 531 c 0
 135 546 165 561 198 573 c 0
 231 585 270 590 314 590 c 0
 360 590 399 584 432 570 c 0
 466 555 494 534 513 506 c 0
 534 477 544 442 544 400 c 2
 544 -300 l 1
 446 -300 l 1
 446 392 l 2
 446 432 432 465 406 484 c 0
 380 507 346 516 304 516 c 0
 256 516 208 500 162 471 c 1
 168 470 174 468 184 466 c 0
 196 465 210 459 226 454 c 0
 244 447 261 440 276 428 c 1
 276 380 l 1
 258 380 240 375 222 363 c 0
 204 351 195 326 195 286 c 2
 195 218 l 1
208 54 m 0
 224 54 237 60 246 69 c 0
 255 78 258 90 258 104 c 0
 258 135 240 153 208 153 c 0
 194 153 182 147 174 140 c 0
 166 129 160 117 160 104 c 0
 160 92 166 80 174 69 c 0
 183 60 194 54 208 54 c 0
EndSplineSet
EndChar
StartChar: uni0E25
Encoding: 197 3621 166
Width: 600
Flags: W
HStem: -12 68<196.438 207> 0 21G<420 520> 513 75<276 293>
VStem: 81 84<210 238.822> 249 69<102 108> 420 100<256 412>
Fore
206 -12 m 0
 171 -12 144 -2 122 18 c 0
 100 39 87 63 84 92 c 0
 81 130 81 182 81 240 c 1
 87 290 100 330 126 363 c 0
 148 394 182 412 224 412 c 0
 268 414 303 402 332 380 c 0
 362 357 381 334 396 304 c 0
 410 276 418 261 420 256 c 1
 420 394 l 2
 420 434 408 462 382 483 c 0
 357 504 322 513 276 513 c 0
 237 513 206 506 177 486 c 0
 147 468 126 446 108 423 c 1
 52 472 l 1
 70 504 100 530 140 552 c 0
 177 574 222 588 276 588 c 0
 346 588 405 572 452 537 c 0
 496 504 520 456 520 396 c 2
 520 0 l 1
 420 0 l 1
 414 36 402 78 387 130 c 0
 369 183 348 232 321 274 c 0
 292 316 262 339 230 338 c 0
 186 336 165 291 165 210 c 1
 170 212 174 212 182 213 c 0
 188 216 196 216 206 216 c 0
 240 213 270 204 288 184 c 0
 308 165 318 138 318 105 c 0
 321 70 309 44 288 22 c 0
 270 0 240 -10 206 -12 c 0
206 56 m 0
 220 56 231 62 238 69 c 0
 246 78 249 88 249 102 c 0
 249 114 246 126 238 134 c 0
 231 142 220 146 206 146 c 0
 190 146 180 141 172 132 c 0
 165 123 160 114 160 102 c 0
 160 90 165 80 172 70 c 0
 182 62 192 56 206 56 c 0
EndSplineSet
EndChar
StartChar: uni0E26
Encoding: 198 3622 167
Width: 678
Flags: W
HStem: 152 61<135 147> 152 64<124.596 144> 516 74<341 375>
VStem: 22 65<98 106> 184 64<98 106> 498 99<-300 407>
Fore
135 216 m 0
 140 216 142 216 144 216 c 0
 146 213 146 213 147 213 c 1
 147 279 l 2
 147 312 153 338 160 356 c 0
 170 376 182 393 200 405 c 1
 192 408 178 414 159 418 c 0
 141 423 118 429 94 430 c 1
 94 462 l 1
 100 468 106 477 117 488 c 0
 128 500 144 513 166 531 c 0
 188 546 218 561 249 573 c 0
 284 585 322 590 366 590 c 0
 410 590 448 584 484 568 c 0
 520 555 548 532 566 504 c 0
 586 474 597 440 597 400 c 2
 597 -300 l 1
 498 -300 l 1
 498 392 l 2
 498 432 484 465 459 484 c 0
 432 507 399 516 357 516 c 0
 336 516 310 512 285 504 c 0
 260 496 237 486 216 471 c 1
 225 470 243 466 264 459 c 0
 286 454 308 442 328 428 c 1
 328 380 l 1
 312 380 296 375 276 363 c 0
 258 351 248 326 248 286 c 2
 248 104 l 2
 248 69 237 42 219 22 c 0
 200 0 172 -10 135 -12 c 1
 100 -10 70 0 52 22 c 0
 32 44 22 69 22 100 c 0
 22 132 32 159 52 182 c 0
 70 204 100 216 135 216 c 0
135 52 m 0
 152 52 165 57 172 68 c 0
 182 76 184 88 184 102 c 0
 184 134 168 152 135 152 c 0
 120 152 108 146 100 138 c 0
 92 128 87 116 87 102 c 0
 87 90 92 78 100 68 c 0
 108 57 120 52 135 52 c 0
EndSplineSet
EndChar
StartChar: uni0E27
Encoding: 199 3623 168
Width: 541
Flags: W
HStem: -12 68<336.466 349> 146 70<334.814 349> 508 82<204.41 237>
VStem: 231 71<102 108> 363 97<213 412> 390 70<99 109>
Fore
346 216 m 0
 352 216 357 216 363 213 c 1
 363 392 l 2
 363 434 351 462 326 480 c 0
 300 498 268 508 230 508 c 0
 162 510 108 477 63 410 c 1
 -4 462 l 1
 16 498 48 530 87 555 c 0
 126 578 172 590 231 590 c 0
 303 590 362 573 402 537 c 0
 441 501 460 454 460 393 c 2
 460 105 l 2
 460 74 452 44 429 22 c 0
 406 0 380 -12 346 -12 c 0
 310 -12 282 0 261 22 c 0
 240 44 230 74 231 106 c 0
 231 138 244 162 264 184 c 0
 285 206 312 216 346 216 c 0
346 56 m 0
 362 56 370 62 380 69 c 0
 387 78 390 88 390 102 c 0
 390 114 387 126 380 134 c 0
 370 142 362 146 346 146 c 0
 330 146 321 141 314 132 c 0
 304 123 302 114 302 102 c 0
 302 90 304 80 314 70 c 0
 322 62 332 56 346 56 c 0
EndSplineSet
EndChar
StartChar: uni0E28
Encoding: 200 3624 169
Width: 619
Flags: W
HStem: 0 21G<134 234 441 538> 376 71<282 296> 516 80<278 296>
VStem: 39 84<365 396> 134 100<0 226> 326 68<332 342.469> 441 97<0 394>
Fore
472 536 m 0
 474 536 480 544 490 561 c 0
 498 578 507 597 512 618 c 1
 597 579 l 1
 591 556 582 532 566 510 c 0
 550 486 538 470 526 459 c 1
 530 454 532 447 534 438 c 0
 537 428 538 412 538 392 c 2
 538 0 l 1
 441 0 l 1
 441 368 l 1
 441 394 l 1
 423 382 406 376 388 370 c 1
 390 369 390 364 392 357 c 0
 393 351 394 342 394 332 c 0
 393 300 382 273 364 250 c 0
 346 230 316 219 282 218 c 0
 276 218 266 219 255 220 c 0
 240 224 234 225 234 226 c 2
 234 0 l 1
 134 0 l 1
 134 100 l 2
 134 126 130 148 122 170 c 0
 114 190 102 213 87 240 c 0
 70 268 60 291 51 312 c 0
 42 332 39 356 39 386 c 0
 40 430 54 470 78 500 c 0
 100 531 130 555 170 570 c 0
 207 585 246 594 288 596 c 0
 312 596 336 594 360 588 c 0
 382 584 405 574 426 564 c 0
 447 555 462 544 472 536 c 0
348 428 m 1
 360 428 370 432 386 442 c 0
 396 452 406 459 414 465 c 1
 400 482 381 495 357 504 c 0
 332 512 308 516 278 516 c 0
 238 513 204 501 172 477 c 0
 141 452 123 420 123 381 c 0
 123 360 129 339 138 316 c 0
 144 297 147 286 148 286 c 1
 148 286 148 286 148 288 c 0
 148 314 158 348 174 387 c 0
 190 426 225 446 282 447 c 0
 302 447 316 446 327 441 c 0
 338 435 344 430 348 428 c 1
282 286 m 0
 297 286 308 291 315 300 c 0
 322 309 326 318 326 332 c 0
 326 344 322 356 315 364 c 0
 308 374 297 376 282 376 c 0
 268 376 258 370 249 363 c 0
 240 354 237 344 237 332 c 0
 237 321 240 309 249 300 c 0
 258 291 268 286 282 286 c 0
EndSplineSet
EndChar
StartChar: uni0E29
Encoding: 201 3625 170
Width: 655
Flags: W
HStem: 0 88<84 440> 196 64<438 477> 356 52<369 371> 360 68<123 143> 518 68<141 143>
VStem: 27 69<463 481> 159 99<88 470> 184 74<463 481> 278 58<317 332> 404 54<324 332> 477 97<127 219 261 576>
Fore
704 417 m 1
 704 386 699 356 688 332 c 0
 678 308 666 288 651 273 c 0
 638 258 622 246 608 237 c 0
 591 230 579 222 574 219 c 1
 574 112 l 2
 574 68 562 39 538 24 c 0
 516 9 477 0 422 0 c 2
 84 0 l 1
 84 88 l 1
 159 88 l 1
 159 362 l 1
 153 360 141 360 123 360 c 0
 94 363 70 376 54 399 c 0
 36 420 27 446 27 474 c 0
 27 506 38 532 57 555 c 0
 76 576 105 586 141 586 c 0
 180 586 208 576 226 555 c 0
 248 532 258 504 258 470 c 2
 258 88 l 1
 426 88 l 2
 447 88 462 92 468 99 c 0
 472 104 477 117 477 138 c 2
 477 196 l 1
 414 196 368 206 339 220 c 1
 316 236 302 248 292 260 c 0
 285 272 279 291 278 318 c 0
 278 340 285 362 300 380 c 0
 315 399 338 408 369 408 c 0
 394 408 417 400 432 386 c 0
 447 368 458 348 458 324 c 0
 459 297 452 274 438 260 c 1
 459 260 471 260 477 261 c 1
 477 576 l 1
 574 576 l 1
 574 297 l 1
 603 312 618 351 618 417 c 1
 704 417 l 1
369 290 m 0
 381 290 390 292 394 300 c 0
 400 308 404 315 404 324 c 0
 404 332 400 340 393 348 c 0
 388 352 380 356 369 356 c 0
 360 356 351 352 346 346 c 0
 339 339 336 332 336 324 c 0
 336 315 339 309 346 300 c 0
 351 292 357 290 369 290 c 0
141 428 m 0
 156 428 166 432 174 441 c 0
 182 448 184 459 184 472 c 0
 184 484 182 496 174 506 c 0
 166 513 156 518 141 518 c 0
 128 518 117 512 108 504 c 0
 100 495 96 484 96 472 c 0
 96 460 100 448 108 441 c 0
 117 432 128 428 141 428 c 0
EndSplineSet
EndChar
StartChar: uni0E2A
Encoding: 202 3626 171
Width: 600
Flags: W
HStem: -12 68<196.438 207> 0 21G<420 520> 513 75<276 293>
VStem: 81 84<210 238.822> 249 69<102 108> 420 100<256 320.875 338 418>
Fore
206 56 m 0
 220 56 231 62 238 69 c 0
 246 78 249 88 249 102 c 0
 249 114 246 126 238 134 c 0
 231 142 220 146 206 146 c 0
 190 146 180 141 172 132 c 0
 165 123 160 114 160 102 c 0
 160 90 165 80 172 70 c 0
 182 62 192 56 206 56 c 0
380 477 m 1
 356 501 322 513 276 513 c 0
 237 513 206 506 177 486 c 0
 147 468 126 446 108 423 c 1
 52 472 l 1
 70 504 100 530 140 552 c 0
 177 574 222 588 276 588 c 0
 328 588 376 578 418 556 c 0
 422 556 432 573 448 604 c 0
 465 638 474 654 478 654 c 0
 483 652 495 646 516 634 c 0
 536 622 549 614 555 608 c 1
 549 598 536 579 518 552 c 0
 498 524 488 508 488 504 c 1
 500 492 508 477 513 459 c 0
 519 444 520 422 520 396 c 2
 520 0 l 1
 420 0 l 1
 414 36 402 78 387 130 c 0
 369 183 348 232 321 274 c 0
 292 316 262 339 230 338 c 0
 186 336 165 291 165 210 c 1
 170 212 174 212 182 213 c 0
 188 216 196 216 206 216 c 0
 240 213 270 204 288 184 c 0
 308 165 318 138 318 105 c 0
 321 70 309 44 288 22 c 0
 270 0 240 -10 206 -12 c 0
 171 -12 144 -2 122 18 c 0
 100 39 87 63 84 92 c 0
 81 130 81 182 81 240 c 1
 87 290 100 330 126 363 c 0
 148 394 182 412 224 412 c 0
 268 414 303 404 328 388 c 0
 330 388 339 404 354 432 c 0
 369 460 378 477 380 477 c 1
417 418 m 1
 414 408 406 394 396 378 c 0
 386 362 380 351 380 350 c 0
 390 336 399 321 405 302 c 0
 412 284 417 268 420 256 c 1
 420 284 420 310 418 338 c 0
 418 364 418 392 417 418 c 1
EndSplineSet
EndChar
StartChar: uni0E2B
Encoding: 203 3627 172
Width: 654
Flags: W
HStem: 0 21G<138 234 472 573> 342 87<446 462> 360 68<102 120> 518 68<118 120 460 474>
VStem: 4 71<463 481> 138 96<0 33 0 470> 162 74<463 481> 348 70<474 481> 472 101<0 289> 507 69<474 481>
Fore
236 264 m 1
 258 300 284 328 312 351 c 0
 340 374 362 387 376 394 c 1
 357 417 348 444 348 474 c 0
 348 508 357 536 378 558 c 0
 399 578 429 588 468 588 c 0
 501 588 530 578 548 556 c 0
 566 534 576 507 576 474 c 0
 576 432 561 402 532 381 c 1
 538 380 548 369 558 354 c 0
 568 339 573 312 573 273 c 2
 573 0 l 1
 472 0 l 1
 472 273 l 2
 472 302 470 321 462 328 c 0
 456 338 452 342 446 342 c 1
 381 309 330 261 291 198 c 0
 252 135 234 76 234 22 c 2
 234 0 l 1
 138 0 l 1
 138 362 l 1
 132 360 120 360 102 360 c 0
 74 363 50 376 32 399 c 0
 14 420 4 446 4 474 c 0
 4 506 15 532 36 555 c 0
 54 576 82 586 118 586 c 0
 158 586 186 576 207 555 c 0
 225 532 236 504 236 470 c 2
 236 264 l 1
462 429 m 0
 478 429 488 434 495 442 c 0
 504 452 507 460 507 474 c 0
 507 486 504 498 495 507 c 0
 488 516 478 519 462 519 c 0
 448 519 440 513 430 506 c 0
 422 496 418 486 418 474 c 0
 418 462 422 452 430 442 c 0
 440 434 448 429 462 429 c 0
118 428 m 0
 134 428 144 432 152 441 c 0
 159 448 162 459 162 472 c 0
 162 484 159 496 152 506 c 0
 144 513 134 518 118 518 c 0
 105 518 94 512 87 504 c 0
 78 495 75 484 75 472 c 0
 75 460 78 448 87 441 c 0
 94 432 105 428 118 428 c 0
EndSplineSet
EndChar
StartChar: uni0E2C
Encoding: 204 3628 173
Width: 723
Flags: W
HStem: 0 21G<146 240 544 642> 360 68<108 130> 459 67<532 544> 518 68<128 130> 603 67<540 546>
VStem: 14 68<463 481> 146 94<0 10.8758> 146 98<0 470> 171 73<460 483> 434 70<563 574> 544 98<0 17.2465 250 482>
Fore
642 482 m 1
 642 0 l 1
 544 0 l 1
 544 9 543 21 540 38 c 0
 538 52 537 66 531 78 c 2
 393 336 l 1
 256 78 l 2
 250 69 248 56 246 38 c 0
 243 21 240 9 240 0 c 1
 146 0 l 1
 146 362 l 1
 140 360 128 360 108 360 c 0
 80 363 56 376 39 399 c 0
 22 420 14 446 14 474 c 0
 14 494 16 512 26 531 c 0
 34 548 46 561 64 572 c 0
 81 582 102 586 128 586 c 0
 165 586 194 574 213 552 c 0
 234 531 244 501 244 470 c 2
 244 250 l 1
 393 507 l 1
 544 250 l 1
 544 459 l 1
 512 459 486 470 466 490 c 0
 446 508 435 534 434 564 c 0
 434 596 444 621 462 640 c 0
 482 662 508 670 540 670 c 0
 582 670 609 660 624 636 c 0
 638 612 644 594 646 578 c 1
 662 590 674 614 681 650 c 1
 756 615 l 1
 752 591 742 570 728 550 c 0
 712 532 696 516 680 504 c 0
 664 492 651 483 642 482 c 1
540 526 m 0
 552 526 561 531 568 538 c 1
 576 546 579 555 579 566 c 0
 579 576 576 585 570 594 c 0
 562 600 552 603 540 603 c 0
 530 603 520 600 513 594 c 0
 507 585 504 576 504 566 c 0
 504 556 507 548 513 538 c 0
 522 531 531 526 540 526 c 0
128 428 m 0
 141 428 152 432 159 441 c 0
 168 448 171 459 171 472 c 0
 171 484 168 496 159 506 c 0
 152 513 141 518 128 518 c 0
 114 518 104 512 94 504 c 0
 87 495 82 484 82 472 c 0
 82 460 87 448 94 441 c 0
 104 432 114 428 128 428 c 0
EndSplineSet
EndChar
StartChar: uni0E2D
Encoding: 205 3629 174
Width: 607
Flags: W
HStem: 0 88<212.007 387> 178 70<193 211> 336 69<193 211> 510 80<257 291>
VStem: 81 77<110 295> 81 99<110 179> 246 69<282 294> 428 98<127 407>
Fore
180 180 m 1
 180 138 l 2
 180 117 183 104 188 99 c 0
 194 92 207 88 230 88 c 2
 375 88 l 2
 396 88 412 92 418 99 c 0
 423 104 428 117 428 138 c 2
 428 392 l 2
 428 470 376 508 276 510 c 0
 244 510 213 504 184 490 c 0
 156 474 130 456 112 432 c 1
 50 483 l 1
 69 512 100 537 140 560 c 0
 178 579 224 590 279 590 c 0
 360 590 420 573 462 538 c 0
 506 506 526 456 526 393 c 2
 526 114 l 2
 526 68 519 39 501 24 c 0
 484 9 453 0 404 0 c 2
 206 0 l 2
 171 0 146 3 129 9 c 0
 110 14 99 24 92 39 c 0
 84 54 81 78 81 110 c 2
 81 284 l 2
 81 316 92 346 114 369 c 0
 135 393 165 405 200 405 c 0
 225 405 248 400 264 388 c 0
 282 378 296 364 303 348 c 0
 312 330 315 312 315 292 c 0
 315 262 304 236 285 212 c 0
 264 190 236 178 200 178 c 0
 195 178 192 178 188 180 c 0
 184 180 182 180 180 180 c 1
201 248 m 0
 218 248 226 252 236 261 c 0
 243 270 246 279 246 291 c 0
 246 303 243 315 236 324 c 0
 226 332 218 336 201 336 c 0
 188 336 178 330 170 322 c 0
 160 314 158 303 158 291 c 0
 158 279 160 270 170 261 c 0
 178 252 188 248 201 248 c 0
EndSplineSet
EndChar
StartChar: uni0E2E
Encoding: 206 3630 175
Width: 607
Flags: W
HStem: 0 88<204 383> 144 69<187 200> 291 71<184 206> 386 61<234 288> 530 68<254 288>
VStem: 63 78<479 486> 81 77<237 256> 81 99<104 146> 236 68<250 255> 428 98<127 465>
Fore
602 546 m 1
 579 516 556 488 526 465 c 1
 526 114 l 2
 526 68 519 39 501 24 c 0
 484 9 453 0 404 0 c 2
 206 0 l 2
 171 0 146 3 129 9 c 0
 110 14 99 22 92 38 c 0
 84 52 81 76 81 106 c 2
 81 237 l 2
 81 273 92 302 112 326 c 0
 132 350 160 362 200 362 c 0
 231 362 256 351 274 330 c 0
 292 309 303 284 304 255 c 0
 304 225 297 198 278 177 c 0
 260 154 232 144 200 142 c 0
 196 142 194 142 190 144 c 0
 184 144 182 144 180 146 c 1
 180 118 l 2
 180 104 182 94 186 92 c 0
 192 90 206 88 230 88 c 2
 376 88 l 2
 399 88 414 92 418 99 c 0
 423 104 428 117 428 138 c 2
 428 416 l 1
 422 410 406 405 381 396 c 0
 356 388 316 386 261 386 c 0
 208 386 160 393 122 408 c 0
 82 423 63 447 63 482 c 0
 63 506 74 525 94 544 c 0
 116 562 141 576 171 585 c 0
 200 594 231 598 261 598 c 0
 321 598 368 590 404 574 c 0
 440 560 460 546 472 536 c 1
 482 544 501 566 532 604 c 1
 602 546 l 1
196 213 m 0
 208 213 219 218 225 225 c 0
 232 234 236 243 236 252 c 0
 236 262 232 272 225 279 c 0
 219 288 208 291 196 291 c 0
 184 291 174 288 168 282 c 0
 160 273 158 264 158 252 c 0
 158 243 160 234 170 225 c 0
 177 218 184 213 196 213 c 0
262 447 m 0
 304 446 340 453 366 460 c 0
 392 471 405 478 405 482 c 1
 399 490 386 498 363 510 c 0
 340 522 308 530 264 530 c 0
 237 530 210 525 182 518 c 0
 154 508 141 498 141 484 c 0
 141 462 182 448 262 447 c 0
EndSplineSet
EndChar
StartChar: uni0E2F
Encoding: 207 3631 176
Width: 576
Flags: W
HStem: 244 88<237 268> 360 68<183 201> 518 70<190 201>
VStem: 237 71<460.275 475> 396 99<167 324>
Fore
56 444 m 1
 64 538 108 586 192 588 c 0
 212 588 231 584 249 573 c 0
 268 562 282 549 291 531 c 0
 302 512 308 494 308 472 c 0
 308 441 297 414 276 392 c 0
 255 369 226 360 192 360 c 0
 186 360 182 360 177 362 c 0
 171 362 168 362 165 362 c 1
 172 342 207 332 268 332 c 1
 303 338 334 364 360 410 c 0
 386 456 399 512 399 576 c 1
 495 576 l 1
 495 180 l 2
 495 120 482 76 454 48 c 0
 426 18 375 -4 298 -24 c 1
 278 54 l 1
 316 68 344 80 360 88 c 0
 376 96 387 108 390 120 c 0
 394 134 396 156 396 186 c 2
 396 324 l 1
 388 303 369 285 340 270 c 0
 312 252 279 244 246 244 c 0
 237 244 224 246 208 248 c 0
 162 258 128 279 99 315 c 0
 69 351 56 393 56 444 c 1
194 428 m 0
 207 428 218 432 225 441 c 0
 234 448 237 459 237 472 c 0
 237 484 234 496 225 506 c 0
 218 513 207 518 194 518 c 0
 180 518 170 512 160 504 c 0
 153 495 148 484 148 472 c 0
 148 460 153 448 160 441 c 0
 170 432 180 428 194 428 c 0
EndSplineSet
EndChar
StartChar: uni0E30
Encoding: 208 3632 177
Width: 454
Flags: W
HStem: 0 82<144 184> 166 70<140 146> 340 82<144 184> 507 69<140 146>
VStem: 32 70<115.367 131 465 475.633> 184 71<124 128 463 466>
Fore
142 236 m 0
 177 236 204 225 224 206 c 0
 243 184 252 159 255 128 c 0
 255 120 252 112 250 104 c 0
 249 93 249 87 248 81 c 1
 261 82 278 93 298 112 c 0
 318 130 328 170 328 230 c 1
 423 230 l 1
 423 158 405 102 369 62 c 0
 332 21 272 0 184 0 c 0
 144 0 108 12 78 34 c 0
 48 56 32 87 32 126 c 0
 32 158 42 184 62 206 c 0
 80 225 106 236 142 236 c 0
142 576 m 0
 177 576 206 566 224 546 c 0
 244 524 252 498 255 466 c 0
 255 459 252 452 250 442 c 0
 249 432 249 426 248 420 c 1
 248 420 l 1
 250 420 260 423 272 429 c 0
 286 438 300 453 312 474 c 0
 324 496 328 526 328 568 c 1
 423 568 l 1
 423 520 417 480 402 447 c 0
 387 416 362 388 326 369 c 0
 290 351 244 340 184 340 c 0
 146 340 110 352 78 375 c 0
 46 396 28 426 30 465 c 0
 30 496 42 524 62 546 c 0
 80 566 106 576 142 576 c 0
144 82 m 0
 158 82 168 88 174 96 c 0
 182 105 184 114 184 126 c 0
 184 135 182 146 174 154 c 0
 168 162 158 166 144 166 c 0
 130 166 120 162 114 154 c 0
 105 146 102 135 102 126 c 0
 102 114 105 105 114 96 c 0
 120 88 130 82 144 82 c 0
144 422 m 0
 156 422 166 428 174 435 c 0
 182 444 184 453 184 465 c 0
 184 477 182 486 174 495 c 0
 168 504 158 507 144 507 c 0
 132 507 122 504 114 495 c 0
 105 486 102 477 102 465 c 0
 102 454 105 444 114 435 c 0
 122 428 132 422 144 422 c 0
EndSplineSet
EndChar
StartChar: uni0E31
Encoding: 209 3633 178
Width: 0
Flags: W
HStem: 682 78<-166 -146> 682 83<-174 -166> 860 68<-267 -262>
VStem: -376 72<809 827> -224 64<809 827>
Fore
-266 928 m 0
 -232 928 -207 916 -188 897 c 0
 -170 874 -160 849 -160 818 c 0
 -160 807 -162 796 -166 786 c 0
 -170 777 -172 770 -174 765 c 1
 -172 765 -170 765 -165 762 c 0
 -159 760 -154 760 -148 760 c 0
 -120 760 -90 771 -56 794 c 0
 -22 813 8 852 32 910 c 1
 116 882 l 1
 104 840 84 806 57 777 c 0
 28 747 -3 724 -42 706 c 0
 -81 692 -122 682 -166 682 c 0
 -183 682 -195 682 -204 686 c 0
 -249 690 -290 705 -324 728 c 0
 -360 748 -376 778 -376 818 c 0
 -376 849 -366 876 -348 897 c 0
 -328 918 -302 930 -266 928 c 0
-264 778 m 0
 -252 778 -243 782 -234 790 c 0
 -226 798 -224 807 -224 819 c 0
 -224 831 -226 838 -234 848 c 0
 -243 856 -252 860 -264 860 c 0
 -276 860 -286 856 -296 848 c 0
 -302 838 -304 831 -304 819 c 0
 -304 807 -302 798 -296 790 c 0
 -286 782 -276 778 -264 778 c 0
EndSplineSet
EndChar
StartChar: uni0E32
Encoding: 210 3634 179
Width: 501
Flags: W
HStem: 0 21G<322 420> 516 78<201 222>
VStem: 322 98<0 438>
Fore
10 438 m 1
 21 474 42 510 75 544 c 0
 106 576 156 594 222 594 c 0
 292 591 344 576 375 548 c 0
 405 519 420 474 420 418 c 2
 420 0 l 1
 322 0 l 1
 322 420 l 2
 322 483 285 516 212 516 c 0
 153 516 114 482 94 414 c 1
 10 438 l 1
EndSplineSet
EndChar
StartChar: uni0E33
Encoding: 211 3635 180
Width: 501
Flags: W
HStem: 0 21G<322 420> 516 78<204 222> 681 71<-180 -175> 840 70<-190.037 -175>
VStem: -291 71<796 801> -132 68<784.719 801> 322 98<0 438>
Fore
10 438 m 1
 21 474 42 510 75 544 c 0
 106 576 156 594 222 594 c 0
 292 591 344 576 375 548 c 0
 405 519 420 474 420 418 c 2
 420 0 l 1
 322 0 l 1
 322 420 l 2
 322 483 285 516 212 516 c 0
 153 516 114 482 94 414 c 1
 10 438 l 1
-178 910 m 0
 -142 910 -114 900 -94 878 c 0
 -75 856 -64 830 -64 796 c 0
 -64 765 -75 738 -94 716 c 0
 -116 693 -142 681 -178 681 c 0
 -213 681 -240 693 -261 716 c 0
 -282 738 -291 765 -291 796 c 0
 -291 830 -282 856 -261 878 c 0
 -243 900 -213 910 -178 910 c 0
-177 752 m 0
 -162 752 -153 756 -144 765 c 0
 -135 772 -132 784 -132 796 c 0
 -132 808 -135 820 -144 830 c 0
 -153 837 -162 840 -177 840 c 0
 -192 840 -201 837 -208 830 c 0
 -218 820 -220 808 -220 796 c 0
 -220 784 -218 772 -208 765 c 0
 -201 756 -192 752 -177 752 c 0
EndSplineSet
EndChar
StartChar: uni0E34
Encoding: 212 3636 181
Width: 0
Flags: W
HStem: 729 71<-388 -339>
Fore
-290 921 m 0
 -248 918 -212 908 -183 886 c 0
 -156 868 -135 844 -120 819 c 0
 -106 794 -96 766 -92 738 c 0
 -84 708 -80 687 -78 675 c 1
 -94 680 -120 688 -156 699 c 0
 -192 706 -234 716 -279 722 c 0
 -312 728 -350 729 -392 729 c 0
 -423 729 -453 728 -478 726 c 0
 -504 724 -522 722 -532 720 c 1
 -526 758 -513 792 -492 822 c 0
 -470 850 -442 874 -406 894 c 0
 -370 912 -332 921 -290 921 c 0
-290 852 m 1
 -321 852 -348 848 -370 836 c 0
 -394 824 -410 812 -416 796 c 1
 -410 798 -402 798 -388 800 c 0
 -376 800 -363 800 -348 800 c 0
 -332 800 -314 798 -288 796 c 0
 -255 794 -226 788 -208 783 c 0
 -188 777 -174 771 -168 768 c 1
 -194 818 -234 846 -290 852 c 1
EndSplineSet
EndChar
StartChar: uni0E35
Encoding: 213 3637 182
Width: 0
Flags: W
HStem: 732 72<-354 -303>
VStem: -135 87<884 986>
Fore
-255 924 m 0
 -222 924 -195 915 -177 908 c 0
 -156 897 -142 888 -135 884 c 1
 -135 986 l 1
 -48 986 l 1
 -48 752 l 1
 -44 752 -38 726 -27 675 c 1
 -46 680 -76 690 -118 702 c 0
 -160 714 -204 720 -243 726 c 0
 -274 730 -312 732 -354 732 c 0
 -380 732 -400 732 -417 730 c 0
 -468 726 l 0
 -484 724 -495 724 -496 724 c 1
 -492 760 -478 795 -456 825 c 0
 -434 856 -406 879 -370 897 c 0
 -336 915 -297 926 -255 924 c 0
-255 856 m 1
 -284 856 -310 850 -334 838 c 0
 -357 826 -374 813 -378 798 c 1
 -374 800 -364 800 -352 801 c 0
 -340 804 -326 804 -303 804 c 0
 -291 804 -274 801 -252 800 c 0
 -226 796 -207 794 -188 790 c 0
 -171 784 -158 782 -146 777 c 0
 -135 772 -130 771 -130 771 c 1
 -130 771 l 1
 -156 820 -196 848 -255 856 c 1
EndSplineSet
EndChar
StartChar: uni0E36
Encoding: 214 3638 183
Width: 0
Flags: W
HStem: 732 72<-402 -360> 856 68<-323 -303> 928 66<-184 -168>
VStem: -147 67<895 910>
Fore
-80 910 m 1
 -80 860 -94 826 -123 812 c 1
 -118 801 -110 784 -100 762 c 0
 -90 740 -82 710 -78 675 c 1
 -96 680 -128 690 -170 702 c 0
 -212 714 -255 720 -292 726 c 0
 -326 730 -363 732 -405 732 c 0
 -430 732 -452 732 -468 730 c 0
 -486 729 -501 728 -518 726 c 0
 -532 724 -543 724 -546 724 c 1
 -538 760 -525 795 -504 825 c 0
 -483 856 -456 879 -420 897 c 0
 -386 915 -346 924 -303 924 c 0
 -298 924 -291 924 -284 922 c 0
 -274 921 -272 921 -272 918 c 0
 -255 969 -222 994 -174 994 c 0
 -147 994 -126 988 -108 974 c 0
 -93 957 -82 936 -80 910 c 1
-304 856 m 1
 -334 856 -362 850 -386 838 c 0
 -410 826 -423 816 -429 800 c 1
 -423 801 -416 801 -402 804 c 0
 -390 804 -376 804 -362 804 c 0
 -350 804 -328 801 -302 800 c 0
 -270 796 -243 792 -222 786 c 0
 -201 780 -188 774 -182 771 c 1
 -207 820 -249 848 -304 856 c 1
-177 870 m 0
 -168 870 -160 873 -156 879 c 0
 -152 885 -147 891 -147 900 c 0
 -147 908 -148 914 -154 918 c 0
 -159 926 -168 928 -177 928 c 0
 -195 928 -206 918 -206 900 c 0
 -206 879 -195 870 -177 870 c 0
EndSplineSet
EndChar
StartChar: uni0E37
Encoding: 215 3639 184
Width: 0
Flags: W
HStem: 732 72<-354 -303> 856 68<-273 -250>
VStem: -132 84<879 986>
Fore
-132 879 m 1
 -132 986 l 1
 -48 986 l 1
 -48 752 l 1
 -44 752 -38 726 -27 675 c 1
 -46 680 -76 690 -118 702 c 0
 -160 714 -204 720 -243 726 c 0
 -274 730 -312 732 -354 732 c 0
 -380 732 -400 732 -417 730 c 0
 -468 726 l 0
 -484 724 -495 724 -496 724 c 1
 -477 806 -442 860 -396 885 c 0
 -351 910 -302 924 -250 924 c 1
 -250 986 l 1
 -171 986 l 1
 -171 903 l 1
 -168 902 -162 900 -154 896 c 0
 -146 890 -140 885 -132 879 c 1
-255 856 m 1
 -284 856 -310 850 -334 838 c 0
 -357 826 -374 813 -378 798 c 1
 -374 800 -364 800 -352 801 c 0
 -340 804 -326 804 -303 804 c 0
 -291 804 -274 801 -252 800 c 0
 -226 796 -207 794 -188 790 c 0
 -171 784 -158 782 -146 777 c 0
 -135 772 -130 771 -130 771 c 1
 -130 771 l 1
 -156 820 -196 848 -255 856 c 1
EndSplineSet
EndChar
StartChar: uni0E38
Encoding: 216 3640 185
Width: 0
Flags: W
HStem: -297 71<-213 -191> -138 70<-199 -192>
VStem: -310 70<-194.39 -172> -172 91<-423 -172> -148 67<-192.328 -180>
Fore
-81 -423 m 1
 -172 -423 l 1
 -172 -296 l 1
 -182 -297 -195 -297 -213 -297 c 0
 -234 -296 -250 -288 -266 -276 c 0
 -282 -264 -291 -250 -300 -234 c 0
 -308 -219 -310 -201 -310 -183 c 0
 -310 -153 -300 -126 -279 -104 c 0
 -260 -80 -231 -68 -194 -68 c 0
 -174 -68 -156 -70 -140 -80 c 0
 -122 -88 -108 -102 -99 -117 c 0
 -87 -134 -81 -153 -81 -172 c 2
 -81 -423 l 1
-195 -226 m 0
 -182 -226 -170 -222 -160 -213 c 0
 -153 -206 -148 -195 -148 -183 c 0
 -148 -171 -153 -159 -160 -152 c 0
 -170 -142 -180 -138 -195 -138 c 0
 -210 -138 -220 -142 -230 -152 c 0
 -237 -159 -240 -171 -240 -183 c 0
 -240 -195 -237 -206 -230 -213 c 0
 -220 -222 -208 -226 -195 -226 c 0
EndSplineSet
EndChar
StartChar: uni0E39
Encoding: 217 3641 186
Width: 0
Flags: W
HStem: -434 83<-202 -196> -297 71<-357 -335> -135 67<-343 -336>
VStem: -454 68<-185 -172> -322 97<-338 -297> -292 67<-185 -172> -172 91<-333.085 -76>
Fore
-322 -338 m 2
 -322 -296 l 1
 -328 -297 -340 -297 -357 -297 c 0
 -378 -296 -394 -288 -410 -276 c 0
 -426 -264 -435 -250 -444 -234 c 0
 -452 -219 -454 -201 -454 -183 c 0
 -454 -153 -444 -126 -423 -104 c 0
 -404 -80 -375 -68 -338 -68 c 0
 -309 -68 -282 -78 -260 -96 c 0
 -237 -116 -225 -141 -225 -172 c 2
 -225 -322 l 2
 -225 -340 -218 -351 -198 -351 c 0
 -182 -351 -172 -342 -172 -324 c 2
 -172 -76 l 1
 -81 -76 l 1
 -81 -338 l 2
 -81 -366 -93 -390 -118 -406 c 0
 -144 -426 -171 -434 -200 -434 c 0
 -230 -434 -258 -426 -284 -406 c 0
 -309 -390 -322 -366 -322 -338 c 2
-339 -226 m 0
 -324 -226 -314 -222 -304 -212 c 0
 -297 -204 -292 -194 -292 -182 c 0
 -292 -170 -297 -159 -304 -148 c 0
 -314 -141 -324 -135 -339 -135 c 0
 -354 -135 -364 -141 -374 -148 c 0
 -381 -159 -386 -170 -386 -182 c 0
 -386 -194 -381 -204 -374 -212 c 0
 -364 -222 -354 -226 -339 -226 c 0
EndSplineSet
EndChar
StartChar: uni0E3A
Encoding: 218 3642 187
Width: 0
Flags: W
Fore
-138 -94 m 0
 -126 -94 -116 -99 -106 -104 c 0
 -99 -108 -92 -116 -87 -126 c 0
 -81 -134 -80 -144 -80 -154 c 0
 -80 -170 -84 -183 -94 -195 c 0
 -105 -207 -118 -212 -138 -212 c 0
 -156 -212 -170 -207 -180 -195 c 0
 -192 -183 -196 -170 -196 -154 c 0
 -196 -140 -192 -123 -180 -112 c 0
 -170 -100 -156 -94 -138 -94 c 0
EndSplineSet
EndChar
StartChar: dottedcircle
Encoding: 221 9676 188
Width: 1048
Flags: W
HStem: -15 83<546 548> 26 82<371.395 384> 38 82<688 690> 128 82<272 281> 141 81<780 782> 291 84<221.971 240> 440 82<279 287> 540 84<392 399> 578 84<544 548>
VStem: 190 83<332 338> 231 83<168 178> 238 83<482 484> 339 83<68 70> 351 83<582 584> 506 82<26 34 621 627> 634 83<563.755 582> 648 82<78 82> 740 80<182 184 474 484> 778 83<326 334>
Fore
268 498 m 6
380 600 m 6
368 84 m 6
260 186 m 6
676 96 m 6
768 200 m 6
768 494 m 6
663 591 m 6
807 344 m 6
219 351 m 6
532 638 m 6
279 522 m 0
 303 522 321 504 321 482 c 0
 321 458 303 440 279 440 c 0
 256 440 238 458 238 482 c 0
 238 504 256 522 279 522 c 0
279 482 m 0
 279 482 l 0
 279 482 l 0
 279 482 l 0
 279 482 l 0
392 624 m 0
 416 624 434 604 434 582 c 0
 434 560 416 540 392 540 c 0
 369 540 351 560 351 582 c 0
 351 604 369 624 392 624 c 0
392 582 m 0
 392 582 l 0
 392 582 l 0
 392 582 l 0
 392 582 l 0
381 108 m 0
 404 108 422 90 422 68 c 0
 422 44 404 26 381 26 c 0
 357 26 339 44 339 68 c 0
 339 90 357 108 381 108 c 0
381 68 m 0
 381 68 l 0
 381 68 l 0
 381 68 l 0
 381 68 l 0
272 210 m 0
 296 210 314 192 314 168 c 0
 314 144 296 128 272 128 c 0
 248 128 231 144 231 168 c 0
 231 192 248 210 272 210 c 0
272 168 m 0
 272 168 l 0
 272 168 l 0
 272 168 l 0
 272 168 l 0
688 120 m 0
 712 120 730 102 730 78 c 0
 730 56 712 38 688 38 c 0
 666 38 648 56 648 78 c 0
 648 102 666 120 688 120 c 0
688 78 m 0
 688 78 l 0
 688 78 l 0
 688 78 l 0
 688 78 l 0
780 222 m 0
 804 222 820 206 820 182 c 0
 820 158 804 141 780 141 c 0
 756 141 740 158 740 182 c 0
 740 206 756 222 780 222 c 0
780 182 m 0
 780 182 l 0
 780 182 l 0
 780 182 l 0
 780 182 l 0
780 516 m 0
 804 516 820 496 820 474 c 0
 820 452 804 432 780 432 c 0
 756 432 740 452 740 474 c 0
 740 496 756 516 780 516 c 0
780 474 m 0
 780 474 l 0
 780 474 l 0
 780 474 l 0
 780 474 l 0
675 615 m 0
 699 615 717 597 717 573 c 0
 717 550 699 532 675 532 c 0
 652 532 634 550 634 573 c 0
 634 597 652 615 675 615 c 0
675 573 m 0
 675 573 l 0
 675 573 l 0
 675 573 l 0
 675 573 l 0
819 366 m 0
 843 366 861 350 861 326 c 0
 861 302 843 284 819 284 c 0
 796 284 778 302 778 326 c 0
 778 350 796 366 819 366 c 0
819 326 m 0
 819 326 l 0
 819 326 l 0
 819 326 l 0
 819 326 l 0
231 375 m 0
 255 375 273 356 273 332 c 0
 273 310 255 291 231 291 c 0
 208 291 190 310 190 332 c 0
 190 356 208 375 231 375 c 0
231 332 m 0
 231 332 l 0
 231 332 l 0
 231 332 l 0
 231 332 l 0
546 68 m 0
 570 68 588 50 588 26 c 0
 588 2 570 -15 546 -15 c 0
 524 -15 506 2 506 26 c 0
 506 50 524 68 546 68 c 0
546 26 m 0
 546 26 l 0
 546 26 l 0
 546 26 l 0
 546 26 l 0
544 662 m 0
 568 662 586 642 586 621 c 0
 586 597 568 578 544 578 c 0
 522 578 504 597 504 621 c 0
 504 642 522 662 544 662 c 0
544 621 m 0
 544 621 l 0
 544 621 l 0
 544 621 l 0
 544 621 l 0
EndSplineSet
EndChar
StartChar: uni0E3F
Encoding: 223 3647 189
Width: 694
Flags: W
HStem: 0 120<224 401> 302 120<224 401> 584 120<80 401>
VStem: 80 144<0 302 0 584> 314 67<-60 780> 484 140<501 519> 501 139<219 227>
Fore
80 0 m 1
 80 704 l 1
 392 704 l 2
 417 704 447 699 482 690 c 0
 513 681 540 668 560 650 c 1
 579 634 596 616 603 602 c 0
 608 596 610 582 615 562 c 0
 621 543 622 526 624 519 c 0
 624 494 618 470 608 444 c 0
 597 418 579 394 556 375 c 1
 578 360 597 338 612 312 c 0
 627 285 638 256 640 226 c 1
 640 186 636 153 624 123 c 0
 612 94 594 69 568 48 c 0
 530 15 472 0 396 0 c 2
 80 0 l 1
314 771 m 1
 381 780 l 1
 381 -60 l 1
 314 -60 l 1
 314 771 l 1
224 302 m 1
 224 120 l 1
 393 120 l 2
 422 120 447 126 470 138 c 0
 492 148 504 177 501 219 c 0
 501 252 492 274 472 285 c 0
 454 297 429 302 396 302 c 2
 224 302 l 1
224 584 m 1
 224 422 l 1
 388 422 l 2
 418 422 442 429 459 444 c 0
 477 459 484 478 484 501 c 0
 483 556 453 584 394 584 c 2
 224 584 l 1
EndSplineSet
EndChar
StartChar: uni0E40
Encoding: 224 3648 190
Width: 318
Flags: W
HStem: -8 71<192 198> 152 70<180 198>
VStem: 81 71<103 112> 240 69<103 110>
Fore
195 -8 m 0
 159 -8 130 4 110 27 c 0
 92 50 81 76 81 110 c 2
 81 576 l 1
 180 576 l 1
 180 222 l 1
 195 222 l 2
 232 222 261 208 279 190 c 0
 298 170 308 142 309 110 c 0
 309 78 300 50 279 27 c 0
 260 3 231 -8 195 -8 c 0
196 63 m 0
 210 63 220 66 230 75 c 0
 237 82 240 94 240 106 c 0
 240 118 237 130 231 140 c 0
 222 147 212 152 196 152 c 0
 183 152 171 146 162 138 c 0
 154 129 152 118 152 106 c 0
 152 94 156 84 165 76 c 0
 172 68 183 63 196 63 c 0
EndSplineSet
EndChar
StartChar: uni0E41
Encoding: 225 3649 191
Width: 589
Flags: W
HStem: -8 71<192 198 468 482> 152 70<180 198 453 470>
VStem: 81 71<103 112> 81 99<110 576> 240 69<103 110> 354 69<103 112> 354 99<110 576> 512 70<103 110>
Fore
195 -8 m 0
 159 -8 130 4 110 27 c 0
 92 50 81 76 81 110 c 2
 81 576 l 1
 180 576 l 1
 180 222 l 1
 195 222 l 2
 232 222 261 208 279 190 c 0
 298 170 308 142 309 110 c 0
 309 78 300 50 279 27 c 0
 260 3 231 -8 195 -8 c 0
468 -8 m 0
 432 -8 404 4 386 27 c 0
 364 50 354 76 354 110 c 2
 354 576 l 1
 453 576 l 1
 453 222 l 1
 468 222 l 2
 504 222 531 208 549 188 c 0
 568 168 579 142 582 110 c 0
 582 78 572 50 550 27 c 0
 531 4 504 -8 468 -8 c 0
196 63 m 0
 210 63 220 66 230 75 c 0
 237 82 240 94 240 106 c 0
 240 118 237 130 231 140 c 0
 222 147 212 152 196 152 c 0
 183 152 171 146 162 138 c 0
 154 129 152 118 152 106 c 0
 152 94 156 84 165 76 c 0
 172 68 183 63 196 63 c 0
468 63 m 0
 483 63 494 66 500 75 c 0
 508 82 512 94 512 106 c 0
 512 118 508 130 500 140 c 0
 494 147 483 152 468 152 c 0
 453 152 442 146 435 138 c 0
 428 129 423 118 423 106 c 0
 423 94 428 84 435 76 c 0
 444 68 454 63 468 63 c 0
EndSplineSet
EndChar
StartChar: uni0E42
Encoding: 226 3650 192
Width: 399
Flags: W
HStem: -8 74<251.226 265> 147 75<248 265> 916 86<296 314> 963 83<136 154>
VStem: 148 74<103 112> 148 100<110 809> 303 73<103 110>
Fore
248 778 m 2
 248 222 l 1
 262 222 l 2
 300 222 328 208 348 188 c 0
 366 168 375 142 376 110 c 0
 376 78 366 50 348 27 c 0
 327 4 298 -8 262 -8 c 0
 226 -8 198 4 178 27 c 0
 159 50 148 76 148 110 c 2
 148 782 l 2
 148 806 147 822 146 832 c 0
 142 843 135 850 128 860 c 0
 117 868 102 876 80 886 c 0
 57 897 16 914 -39 938 c 1
 -34 946 -22 957 -4 974 c 0
 10 988 32 1005 62 1022 c 0
 90 1038 118 1046 152 1046 c 0
 171 1046 186 1044 196 1041 c 0
 207 1035 224 1029 249 1018 c 0
 274 1006 292 1002 308 1002 c 0
 326 1002 344 1010 366 1026 c 1
 400 951 l 1
 369 928 339 916 309 916 c 0
 286 916 260 924 230 938 c 0
 198 951 180 957 171 960 c 0
 159 962 153 963 147 963 c 0
 140 963 132 962 128 960 c 0
 122 956 120 954 118 952 c 1
 159 933 188 916 204 908 c 0
 219 896 230 882 237 862 c 0
 244 844 248 816 248 778 c 2
262 66 m 0
 276 66 286 69 292 78 c 0
 300 87 303 94 303 106 c 0
 303 118 300 128 292 135 c 0
 286 144 276 147 262 147 c 0
 250 147 240 144 234 135 c 0
 225 128 222 118 222 106 c 0
 222 94 225 87 234 78 c 0
 240 69 250 66 262 66 c 0
EndSplineSet
EndChar
StartChar: uni0E43
Encoding: 227 3651 193
Width: 399
Flags: W
HStem: -8 74<264 273> 147 73<249 273> 771 67<42 54> 771 183<54 70> 975 77<95 118>
VStem: -48 69<866 885> 69 66<852 873> 148 76<103 112> 148 101<110 905> 304 74<103 110>
Fore
249 897 m 2
 249 220 l 1
 264 220 l 2
 300 220 328 207 348 188 c 0
 366 168 376 142 378 110 c 0
 378 78 368 50 350 27 c 0
 328 4 300 -8 264 -8 c 0
 226 -8 198 4 178 27 c 0
 159 50 148 78 148 110 c 2
 148 898 l 2
 148 924 147 944 142 956 c 0
 138 968 126 975 105 975 c 0
 88 975 76 974 70 968 c 0
 64 963 60 957 57 954 c 1
 82 954 102 946 116 927 c 0
 129 909 135 885 135 852 c 1
 130 798 104 771 54 771 c 0
 32 771 14 777 -3 786 c 0
 -22 796 -34 810 -39 830 c 0
 -44 849 -48 868 -48 885 c 0
 -48 930 -32 969 -3 1002 c 0
 26 1034 62 1052 106 1052 c 0
 153 1052 188 1038 212 1008 c 0
 237 980 249 942 249 897 c 2
264 66 m 0
 276 66 286 69 296 78 c 0
 302 87 304 94 304 106 c 0
 304 118 302 128 296 135 c 0
 286 144 276 147 264 147 c 0
 252 147 243 144 236 135 c 0
 226 128 224 118 224 106 c 0
 224 94 226 87 236 78 c 0
 243 69 252 66 264 66 c 0
44 894 m 0
 38 894 32 890 27 885 c 0
 22 879 21 873 21 866 c 0
 21 860 22 852 27 848 c 0
 32 843 38 838 44 838 c 0
 62 838 69 848 69 866 c 0
 69 885 62 894 44 894 c 0
EndSplineSet
EndChar
StartChar: uni0E44
Encoding: 228 3652 194
Width: 454
Flags: W
HStem: -8 74<312 330> 147 75<304 330>
VStem: 207 72<103 112> 207 97<110 976> 362 72<103 110>
DStem: -4 952 66 993 50 753 108 838 158 1004 207 896 108 838 159 738
Fore
207 896 m 1
 159 738 l 2
 152 708 134 693 106 693 c 0
 92 693 80 699 70 706 c 0
 63 717 54 732 50 753 c 2
 -4 952 l 2
 -10 974 -21 987 -39 994 c 1
 16 1052 l 1
 42 1041 57 1022 66 993 c 1
 108 838 l 1
 158 1004 l 1
 166 1034 192 1048 230 1048 c 0
 250 1048 268 1042 284 1030 c 0
 298 1018 304 1000 304 976 c 2
 304 222 l 1
 318 222 l 2
 356 222 386 208 404 190 c 0
 422 170 432 142 434 110 c 0
 434 78 423 50 404 27 c 0
 382 4 354 -8 318 -8 c 0
 284 -8 255 4 236 27 c 0
 218 50 207 76 207 110 c 2
 207 896 l 1
321 66 m 0
 334 66 344 69 351 78 c 0
 357 87 362 94 362 106 c 0
 362 118 357 128 351 135 c 0
 344 144 334 147 321 147 c 0
 308 147 297 144 290 135 c 0
 284 128 279 118 279 106 c 0
 279 94 284 87 290 78 c 0
 297 69 308 66 321 66 c 0
EndSplineSet
EndChar
StartChar: uni0E45
Encoding: 229 3653 195
Width: 501
Flags: W
HStem: 516 78<201 222>
VStem: 322 98<-300 437>
Fore
10 438 m 1
 21 474 42 510 75 544 c 0
 106 576 156 594 222 594 c 0
 292 591 344 576 375 548 c 0
 405 519 420 474 420 418 c 2
 420 -300 l 1
 322 -300 l 1
 322 420 l 2
 322 483 285 516 212 516 c 0
 153 516 114 482 94 414 c 1
 10 438 l 1
EndSplineSet
EndChar
StartChar: uni0E46
Encoding: 230 3654 196
Width: 667
Flags: W
HStem: 236 72<310 312> 368 73<310 312>
VStem: 340 72<327.994 343> 488 98<-45 437>
Fore
303 501 m 1
 285 494 273 480 266 462 c 0
 258 447 255 434 252 426 c 1
 256 428 262 430 273 435 c 0
 282 440 296 441 310 441 c 0
 342 441 368 432 387 414 c 0
 404 394 412 369 412 340 c 0
 412 312 404 286 387 266 c 0
 368 246 342 236 310 236 c 0
 268 237 234 252 207 282 c 0
 180 310 165 348 162 396 c 0
 162 442 177 484 206 522 c 0
 232 558 266 579 308 588 c 1
 321 582 338 573 356 564 c 0
 375 555 386 548 386 546 c 1
 452 588 l 1
 500 579 534 560 556 531 c 0
 576 501 586 462 586 417 c 2
 586 -32 l 2
 586 -87 568 -129 531 -159 c 0
 492 -190 444 -210 387 -220 c 1
 362 -134 l 1
 366 -132 382 -126 412 -117 c 0
 440 -108 459 -99 471 -84 c 0
 483 -74 488 -52 488 -26 c 2
 488 406 l 2
 488 434 486 454 482 466 c 0
 477 480 466 492 452 501 c 1
 386 459 l 1
 386 459 l 1
 386 459 375 465 354 474 c 0
 334 486 316 495 303 501 c 1
310 308 m 0
 318 308 327 310 332 316 c 0
 338 322 340 328 340 338 c 0
 340 346 339 354 334 360 c 0
 328 364 321 368 310 368 c 0
 300 368 291 364 286 360 c 0
 282 354 279 346 279 338 c 0
 279 328 284 322 288 316 c 0
 292 310 302 308 310 308 c 0
EndSplineSet
EndChar
StartChar: uni0E47
Encoding: 231 3655 197
Width: 0
Flags: W
HStem: 678 64<-172 -163> 765 79<-346 -334> 798 63<-172 -163> 874 74<-258 -212> 878 76<-344 -310>
VStem: -501 87<806 831> -146 65<771 773>
Fore
-172 678 m 0
 -190 678 -206 682 -219 692 c 0
 -234 700 -249 710 -266 724 c 0
 -285 740 -298 748 -309 756 c 0
 -318 760 -330 765 -344 765 c 0
 -356 765 -366 754 -375 735 c 0
 -382 716 -387 694 -387 675 c 1
 -410 675 l 1
 -435 687 -456 708 -474 741 c 0
 -494 770 -501 800 -501 831 c 0
 -501 849 -498 864 -494 876 c 0
 -482 904 -462 926 -440 938 c 0
 -417 950 -386 954 -344 954 c 0
 -336 954 -328 954 -324 954 c 0
 -318 954 -314 954 -309 952 c 0
 -278 950 -250 948 -226 948 c 0
 -198 948 -177 952 -165 963 c 0
 -152 975 -144 994 -144 1026 c 1
 -62 1026 l 1
 -62 970 -75 934 -102 910 c 0
 -128 888 -172 874 -237 874 c 0
 -268 874 -291 876 -310 878 c 0
 -350 878 -376 873 -392 864 c 0
 -406 855 -414 834 -414 806 c 1
 -412 812 -405 820 -393 831 c 0
 -381 838 -363 844 -336 844 c 0
 -314 844 -296 840 -284 832 c 0
 -270 824 -261 816 -256 810 c 1
 -244 844 -218 861 -172 861 c 0
 -144 861 -120 852 -105 836 c 0
 -90 820 -81 798 -81 771 c 0
 -81 746 -90 724 -106 705 c 0
 -123 687 -146 678 -172 678 c 0
-172 742 m 0
 -154 742 -146 753 -146 771 c 0
 -146 780 -147 786 -153 792 c 0
 -158 796 -165 798 -172 798 c 0
 -182 798 -190 795 -195 790 c 0
 -200 784 -201 778 -201 771 c 0
 -201 753 -192 742 -172 742 c 0
EndSplineSet
EndChar
StartChar: uni0E48
Encoding: 232 3656 198
Width: 0
Flags: W
VStem: -170 89<1048 1248>
Fore
-170 1048 m 1
 -170 1248 l 1
 -81 1248 l 1
 -81 1048 l 1
 -170 1048 l 1
EndSplineSet
EndChar
StartChar: uni0E49
Encoding: 233 3657 199
Width: 0
Flags: W
HStem: 1072 60<-232 -225> 1190 60<-234 -222>
VStem: -312 57<1155 1166> -196 64<1155 1165>
Fore
-132 1155 m 0
 -134 1125 -138 1107 -142 1095 c 0
 -147 1083 -153 1074 -158 1072 c 1
 -154 1072 -146 1074 -134 1078 c 0
 -122 1082 -110 1086 -96 1095 c 0
 -84 1104 -75 1113 -66 1125 c 0
 -54 1144 -48 1161 -46 1176 c 0
 -44 1191 -42 1214 -42 1242 c 1
 39 1242 l 1
 39 1137 4 1066 -64 1034 c 0
 -106 1014 -153 1005 -198 1005 c 0
 -213 1005 -230 1006 -240 1008 c 0
 -252 1010 -260 1010 -264 1012 c 1
 -264 1041 l 1
 -260 1042 -252 1047 -246 1053 c 0
 -238 1058 -234 1065 -232 1072 c 1
 -234 1072 -244 1074 -260 1080 c 0
 -274 1084 -286 1094 -297 1108 c 0
 -308 1124 -312 1140 -312 1162 c 0
 -312 1186 -303 1208 -286 1224 c 0
 -272 1240 -249 1250 -224 1250 c 0
 -195 1250 -171 1239 -156 1221 c 0
 -141 1200 -132 1178 -132 1155 c 0
-225 1132 m 0
 -218 1132 -208 1136 -204 1140 c 0
 -198 1146 -196 1152 -196 1161 c 0
 -196 1170 -200 1176 -206 1182 c 0
 -210 1186 -218 1190 -225 1190 c 0
 -244 1190 -255 1179 -255 1161 c 0
 -255 1155 -250 1148 -246 1140 c 0
 -240 1136 -234 1132 -225 1132 c 0
EndSplineSet
EndChar
StartChar: uni0E4A
Encoding: 234 3658 200
Width: 0
Flags: W
HStem: 1000 48<-347.487 -336> 1094 49<-341 -328> 1172 58<-338 -320>
VStem: -316 52<1063 1077> -188 65<1112 1134> -82 66<1172 1188>
Fore
-338 1000 m 0
 -366 1000 -388 1012 -406 1038 c 0
 -426 1064 -435 1092 -434 1124 c 0
 -434 1155 -422 1179 -406 1200 c 0
 -390 1221 -366 1230 -338 1230 c 0
 -318 1230 -303 1227 -292 1221 c 0
 -284 1212 -276 1208 -273 1202 c 1
 -270 1208 -261 1212 -249 1221 c 0
 -238 1227 -225 1230 -210 1230 c 0
 -182 1230 -160 1222 -146 1204 c 0
 -130 1186 -123 1162 -123 1134 c 0
 -123 1113 -126 1100 -129 1094 c 0
 -132 1084 -138 1074 -144 1060 c 1
 -140 1064 -134 1068 -126 1074 c 0
 -117 1080 -108 1088 -104 1100 c 0
 -92 1125 -84 1149 -82 1172 c 0
 -82 1184 -84 1197 -88 1210 c 1
 -24 1234 l 1
 -18 1218 -16 1203 -16 1188 c 0
 -16 1143 -30 1101 -52 1070 c 0
 -69 1046 -88 1030 -117 1024 c 0
 -146 1016 -182 1010 -220 1010 c 1
 -220 1016 -220 1020 -220 1024 c 0
 -220 1028 -220 1030 -222 1035 c 1
 -218 1041 -210 1048 -201 1060 c 0
 -194 1074 -188 1092 -188 1112 c 0
 -188 1130 -190 1143 -194 1152 c 0
 -198 1162 -208 1168 -224 1168 c 0
 -236 1168 -244 1166 -249 1161 c 0
 -256 1156 -261 1150 -264 1148 c 1
 -264 1148 l 1
 -264 1149 -270 1152 -282 1160 c 0
 -292 1168 -308 1172 -322 1172 c 0
 -348 1172 -362 1160 -363 1137 c 1
 -362 1138 -357 1138 -352 1140 c 0
 -348 1143 -340 1143 -328 1143 c 0
 -309 1140 -292 1134 -282 1120 c 0
 -270 1106 -264 1088 -264 1066 c 0
 -264 1048 -272 1034 -285 1020 c 0
 -300 1006 -318 1000 -338 1000 c 0
-339 1094 m 0
 -354 1094 -363 1086 -363 1071 c 0
 -363 1056 -354 1048 -339 1048 c 0
 -324 1048 -316 1056 -316 1071 c 0
 -316 1086 -324 1094 -339 1094 c 0
EndSplineSet
EndChar
StartChar: uni0E4B
Encoding: 235 3659 201
Width: 0
Flags: W
HStem: 1092 78<-250 -166 -81 3>
VStem: -166 85<1018 1092 1170 1244>
Fore
-166 1092 m 1
 -250 1092 l 1
 -250 1170 l 1
 -166 1170 l 1
 -166 1244 l 1
 -81 1244 l 1
 -81 1170 l 1
 3 1170 l 1
 3 1092 l 1
 -81 1092 l 1
 -81 1018 l 1
 -166 1018 l 1
 -166 1092 l 1
EndSplineSet
EndChar
StartChar: uni0E4C
Encoding: 236 3660 202
Width: 0
Flags: W
HStem: 960 57<-256 -248> 1072 58<-256 -247>
VStem: -362 77<1046 1064> -230 62<1046 1055> -116 72<1235.71 1250.98>
Fore
-126 1138 m 0
 -168 1132 -196 1132 -213 1131 c 0
 -232 1130 -244 1130 -249 1130 c 0
 -224 1130 -206 1122 -190 1107 c 0
 -177 1092 -168 1072 -168 1052 c 0
 -166 1026 -174 1005 -190 988 c 0
 -206 969 -225 960 -250 960 c 0
 -285 957 -312 969 -330 988 c 0
 -351 1006 -362 1030 -362 1064 c 0
 -362 1119 -339 1158 -296 1178 c 0
 -274 1186 -248 1194 -212 1196 c 0
 -177 1197 -153 1202 -138 1208 c 0
 -122 1212 -116 1227 -116 1251 c 1
 -44 1251 l 1
 -44 1222 -51 1197 -64 1178 c 0
 -76 1158 -96 1143 -126 1138 c 0
-256 1072 m 0
 -274 1072 -285 1065 -285 1046 c 0
 -285 1028 -274 1017 -256 1017 c 0
 -248 1017 -240 1020 -236 1026 c 0
 -231 1030 -230 1038 -230 1046 c 0
 -230 1054 -231 1059 -236 1065 c 0
 -240 1070 -248 1072 -256 1072 c 0
EndSplineSet
EndChar
StartChar: uni0E4D
Encoding: 237 3661 203
Width: 0
Flags: W
HStem: 681 71<-198 -196> 840 70<-198 -196>
VStem: -314 71<796 798> -154 70<796 798>
Fore
-198 910 m 0
 -162 910 -134 898 -114 876 c 0
 -94 855 -84 826 -84 796 c 0
 -84 766 -94 740 -116 716 c 0
 -135 693 -162 681 -198 681 c 0
 -234 681 -262 693 -284 716 c 0
 -303 740 -314 766 -314 796 c 0
 -314 826 -303 855 -284 876 c 0
 -262 898 -234 910 -198 910 c 0
-198 752 m 0
 -184 752 -174 756 -166 765 c 0
 -158 772 -154 784 -154 796 c 0
 -154 808 -158 819 -166 826 c 0
 -174 836 -184 840 -198 840 c 0
 -212 840 -222 837 -231 830 c 0
 -238 820 -243 808 -243 796 c 0
 -243 784 -238 772 -231 765 c 0
 -222 756 -212 752 -198 752 c 0
EndSplineSet
EndChar
StartChar: uni0E4E
Encoding: 238 3662 204
Width: 0
VWidth: 2048
Flags: W
HStem: 760 66<-309 -285> 933 93<-284 -268> 1038 84<-130 -104>
VStem: -426 102<871 882> -238 76<976 1018>
Fore
-14 988 m 1
 -26 992 l 2
 -32 994 -38 999 -40 1004 c 0
 -50 1014 -57 1022 -64 1028 c 0
 -75 1034 -88 1038 -104 1038 c 0
 -118 1038 -132 1032 -142 1024 c 0
 -156 1014 -162 996 -162 976 c 0
 -162 964 -158 951 -148 936 c 0
 -144 933 -142 924 -142 912 c 0
 -142 904 -147 898 -156 891 c 0
 -162 885 -170 884 -177 884 c 0
 -188 884 -200 890 -207 903 c 0
 -216 916 -224 924 -234 927 c 0
 -240 930 -252 933 -268 933 c 0
 -284 933 -296 927 -308 918 c 0
 -318 909 -324 894 -324 876 c 0
 -324 861 -318 850 -312 843 c 0
 -303 832 -296 826 -285 826 c 0
 -272 826 -261 831 -252 836 c 1
 -236 855 l 1
 -207 843 l 1
 -213 800 l 1
 -237 774 -270 760 -309 760 c 0
 -344 760 -374 772 -394 796 c 0
 -417 819 -426 848 -426 882 c 1
 -423 914 l 1
 -423 915 l 1
 -422 926 -417 938 -410 950 c 0
 -396 974 -378 990 -356 1005 c 0
 -334 1018 -310 1026 -284 1026 c 0
 -270 1026 -255 1024 -238 1018 c 1
 -238 1047 -230 1071 -208 1092 c 0
 -186 1112 -159 1122 -130 1122 c 0
 -105 1122 -81 1118 -62 1108 c 0
 -39 1098 -22 1084 -8 1064 c 0
 -3 1059 0 1052 4 1038 c 0
 10 1029 12 1020 12 1014 c 0
 12 996 3 988 -14 988 c 1
EndSplineSet
EndChar
StartChar: uni0E4F
Encoding: 239 3663 205
Width: 610
VWidth: 2048
Flags: W
HStem: 0 74<288 317> 142 77<271.147 301> 440 67<271.565 301> 578 73<288 301>
VStem: -36 72<326 337> 106 72<319 337> 394 76<319 337> 543 71<326 337>
Fore
286 440 m 4
 226 440 178 388 178 328 c 0
 178 268 226 219 286 219 c 0
 348 219 394 268 394 328 c 4
 394 388 348 440 286 440 c 4
288 0 m 0
 188 0 108 32 51 96 c 0
 -8 162 -36 238 -36 326 c 0
 -36 416 -8 492 50 556 c 0
 105 618 184 651 288 651 c 0
 356 651 417 636 466 604 c 1
 518 573 552 532 576 484 c 0
 600 435 614 382 614 326 c 0
 614 268 600 213 576 166 c 0
 552 118 518 78 466 46 c 1
 417 15 356 0 288 0 c 0
288 578 m 0
 208 578 146 552 104 504 c 0
 57 453 36 392 36 326 c 0
 36 282 44 240 64 201 c 0
 82 162 112 132 152 108 c 1
 186 84 234 74 288 74 c 0
 342 74 390 84 428 108 c 0
 468 134 496 166 518 204 c 0
 534 238 543 282 543 326 c 0
 543 393 520 453 477 504 c 0
 432 552 369 578 288 578 c 0
288 142 m 0
 250 142 218 152 188 168 c 0
 159 186 141 210 128 237 c 0
 114 266 106 296 106 326 c 0
 106 354 114 386 128 414 c 0
 140 441 159 462 188 482 c 0
 219 498 250 507 288 507 c 0
 326 507 357 498 388 482 c 0
 417 462 435 441 448 414 c 0
 462 386 470 354 470 326 c 0
 470 276 454 234 423 196 c 0
 390 160 344 142 288 142 c 0
EndSplineSet
EndChar
StartChar: uni0E50
Encoding: 240 3664 206
Width: 592
Flags: W
HStem: -8 88<300 314> 328 89<300 314>
VStem: 57 102<206 217> 442 102<199 217>
Fore
300 -8 m 0
 224 -8 165 15 122 57 c 0
 80 100 57 148 57 206 c 0
 57 240 66 276 84 309 c 0
 104 340 130 368 168 388 c 0
 206 406 249 417 300 417 c 0
 351 417 394 406 432 388 c 0
 470 368 498 340 518 309 c 0
 536 276 544 240 544 206 c 0
 544 170 534 134 516 102 c 0
 496 69 470 44 432 24 c 0
 396 4 352 -8 300 -8 c 0
300 328 m 0
 256 328 222 316 196 291 c 0
 171 266 159 237 159 206 c 0
 159 171 171 142 196 117 c 0
 220 92 255 80 300 80 c 0
 344 80 380 92 405 117 c 0
 430 142 442 171 442 204 c 0
 442 237 430 266 405 291 c 0
 380 316 344 328 300 328 c 0
EndSplineSet
EndChar
StartChar: uni0E51
Encoding: 241 3665 207
Width: 607
Flags: W
HStem: 220 78<289.282 299> 340 92<298 319>
VStem: 62 92<198 212> 186 80<185 190> 332 82<180 190> 460 98<186 208>
Fore
154 208 m 0
 154 178 162 154 178 135 c 0
 195 117 210 106 225 106 c 1
 219 108 210 116 201 128 c 0
 194 140 188 158 186 186 c 0
 186 216 196 243 219 264 c 0
 240 286 266 298 298 298 c 0
 338 300 368 286 387 264 c 0
 405 243 414 216 414 180 c 0
 414 134 399 94 369 64 c 0
 340 32 298 16 244 16 c 1
 188 22 144 40 110 75 c 0
 76 108 62 154 62 212 c 0
 62 252 70 290 93 324 c 0
 116 357 144 386 182 404 c 0
 218 422 256 432 298 432 c 0
 381 430 446 408 490 366 c 0
 534 322 558 262 558 186 c 0
 560 90 513 9 426 -57 c 1
 364 3 l 1
 393 26 416 52 434 84 c 0
 453 117 460 152 460 186 c 0
 460 218 454 244 442 266 c 0
 430 290 412 308 387 321 c 0
 363 332 334 340 298 340 c 0
 256 340 222 328 196 303 c 0
 170 278 156 248 154 208 c 0
298 220 m 0
 290 220 282 218 276 210 c 0
 270 204 266 196 266 188 c 0
 266 180 270 172 276 165 c 0
 282 158 288 154 298 154 c 0
 310 154 318 158 324 165 c 0
 328 171 332 180 332 188 c 0
 332 196 328 206 322 212 c 0
 316 218 309 220 298 220 c 0
EndSplineSet
EndChar
StartChar: uni0E52
Encoding: 242 3666 208
Width: 723
Flags: W
HStem: 0 88<262 510> 110 73<310 318> 260 70<312 328> 342 88<522 544> 346 84<342 359>
VStem: 81 99<175 481> 194 88<222 240> 357 72<216 224> 561 101<138 305>
Fore
432 284 m 1
 406 326 380 346 351 346 c 0
 340 346 332 344 326 340 c 0
 321 336 315 332 312 330 c 1
 336 330 356 326 375 315 c 0
 392 304 405 291 416 273 c 0
 423 256 429 237 429 216 c 0
 428 183 416 158 396 140 c 0
 378 120 350 110 314 110 c 0
 279 110 250 122 230 147 c 0
 206 172 194 204 194 240 c 0
 194 296 208 340 237 376 c 0
 266 412 303 430 346 430 c 0
 375 430 399 423 414 412 c 0
 429 400 438 390 442 381 c 1
 447 390 458 400 472 412 c 0
 488 423 512 430 544 430 c 0
 588 430 618 417 636 390 c 0
 652 364 662 336 662 303 c 2
 662 134 l 2
 662 88 650 56 627 34 c 0
 604 12 564 0 508 0 c 2
 273 0 l 2
 201 0 153 14 123 42 c 0
 94 70 81 117 81 180 c 2
 81 466 l 2
 81 488 78 507 74 520 c 0
 68 534 57 548 39 560 c 1
 114 621 l 1
 132 610 148 596 160 574 c 0
 172 552 180 530 180 501 c 2
 180 201 l 2
 180 160 184 132 195 114 c 0
 207 96 232 88 272 88 c 2
 492 88 l 2
 520 88 540 93 549 104 c 0
 558 114 561 132 561 159 c 2
 561 284 l 2
 561 304 560 321 555 328 c 0
 549 338 537 342 522 342 c 0
 507 342 496 339 488 332 c 0
 480 324 474 315 471 303 c 0
 468 291 466 286 465 285 c 2
 432 284 l 1
318 260 m 0
 308 260 297 256 290 248 c 0
 285 240 282 232 282 222 c 0
 282 212 285 204 291 195 c 0
 297 186 308 183 318 183 c 0
 344 184 357 196 357 220 c 0
 357 231 354 238 348 248 c 0
 340 256 330 260 318 260 c 0
EndSplineSet
EndChar
StartChar: uni0E53
Encoding: 243 3667 209
Width: 702
Flags: W
HStem: -3 77<190 208> 0 21G<327 426 500 602> 147 78<200 208> 346 84<234 256>
VStem: 63 102<219 246> 237 77<102 110> 327 99<0 254> 548 96<188 212>
Fore
246 346 m 0
 192 346 165 303 165 219 c 0
 165 220 168 220 172 222 c 0
 177 224 184 225 200 225 c 0
 236 225 264 213 284 190 c 0
 303 166 315 138 314 104 c 0
 314 70 302 46 279 27 c 0
 258 8 230 -3 194 -3 c 0
 106 -3 62 74 63 226 c 0
 63 261 70 292 84 326 c 0
 100 357 120 382 146 402 c 0
 171 420 200 430 236 430 c 0
 278 430 310 422 332 405 c 0
 354 390 368 376 374 364 c 1
 374 368 376 375 386 387 c 0
 392 396 404 406 420 417 c 0
 435 426 458 430 484 430 c 0
 544 430 585 408 609 363 c 0
 632 316 646 261 644 195 c 0
 642 108 627 42 602 0 c 1
 500 0 l 1
 512 15 524 44 532 87 c 0
 543 129 548 170 548 212 c 0
 548 250 543 282 532 304 c 0
 522 328 507 340 484 340 c 0
 460 340 446 332 438 316 c 0
 429 302 426 276 426 244 c 2
 426 0 l 1
 327 0 l 1
 327 248 l 2
 327 276 321 300 304 318 c 0
 290 338 272 346 246 346 c 0
200 147 m 0
 188 147 178 144 172 138 c 0
 166 129 162 120 162 110 c 0
 162 102 166 93 172 84 c 0
 178 76 188 74 200 74 c 0
 212 74 220 76 226 84 c 0
 234 93 237 102 237 110 c 0
 237 120 234 129 230 138 c 0
 222 144 212 147 200 147 c 0
EndSplineSet
EndChar
StartChar: uni0E54
Encoding: 244 3668 210
Width: 715
Flags: W
HStem: 0 94<276 322> 243 81<350 363> 342 92<311 331>
VStem: 56 102<193 216> 240 81<208 218> 388 80<205 218>
Fore
158 207 m 0
 158 162 177 132 208 117 c 0
 240 102 278 94 322 94 c 1
 292 104 273 117 260 138 c 0
 248 156 240 180 240 208 c 0
 240 237 250 262 270 288 c 0
 288 312 315 324 352 324 c 0
 390 324 418 312 438 288 c 0
 458 262 468 237 468 212 c 0
 468 186 462 170 454 158 c 0
 446 146 438 140 432 135 c 1
 447 123 468 116 492 114 c 0
 513 112 538 108 566 105 c 0
 594 100 622 90 652 74 c 1
 615 -14 l 1
 603 -3 586 4 562 12 c 0
 538 16 513 21 486 21 c 0
 460 21 428 16 388 10 c 0
 350 3 312 0 276 0 c 0
 248 0 220 4 195 14 c 0
 170 22 146 36 123 54 c 0
 102 74 87 94 75 122 c 0
 63 147 56 180 56 216 c 0
 56 255 66 291 87 326 c 0
 106 357 138 386 177 405 c 0
 216 423 262 434 315 434 c 0
 326 434 342 432 368 430 c 0
 416 426 446 423 459 423 c 0
 498 426 530 432 550 446 c 0
 573 458 588 482 600 516 c 0
 612 549 618 597 622 660 c 1
 717 650 l 1
 717 627 716 602 712 573 c 0
 708 544 702 510 690 472 c 0
 678 435 660 406 638 387 c 0
 597 350 548 330 492 330 c 0
 474 330 453 332 426 336 c 0
 400 338 378 339 362 340 c 0
 352 342 342 342 327 342 c 0
 278 342 237 332 206 312 c 0
 172 290 156 256 158 207 c 0
354 172 m 0
 376 172 388 184 388 208 c 0
 388 218 386 225 380 232 c 0
 375 238 366 243 354 243 c 0
 342 243 334 238 328 232 c 0
 324 224 321 218 321 208 c 0
 321 200 324 192 328 183 c 0
 334 177 342 172 354 172 c 0
EndSplineSet
EndChar
StartChar: uni0E55
Encoding: 245 3669 211
Width: 736
Flags: W
HStem: 0 94<279 326> 243 81<354 366> 330 93<471 495> 342 87<332 362> 496 83<354 363>
VStem: 60 100<193 227> 244 78<208 216> 246 81<460 467> 392 79<205 216> 396 82<453 467>
Fore
471 423 m 1
 548 423 594 459 609 532 c 0
 616 573 622 615 626 660 c 1
 720 650 l 1
 720 640 718 626 717 602 c 0
 716 578 712 552 706 526 c 0
 702 501 694 477 682 452 c 0
 674 426 660 404 640 387 c 0
 600 350 550 330 495 330 c 0
 477 330 456 332 430 336 c 0
 405 338 386 339 366 340 c 0
 357 342 348 342 332 342 c 0
 282 342 240 332 210 312 c 0
 178 290 159 256 160 207 c 0
 160 162 180 134 212 118 c 0
 244 104 282 94 326 94 c 1
 297 104 276 117 262 138 c 0
 250 156 244 180 244 208 c 0
 244 237 255 262 273 288 c 0
 291 312 318 324 356 324 c 0
 393 324 422 312 441 288 c 0
 460 262 471 237 471 212 c 0
 471 186 466 170 458 158 c 0
 448 146 441 140 435 135 c 1
 452 123 471 116 495 114 c 0
 518 112 543 108 570 105 c 0
 597 100 626 90 656 74 c 1
 618 -14 l 1
 608 -4 590 3 566 10 c 0
 543 16 518 21 490 21 c 0
 465 21 430 16 392 10 c 0
 352 3 315 0 279 0 c 0
 250 0 224 4 198 14 c 0
 172 22 148 36 128 54 c 0
 105 74 90 94 78 122 c 0
 66 147 60 180 60 216 c 0
 60 291 82 344 132 375 c 0
 180 405 219 422 250 428 c 1
 248 441 246 453 246 465 c 0
 246 498 258 525 282 548 c 0
 303 570 330 579 363 579 c 0
 396 578 423 568 446 546 c 0
 468 524 478 496 478 465 c 0
 478 452 477 438 471 423 c 1
357 172 m 0
 380 172 392 184 392 208 c 0
 392 218 388 225 382 232 c 0
 378 238 369 243 357 243 c 0
 346 243 338 238 330 232 c 0
 326 224 322 218 322 208 c 0
 322 184 334 172 357 172 c 0
362 429 m 0
 374 429 381 432 388 440 c 0
 393 446 396 454 396 462 c 0
 396 472 393 482 388 488 c 1
 381 494 374 496 362 496 c 0
 351 496 342 494 336 486 c 0
 330 480 327 471 327 462 c 0
 327 454 330 447 336 440 c 0
 342 432 351 429 362 429 c 0
EndSplineSet
EndChar
StartChar: uni0E56
Encoding: 246 3670 212
Width: 526
Flags: W
HStem: -8 21G<240.5 286.5> 183 81<201 209> 356 97<260 308>
VStem: 84 82<140 154> 237 84<139 159> 408 99<208 225>
Fore
309 93 m 1
 314 93 324 99 339 106 c 0
 356 117 370 132 387 152 c 0
 402 170 408 195 408 224 c 0
 406 268 394 302 370 324 c 0
 348 346 310 357 260 356 c 0
 231 356 206 348 186 336 c 0
 166 324 153 315 146 308 c 1
 108 308 l 1
 106 336 102 369 92 408 c 0
 81 447 69 486 54 525 c 0
 39 562 24 594 10 616 c 1
 94 657 l 1
 106 640 120 604 140 552 c 0
 158 498 171 456 180 423 c 1
 224 442 266 453 308 453 c 0
 350 453 386 444 416 422 c 0
 444 402 468 374 483 339 c 0
 498 303 507 266 507 225 c 0
 507 146 482 88 429 51 c 0
 376 12 318 -8 255 -8 c 0
 226 -8 201 0 177 12 c 0
 152 24 129 40 110 63 c 0
 93 84 84 112 84 141 c 0
 84 172 94 201 116 226 c 0
 135 252 166 266 206 264 c 0
 226 264 248 258 264 248 c 0
 284 238 297 225 304 210 c 0
 314 195 318 178 321 159 c 0
 321 138 318 120 316 112 c 0
 314 104 310 96 309 93 c 1
201 112 m 0
 213 112 222 116 230 123 c 0
 234 130 237 140 237 147 c 0
 237 171 225 183 201 183 c 0
 178 183 166 171 166 147 c 0
 166 140 170 130 177 123 c 0
 182 116 190 112 201 112 c 0
EndSplineSet
EndChar
StartChar: uni0E57
Encoding: 247 3671 213
Width: 727
Flags: W
HStem: -12 76<199 214> 132 78<199 216> 327 85<199 217> 327 89<394 412>
VStem: 40 98<203 232> 238 77<99 107> 465 93<214 239> 579 95<410 463> 579 96<396 447> 585 93<253 310>
Fore
520 105 m 1
 546 117 562 135 572 165 c 0
 579 194 585 230 585 273 c 0
 585 285 585 297 585 310 c 0
 584 322 584 346 582 380 c 0
 579 412 579 435 579 447 c 0
 579 537 597 600 630 638 c 1
 644 628 657 624 670 615 c 0
 686 609 699 600 712 591 c 1
 687 561 674 510 674 440 c 0
 674 428 675 412 675 396 c 0
 675 381 676 368 676 354 c 0
 676 340 676 328 678 321 c 0
 678 312 678 300 678 282 c 0
 678 236 674 195 664 159 c 0
 656 123 639 93 615 68 c 0
 596 46 568 28 534 14 c 0
 500 -2 472 -14 452 -18 c 1
 394 42 l 1
 410 54 422 70 432 93 c 0
 442 114 452 135 456 159 c 0
 460 182 465 206 465 230 c 0
 465 258 459 282 452 300 c 0
 442 318 428 327 406 327 c 0
 368 327 350 296 350 231 c 1
 272 231 l 1
 270 255 262 276 252 297 c 0
 244 316 230 327 210 327 c 0
 188 327 171 315 158 290 c 0
 144 264 138 240 138 218 c 0
 138 206 140 195 142 190 c 1
 144 194 148 198 158 204 c 0
 166 208 183 210 208 210 c 0
 243 210 270 200 288 178 c 0
 308 156 315 130 315 99 c 0
 315 66 304 40 286 21 c 0
 266 -2 238 -12 204 -12 c 0
 170 -12 141 0 116 22 c 0
 90 44 70 70 60 106 c 0
 48 141 40 177 40 216 c 0
 40 249 50 282 64 314 c 0
 80 342 102 368 129 387 c 0
 154 404 183 412 213 412 c 0
 246 412 270 405 284 393 c 0
 297 381 304 369 309 362 c 1
 314 369 324 381 339 394 c 0
 354 408 378 416 410 416 c 0
 444 416 472 406 495 388 c 0
 518 369 534 348 543 322 c 0
 552 297 558 268 558 237 c 0
 558 212 555 190 549 170 c 0
 543 148 536 132 531 120 c 0
 525 110 522 105 520 105 c 1
 520 105 l 1
206 64 m 0
 216 64 224 68 231 75 c 0
 236 81 238 90 238 99 c 0
 238 106 236 114 231 122 c 0
 224 129 216 132 206 132 c 0
 195 132 186 129 182 122 c 0
 177 116 172 106 172 99 c 0
 172 90 177 81 182 75 c 0
 186 68 195 64 206 64 c 0
EndSplineSet
EndChar
StartChar: uni0E58
Encoding: 248 3672 214
Width: 693
Flags: W
HStem: -14 83<465 492> -14 167<482 501> 0 220<234 251.883> 220 78<487 509> 312 88<474 508> 328 90<285 329>
VStem: 56 98<196 219> 388 78<186 196> 576 93<456 488>
Fore
362 152 m 0
 404 96 442 69 477 69 c 0
 482 69 486 69 492 70 c 0
 495 74 496 75 498 76 c 1
 466 76 441 88 420 110 c 0
 399 132 387 159 388 194 c 0
 388 222 402 246 423 268 c 0
 446 288 471 298 500 298 c 0
 525 298 549 290 570 274 c 0
 590 260 604 237 616 212 c 0
 627 186 632 160 632 134 c 0
 632 92 618 56 590 28 c 0
 561 0 524 -14 482 -14 c 0
 447 -14 417 -8 392 4 c 0
 366 18 334 48 297 90 c 0
 282 108 272 117 264 117 c 0
 256 117 252 110 252 94 c 0
 252 82 256 66 262 48 c 0
 270 28 278 14 286 0 c 1
 168 0 l 1
 93 66 56 140 56 219 c 1
 64 285 92 334 135 368 c 0
 180 402 236 418 303 418 c 0
 315 418 332 417 354 416 c 0
 376 412 396 408 416 406 c 0
 432 405 447 404 459 402 c 0
 470 400 482 400 494 400 c 0
 543 400 570 417 574 453 c 0
 576 460 576 472 576 488 c 0
 576 507 574 524 572 543 c 0
 570 561 566 578 562 596 c 0
 560 612 558 624 556 628 c 1
 650 628 l 1
 654 621 657 597 663 558 c 0
 668 519 670 484 669 456 c 0
 668 404 651 366 626 344 c 0
 600 322 560 312 506 312 c 0
 477 312 434 315 375 324 c 0
 352 327 332 328 314 328 c 0
 272 328 237 322 212 309 c 0
 186 296 170 273 160 244 c 0
 156 225 154 210 154 198 c 0
 154 172 160 153 177 140 c 1
 177 152 180 165 188 183 c 0
 195 201 210 213 234 220 c 1
 262 220 286 213 309 200 c 0
 330 184 348 170 362 152 c 0
498 153 m 0
 510 153 519 156 524 162 c 0
 530 170 532 178 532 186 c 0
 532 196 530 206 524 212 c 0
 519 218 510 220 498 220 c 0
 488 220 480 218 474 212 c 0
 470 206 466 196 466 186 c 0
 466 178 470 170 474 162 c 0
 480 156 488 153 498 153 c 0
EndSplineSet
EndChar
StartChar: uni0E59
Encoding: 249 3673 215
Width: 628
Flags: W
HStem: -10 86<255 274> 146 80<264.629 277> 326 94<238 259>
VStem: 50 92<197 215> 309 81<110 114> 531 85<448 482>
DStem: 354 264 456 276 498 -8 588 38
Fore
170 286 m 0
 152 264 142 237 142 208 c 0
 142 192 146 177 152 160 c 0
 156 146 160 138 162 138 c 1
 168 160 180 182 198 200 c 0
 218 219 243 226 274 226 c 0
 300 226 322 222 339 210 c 0
 354 198 368 184 376 168 c 0
 386 148 388 132 390 114 c 0
 390 76 376 46 351 24 c 0
 326 2 292 -10 255 -10 c 0
 216 -10 174 4 134 32 c 0
 93 60 68 94 56 141 c 0
 51 159 50 182 50 207 c 0
 50 255 62 296 82 330 c 0
 105 366 140 392 182 406 c 0
 204 416 226 420 252 420 c 0
 285 420 310 416 328 404 c 0
 348 392 362 382 368 375 c 1
 374 410 390 428 420 428 c 0
 446 428 466 420 484 406 c 0
 500 394 510 388 516 388 c 0
 525 388 531 408 531 448 c 0
 530 492 522 534 512 573 c 0
 500 612 494 630 492 630 c 2
 585 630 l 1
 590 618 597 600 603 574 c 0
 610 548 616 518 616 482 c 0
 618 420 612 375 603 346 c 0
 596 315 573 298 537 297 c 0
 524 297 507 303 488 315 c 0
 468 327 454 332 447 332 c 0
 442 330 441 326 441 318 c 0
 444 303 448 288 456 276 c 2
 588 38 l 1
 498 -8 l 1
 354 264 l 2
 344 285 330 300 312 310 c 0
 292 321 274 326 255 326 c 0
 219 326 190 312 170 286 c 0
274 76 m 0
 286 76 296 80 300 87 c 0
 304 93 309 102 309 112 c 0
 309 122 304 130 300 138 c 0
 296 142 286 146 274 146 c 0
 262 146 255 142 249 135 c 0
 244 129 240 120 240 112 c 0
 240 104 244 94 249 87 c 0
 255 80 262 76 274 76 c 0
EndSplineSet
EndChar
StartChar: uni0E5A
Encoding: 250 3674 216
Width: 691
VWidth: 2048
Flags: W
HStem: -40 86<286 321> -32 21G<537 538> 426 81<165 168> 588 78<158 165>
VStem: 374 106<130 344> 543 108<104 540>
Fore
162 588 m 4
 142 588 132 578 123 546 c 5
 126 522 134 513 165 507 c 5
 177 507 186 512 194 518 c 5
 196 525 201 536 204 548 c 5
 200 576 194 585 162 588 c 4
462 634 m 5
 488 650 l 4
 498 656 512 662 530 663 c 4
 531 663 l 4
 573 663 609 650 630 618 c 4
 638 608 642 594 648 574 c 4
 648 573 648 573 648 573 c 4
 651 540 l 4
 651 538 651 538 651 538 c 4
 651 132 l 4
 652 52 612 -4 538 -32 c 4
 537 -32 537 -32 537 -32 c 4
 516 -40 l 4
 507 -40 500 -40 495 -34 c 4
 468 21 l 4
 465 34 456 39 468 46 c 4
 482 50 l 4
 490 51 495 54 500 57 c 4
 530 81 l 4
 536 88 540 99 543 104 c 5
 543 534 l 4
 543 546 538 550 538 552 c 4
 534 560 530 562 512 562 c 4
 495 562 484 552 480 546 c 5
 480 141 l 4
 480 93 466 51 440 15 c 4
 408 -22 368 -40 321 -40 c 4
 315 -40 312 -39 309 -34 c 4
 274 26 l 4
 272 42 272 39 286 46 c 4
 309 46 328 56 352 80 c 4
 364 92 374 110 374 142 c 4
 374 344 l 5
 374 344 374 330 334 312 c 4
 308 291 273 284 231 284 c 4
 162 284 106 309 70 357 c 4
 36 402 21 459 21 526 c 4
 21 530 21 530 21 530 c 4
 24 566 39 598 66 626 c 4
 93 652 128 666 165 666 c 4
 183 666 200 663 210 660 c 5
 252 646 284 621 284 550 c 4
 284 518 273 486 250 462 c 4
 230 440 200 426 166 426 c 4
 135 426 l 5
 134 435 l 5
 142 410 l 5
 148 400 156 393 160 390 c 5
 196 378 l 5
 226 375 l 5
 249 376 264 381 282 394 c 5
 308 423 l 5
 336 471 l 4
 344 488 351 508 354 531 c 5
 363 621 l 4
 363 622 363 622 363 622 c 4
 366 648 388 666 414 664 c 4
 426 664 438 663 447 654 c 4
 452 652 l 4
 460 638 l 4
 460 636 460 636 462 636 c 4
 462 634 l 5
EndSplineSet
EndChar
StartChar: uni0E5B
Encoding: 251 3675 217
Width: 1227
VWidth: 2048
Flags: W
HStem: 42 81<260 278> 255 71<1015 1215> 376 54<218 224> 534 81<234 246>
VStem: 21 79<313 354> 140 61<332 348> 240 64<292 303> 342 80<393 427>
Fore
292 276 m 1
 326 302 342 344 342 404 c 0
 342 490 308 534 234 534 c 0
 194 534 159 508 134 459 c 0
 110 418 100 375 100 330 c 0
 100 279 114 234 141 194 c 0
 171 147 210 123 260 123 c 0
 327 123 376 162 406 238 c 0
 423 279 441 336 459 406 c 2
 504 576 l 1
 548 576 l 1
 598 354 l 1
 632 550 l 1
 678 550 l 1
 722 346 l 1
 780 530 l 1
 837 360 l 1
 878 490 l 1
 924 382 960 327 982 327 c 2
 1016 326 l 1
 1215 326 l 1
 1215 260 l 1
 993 255 l 1
 942 260 l 1
 930 262 918 272 908 286 c 1
 909 292 l 1
 897 300 l 1
 836 105 l 1
 783 285 l 1
 720 99 l 1
 662 282 l 1
 626 80 l 1
 579 80 l 1
 524 340 l 1
 495 240 468 174 444 140 c 0
 402 75 339 42 260 42 c 0
 183 42 123 74 80 134 c 0
 40 186 21 252 21 332 c 0
 21 404 38 466 74 520 c 0
 112 584 166 615 234 615 c 0
 292 615 340 594 375 550 c 0
 406 512 422 460 422 402 c 0
 422 346 410 300 387 261 c 0
 357 213 316 190 266 190 c 0
 231 190 198 207 171 240 c 1
 148 274 140 304 140 332 c 0
 140 357 146 381 159 399 c 0
 174 420 195 430 220 430 c 0
 248 430 270 420 285 402 c 0
 302 382 309 360 308 332 c 2
 304 303 l 2
 304 296 300 285 292 276 c 1
201 332 m 0
 201 298 212 282 230 282 c 0
 236 282 240 285 240 292 c 1
 244 332 l 1
 248 360 238 375 224 376 c 1
 210 376 201 362 201 332 c 0
EndSplineSet
EndChar
StartChar: uni0E38.low
Encoding: 252 63256 218
Width: 0
Flags: W
HStem: -552 68<-224 -202> -393 67<-210 -202>
VStem: -321 71<-451.96 -428> -159 67<-451.314 -428>
Fore
-92 -681 m 1
 -184 -681 l 1
 -184 -550 l 1
 -192 -552 -206 -552 -224 -552 c 1
 -255 -548 -278 -536 -296 -513 c 0
 -312 -492 -321 -468 -321 -440 c 0
 -321 -408 -310 -381 -288 -360 c 0
 -268 -338 -238 -326 -204 -326 c 0
 -184 -326 -166 -328 -148 -338 c 0
 -134 -346 -120 -360 -108 -375 c 0
 -99 -392 -92 -410 -92 -430 c 2
 -92 -681 l 1
-206 -484 m 0
 -190 -484 -180 -480 -171 -471 c 0
 -162 -462 -159 -453 -159 -440 c 0
 -159 -428 -162 -416 -171 -406 c 0
 -180 -399 -190 -393 -206 -393 c 0
 -220 -393 -231 -399 -238 -406 c 0
 -248 -417 -250 -428 -250 -440 c 0
 -250 -452 -248 -462 -238 -471 c 0
 -231 -480 -220 -484 -206 -484 c 0
EndSplineSet
EndChar
StartChar: uni0E39.low
Encoding: 253 63257 219
Width: 0
Flags: W
HStem: -692 83<-214 -206> -552 68<-368 -346> -393 67<-354 -346>
VStem: -465 71<-451.96 -428> -332 96<-596 -550> -304 68<-449.192 -430> -184 92<-588.777 -332>
Fore
-332 -596 m 2
 -332 -550 l 1
 -339 -552 -351 -552 -368 -552 c 1
 -399 -548 -422 -536 -440 -513 c 0
 -456 -492 -465 -468 -465 -440 c 0
 -465 -408 -454 -381 -432 -360 c 0
 -412 -338 -382 -326 -348 -326 c 0
 -328 -326 -310 -328 -292 -338 c 0
 -278 -346 -264 -360 -252 -375 c 0
 -243 -392 -236 -410 -236 -430 c 2
 -236 -579 l 2
 -236 -598 -226 -609 -208 -609 c 0
 -194 -609 -184 -598 -184 -579 c 2
 -184 -332 l 1
 -92 -332 l 1
 -92 -596 l 2
 -92 -615 -99 -632 -110 -648 c 0
 -122 -663 -138 -674 -156 -680 c 0
 -174 -688 -194 -692 -212 -692 c 0
 -240 -692 -268 -682 -292 -666 c 0
 -318 -648 -332 -624 -332 -596 c 2
-350 -484 m 0
 -336 -484 -326 -480 -316 -471 c 0
 -309 -462 -304 -452 -304 -440 c 0
 -304 -428 -309 -416 -316 -406 c 0
 -326 -399 -336 -393 -350 -393 c 0
 -364 -393 -375 -399 -382 -406 c 0
 -392 -417 -394 -428 -394 -440 c 0
 -394 -452 -392 -462 -382 -471 c 0
 -375 -480 -364 -484 -350 -484 c 0
EndSplineSet
EndChar
StartChar: uni0E3A.low
Encoding: 254 63258 220
Width: 0
Flags: W
Fore
-138 -314 m 0
 -126 -314 -116 -315 -106 -321 c 0
 -99 -326 -92 -334 -87 -344 c 0
 -81 -354 -80 -364 -80 -374 c 0
 -80 -388 -84 -402 -94 -414 c 0
 -105 -426 -118 -430 -138 -430 c 0
 -156 -430 -170 -426 -180 -414 c 0
 -192 -402 -196 -388 -196 -374 c 0
 -196 -357 -192 -342 -180 -330 c 0
 -170 -318 -156 -314 -138 -314 c 0
EndSplineSet
EndChar
StartChar: exclamdown
Encoding: 256 161 221
Width: 217
VWidth: 2048
Flags: W
HStem: 495 121<24 186>
Fore
186 616 m 1
 186 495 l 1
 24 495 l 1
 24 616 l 1
 186 616 l 1
162 428 m 1
 200 21 l 1
 200 -147 l 1
 12 -147 l 1
 12 21 l 1
 46 428 l 1
 162 428 l 1
EndSplineSet
EndChar
StartChar: cent
Encoding: 257 162 222
Width: 522
VWidth: 2048
Flags: W
HStem: 4 116<255 273> 507 105<220 249>
VStem: -32 120<273 339>
DStem: 102 32 216 12 30 -186 144 -206 248 506 370 488 130 142 256 123 354 820 466 804 286 609 400 590
Fore
370 488 m 1
 256 123 l 1
 268 120 l 1
 348 120 393 162 406 248 c 1
 525 220 l 1
 512 158 483 105 434 66 c 0
 387 26 326 4 255 4 c 0
 246 4 234 8 220 10 c 2
 216 12 l 1
 144 -206 l 1
 30 -186 l 1
 102 32 l 1
 34 63 -9 118 -24 196 c 0
 -28 226 -32 264 -32 308 c 0
 -32 394 -10 466 36 522 c 0
 84 582 158 612 249 612 c 1
 286 609 l 1
 354 820 l 1
 466 804 l 1
 400 590 l 1
 444 574 474 544 492 500 c 0
 496 488 501 471 506 454 c 1
 510 429 l 1
 399 406 l 1
 388 465 l 1
 388 466 l 1
 388 466 l 1
 388 468 l 1
 388 468 l 1
 386 477 380 483 370 488 c 1
248 506 m 1
 244 507 l 2
 141 508 88 444 88 314 c 0
 88 248 93 204 102 183 c 0
 106 166 117 153 130 142 c 1
 248 506 l 1
EndSplineSet
EndChar
StartChar: sterling
Encoding: 258 163 223
Width: 511
VWidth: 2048
Flags: W
HStem: -8 89<366 377> 268 82<-12 81 170 308> 536 90<247 266>
VStem: 36 108<432 456> 87 105<214 231>
Fore
170 350 m 1
 308 350 l 1
 308 268 l 1
 183 268 l 1
 188 258 192 243 192 224 c 2
 192 172 l 1
 190 158 174 138 147 112 c 1
 180 120 l 1
 186 120 l 2
 196 120 212 117 231 106 c 0
 240 105 248 102 256 100 c 0
 312 88 350 81 368 81 c 0
 390 81 420 90 459 105 c 1
 482 18 l 1
 434 2 394 -8 366 -8 c 1
 326 -3 l 1
 264 10 l 1
 201 27 l 1
 156 28 l 1
 105 28 57 16 14 -9 c 1
 -24 68 l 1
 50 105 87 159 87 231 c 1
 81 268 l 1
 -12 268 l 1
 -12 350 l 1
 60 350 l 1
 44 394 36 429 36 452 c 0
 36 504 57 546 100 576 c 1
 140 609 190 626 250 626 c 0
 375 626 446 572 462 466 c 1
 366 434 l 1
 356 483 339 512 314 525 c 0
 298 531 279 536 255 536 c 0
 220 536 192 525 166 504 c 0
 153 494 144 474 144 448 c 0
 144 453 144 447 144 432 c 0
 144 418 148 402 158 380 c 0
 160 369 166 357 170 350 c 1
EndSplineSet
EndChar
StartChar: currency
Encoding: 259 164 224
Width: 561
VWidth: 2048
Flags: W
HStem: 76 131<244 264> 363 135<243 260> 363 137<249 264>
VStem: 38 142<272 292> 340 150<272 292>
Fore
75 388 m 1
 0 456 l 1
 80 534 l 1
 154 465 l 1
 188 484 218 496 243 498 c 2
 243 498 l 2
 246 498 248 498 250 500 c 2
 262 500 l 2
 296 500 326 492 356 472 c 2
 369 465 l 1
 444 534 l 1
 531 454 l 1
 459 387 l 1
 477 360 488 332 490 308 c 1
 490 304 l 1
 490 290 l 2
 490 249 484 222 478 206 c 1
 465 183 l 1
 537 114 l 1
 452 34 l 1
 375 105 l 1
 350 87 316 78 279 76 c 2
 262 76 l 2
 220 76 186 82 162 99 c 0
 158 100 154 104 148 105 c 1
 75 36 l 1
 -9 117 l 1
 66 184 l 1
 48 212 38 240 38 274 c 1
 38 276 l 1
 38 276 l 1
 38 278 l 1
 38 278 l 1
 38 290 l 2
 38 316 46 344 64 370 c 1
 75 388 l 1
180 285 m 0
 180 262 186 244 201 230 c 0
 218 213 237 207 260 207 c 0
 284 207 302 213 316 230 c 0
 332 244 340 262 340 285 c 0
 340 308 332 326 316 340 c 0
 300 354 282 363 260 363 c 0
 237 363 219 354 204 340 c 0
 188 326 180 308 180 285 c 0
EndSplineSet
EndChar
StartChar: yen
Encoding: 260 165 225
Width: 712
VWidth: 2048
Flags: W
HStem: 0 21G<278 396> 146 103<0 278 396 669> 298 108<0 278 442 669>
VStem: 278 118<0 146 249 298>
DStem: -40 784 106 784 230 406 302 508
Fore
278 0 m 1
 278 146 l 1
 0 146 l 1
 0 249 l 1
 278 249 l 1
 278 298 l 1
 0 298 l 1
 0 406 l 1
 230 406 l 1
 -40 784 l 1
 106 784 l 1
 302 508 l 1
 336 444 l 1
 369 516 l 1
 552 784 l 1
 712 784 l 1
 442 406 l 1
 669 406 l 1
 669 298 l 1
 396 298 l 1
 396 249 l 1
 669 249 l 1
 669 146 l 1
 396 146 l 1
 396 0 l 1
 278 0 l 1
EndSplineSet
EndChar
StartChar: brokenbar
Encoding: 261 166 226
Width: 141
VWidth: 2048
Flags: W
VStem: 9 119<-244 114 272 628>
Fore
128 628 m 1
 128 272 l 1
 9 272 l 1
 9 628 l 1
 128 628 l 1
128 114 m 1
 128 -244 l 1
 9 -244 l 1
 9 114 l 1
 128 114 l 1
EndSplineSet
EndChar
